<svg width="294" height="189" viewBox="0 0 294 189" fill="none" xmlns="http://www.w3.org/2000/svg">
<path d="M83.2994 17.9968L0 0L30.9641 60.3214L51.3872 44.1725L59.4858 58.1842L62.105 32.9245L83.2994 17.9968Z" fill="#51A9F3"/>
<path d="M59.775 31.7033L62.105 32.9245L59.4858 58.1842L51.3872 44.1725L0 0L59.775 31.7033Z" fill="#092B96"/>
<path d="M42.2603 51.3873L59.4858 58.1843L51.3872 44.1725L42.2603 51.3873Z" fill="#1574BC"/>
<path d="M65.158 61.0766C64.4028 60.3535 63.6958 59.5822 63.0209 58.8109L63.5993 58.2968C64.2582 59.052 64.9652 59.8072 65.7043 60.5303L65.158 61.0766Z" fill="#092B96"/>
<path d="M284.124 188.195C282.083 188.066 280.027 187.89 277.986 187.665L278.066 186.893C280.091 187.118 282.148 187.295 284.172 187.424L284.124 188.195ZM271.88 186.845C269.871 186.524 267.831 186.138 265.822 185.72L265.983 184.965C267.975 185.383 270 185.769 272.008 186.09L271.88 186.845ZM259.829 184.29C257.836 183.776 255.844 183.198 253.899 182.587L254.124 181.848C256.052 182.459 258.029 183.021 260.005 183.535L259.829 184.29ZM248.066 180.611C246.154 179.904 244.226 179.148 242.33 178.361L242.635 177.654C244.515 178.441 246.427 179.197 248.339 179.888L248.066 180.611ZM236.706 175.854C234.842 174.971 232.994 174.039 231.194 173.091L231.564 172.4C233.348 173.348 235.195 174.28 237.043 175.147L236.706 175.854ZM225.827 170.086C224.06 169.041 222.308 167.949 220.605 166.824L221.023 166.181C222.726 167.29 224.462 168.382 226.229 169.411L225.827 170.086ZM215.511 163.337C213.856 162.148 212.201 160.895 210.611 159.609L211.093 158.998C212.683 160.268 214.322 161.505 215.977 162.694L215.511 163.337ZM205.886 155.656C204.344 154.306 202.817 152.908 201.339 151.494L201.885 150.932C203.348 152.346 204.858 153.728 206.401 155.078L205.886 155.656ZM197 147.124C195.603 145.645 194.205 144.103 192.887 142.544L193.481 142.046C194.799 143.589 196.181 145.131 197.579 146.593L197 147.124ZM188.998 137.756C187.745 136.133 186.508 134.462 185.351 132.791L185.994 132.341C187.15 133.996 188.372 135.651 189.625 137.274L188.998 137.756ZM181.96 127.649C181.703 127.231 181.446 126.813 181.189 126.395C180.353 125.029 179.566 123.664 178.843 122.33L179.518 121.96C180.241 123.278 181.028 124.628 181.848 125.994C182.105 126.411 182.362 126.829 182.619 127.247L181.96 127.649ZM176.031 116.835C175.131 114.938 174.312 113.026 173.589 111.162L174.312 110.889C175.019 112.737 175.838 114.633 176.722 116.513L176.031 116.835ZM171.596 105.313C171.018 103.305 170.519 101.28 170.15 99.3037L170.905 99.1591C171.275 101.119 171.757 103.112 172.335 105.088L171.596 105.313ZM176.047 94.0814L176.015 93.3102C178.216 93.2298 180.225 92.9566 182.008 92.4907L182.201 93.2459C180.369 93.7119 178.297 94.0011 176.047 94.0814ZM169.861 93.8886C167.756 93.6958 165.699 93.3744 163.739 92.9245L163.915 92.1693C165.651 92.571 167.466 92.8602 169.33 93.0531C169.266 92.1853 169.25 91.3176 169.25 90.466C169.25 89.2609 169.314 88.0879 169.427 86.9631L170.198 87.0434C170.086 88.1361 170.021 89.293 170.021 90.466C170.021 91.3337 170.053 92.2175 170.118 93.1173L169.925 93.1334L169.861 93.8886ZM157.825 91.0927C155.849 90.2893 154.001 89.3251 152.314 88.2325L152.732 87.5897C154.371 88.6663 156.186 89.5983 158.098 90.3857L157.825 91.0927ZM187.922 90.7231L187.488 90.0804C187.632 89.984 187.793 89.8715 187.938 89.759C189.368 88.7145 190.573 87.3166 191.457 85.7097L192.132 86.0793C191.2 87.7826 189.898 89.2769 188.388 90.3857C188.243 90.5142 188.082 90.6267 187.922 90.7231ZM147.509 84.2796C146.111 82.8656 144.794 81.2587 143.573 79.4912L144.215 79.0573C145.404 80.7927 146.706 82.3675 148.056 83.7494L147.509 84.2796ZM171.564 81.1945L170.841 80.9213C171.628 78.8645 172.705 77.0648 174.071 75.5705L174.649 76.0847C173.348 77.5148 172.303 79.2341 171.564 81.1945ZM192.887 80.0375C192.839 78.736 192.501 77.5148 191.907 76.4221C191.569 75.8115 191.152 75.2491 190.669 74.767L191.216 74.2207C191.746 74.767 192.196 75.3776 192.566 76.0525C193.224 77.2577 193.594 78.5913 193.642 80.0054L192.887 80.0375ZM105.088 74.7992V74.0279C107.033 74.0118 109.089 73.9475 111.21 73.819L111.259 74.5903C109.122 74.7188 107.049 74.7992 105.088 74.7992ZM98.918 74.6224C96.813 74.4778 94.7562 74.2528 92.7798 73.9475L92.8923 73.1762C94.8366 73.4815 96.8934 73.6904 98.9662 73.8351L98.918 74.6224ZM140.439 74.1564C139.555 72.421 138.736 70.5731 137.916 68.5164L138.639 68.2271C139.443 70.2678 140.262 72.0836 141.13 73.8029L140.439 74.1564ZM117.381 74.06L117.3 73.2887C118.843 73.128 120.434 72.9192 122.153 72.6942L123.39 72.5174L123.503 73.2887L122.266 73.4655C120.53 73.6904 118.939 73.8833 117.381 74.06ZM179.566 72.8709L179.309 72.1318C181.318 71.4408 183.519 71.2159 185.544 71.5051L185.431 72.2764C183.535 72.0032 181.446 72.2121 179.566 72.8709ZM86.722 72.7103C84.7134 72.1961 82.7209 71.5533 80.8248 70.8463L81.098 70.1232C82.9619 70.8302 84.9223 71.4569 86.9148 71.9711L86.722 72.7103ZM129.577 72.2443L129.416 71.489C131.569 71.0552 133.514 70.5731 135.345 70.0107L135.57 70.7499C133.722 71.3123 131.762 71.8104 129.577 72.2443ZM141.355 68.5646L141.034 67.8576C142.93 66.9738 144.697 65.9615 146.288 64.8367L146.738 65.4633C145.115 66.6203 143.299 67.6647 141.355 68.5646ZM75.1847 68.2914C73.3208 67.3112 71.5532 66.2186 69.9142 65.0456L70.3642 64.4189C71.971 65.5758 73.7225 66.6524 75.5543 67.6165L75.1847 68.2914ZM135.844 62.6995C135.153 60.5142 134.654 58.5539 134.317 56.706L135.072 56.5614C135.394 58.3771 135.892 60.3053 136.567 62.4585L135.844 62.6995ZM151.35 61.2855L150.755 60.7874C152.073 59.2448 153.198 57.5576 154.081 55.7579L154.772 56.0954C153.872 57.9433 152.716 59.6947 151.35 61.2855ZM134.622 50.5356L133.851 50.5035C133.883 49.5715 133.98 48.6396 134.108 47.7558C134.285 46.6149 134.59 45.4741 134.992 44.3653L135.715 44.6224C135.329 45.6829 135.04 46.7756 134.879 47.8683C134.735 48.736 134.654 49.6358 134.622 50.5356ZM156.749 50.1661L155.993 50.0375C156.186 48.977 156.283 47.9004 156.283 46.872C156.283 45.924 156.202 44.9759 156.042 44.06L156.797 43.9315C156.974 44.8795 157.054 45.8758 157.054 46.872C157.038 47.9486 156.942 49.0573 156.749 50.1661ZM138.688 39.4483L138.093 38.9502C139.539 37.247 141.227 35.9775 143.107 35.1902L143.412 35.8972C141.644 36.6524 140.07 37.8415 138.688 39.4483ZM153.84 38.5485C153.005 37.3273 152.008 36.4114 150.916 35.849C150.386 35.5758 149.807 35.3669 149.197 35.2384L149.357 34.4832C150.032 34.6278 150.675 34.8527 151.269 35.158C152.491 35.7847 153.567 36.781 154.483 38.1147L153.84 38.5485Z" fill="#092B96"/>
<path d="M291.468 188.42C291.13 188.42 290.809 188.42 290.471 188.42V187.649C291.5 187.665 292.528 187.649 293.573 187.633L293.589 188.404C292.882 188.42 292.175 188.42 291.468 188.42Z" fill="#092B96"/>
</svg>
