<svg width="146" height="302" viewBox="0 0 146 302" fill="none" xmlns="http://www.w3.org/2000/svg">
<path d="M89.219 285.722C89.1989 286.404 89.1589 287.166 89.0787 287.968C88.798 290.474 86.1715 291.857 85.5701 292.138C85.9109 292.158 86.2116 292.238 86.4522 292.339C90.7627 294.223 93.2489 294.704 97.4391 292.92C97.7599 292.78 98.1008 292.78 98.4015 292.88C98.2411 290.775 97.8401 287.868 97.4993 285.722H89.219Z" fill="#FFA683"/>
<path d="M99.3637 299.396C99.464 297.612 99.4239 295.607 99.3637 294.103C99.3237 293.161 98.3412 292.539 97.4791 292.92C93.2688 294.724 90.8028 294.243 86.4721 292.359C83.144 290.915 72.3976 296.91 69.7511 298.674C69.7311 298.674 69.7311 298.694 69.7111 298.694C68.3477 299.616 69.0294 301.762 70.6734 301.762H96.8777C98.2009 301.742 99.3036 300.719 99.3637 299.396Z" fill="#2B56E0"/>
<path d="M132.625 284.118C132.605 284.799 132.565 285.561 132.485 286.363C132.204 288.869 129.578 290.253 128.976 290.533C129.317 290.553 129.618 290.634 129.858 290.734C134.169 292.619 136.655 293.1 140.845 291.315C141.166 291.175 141.507 291.175 141.808 291.275C141.647 289.17 141.246 286.263 140.905 284.118H132.625Z" fill="#FFA683"/>
<path d="M142.77 297.791C142.87 296.007 142.83 294.002 142.77 292.498C142.73 291.556 141.748 290.934 140.886 291.315C136.675 293.12 134.209 292.639 129.878 290.754C126.55 289.31 115.804 295.305 113.157 297.069C113.137 297.069 113.137 297.09 113.117 297.09C111.754 298.012 112.436 300.157 114.08 300.157H140.284C141.607 300.137 142.69 299.094 142.77 297.791Z" fill="#2B56E0"/>
<path d="M134.65 132.967C134.69 136.636 137.257 146.621 137.257 157.788C137.257 179.221 126.35 207.971 126.35 207.971L144.555 285.301L129.157 285.762L95.0532 210.097L97.5193 129.158L134.65 132.967Z" fill="#092B96"/>
<path d="M122.4 128.617C122.4 128.617 119.974 153.819 114.842 172.384C110.551 187.902 79.5151 211.46 79.5151 211.46L99.6646 286.745H87.0737L42.0432 213.605C40.9204 210.478 41.0809 207.009 42.5244 204.022L85.5098 121.981L122.4 128.617Z" fill="#2B56E0"/>
<path d="M16.1596 115.084L0 115.104C0 115.104 0.801964 124.767 17.6032 124.767L16.1596 115.084Z" fill="#FFA683"/>
<path d="M103.033 33.0622C103.153 32.2602 103.434 30.0749 103.293 28.8318C102.792 23.8396 99.8048 22.9574 96.3563 26.045C96.3563 26.045 93.2287 24.1002 91.5245 20.2307C90.502 17.9251 86.2115 19.6894 82.8432 19.0278C79.9361 26.0851 82.6026 35.7889 88.7176 40.32C91.2037 42.1645 93.5094 42.3851 96.4566 42.365L97.2787 54.8356L112.416 50.8057L112.195 43.4677C106.401 43.6281 102.191 38.6359 103.033 33.0622Z" fill="#FFA683"/>
<path opacity="0.4" d="M91.2639 286.744C88.0761 281.331 48.5391 213.966 54.3734 205.766C60.4483 197.205 87.5548 144.034 87.5548 144.034L81.1391 135.834C81.1391 135.834 79.1943 137.418 76.1268 139.964L42.5645 204.021C41.1209 207.029 40.9606 210.477 42.0833 213.605L87.1137 286.744H91.2639Z" fill="#092B96"/>
<path d="M86.031 68.0885C86.833 52.6907 110.792 51.4878 113.378 51.4477C116.807 51.4076 120.014 53.2321 122.22 55.658C126.069 59.9285 133.347 69.2513 131.021 82.4236C125.027 116.166 137.437 137.679 139.021 148.265C116.746 157.287 69.5707 146.1 69.5707 146.1L83.966 91.2653L86.031 68.0885Z" fill="#51A9F3"/>
<path d="M68.1472 104.879C68.1472 104.879 82.8031 51.6882 101.509 54.7557C122.2 58.144 88.1362 124.146 88.1362 124.146L17.5029 125.569L16.0795 114.322L68.1472 104.879Z" fill="#51A9F3"/>
<path d="M98.7823 122.361C95.3138 132.827 83.8056 131.985 83.8056 131.985L77.3898 147.724C72.5579 146.821 69.5907 146.12 69.5907 146.12L75.2847 124.406L88.1562 124.146C88.1562 124.146 111.854 78.2132 107.704 61.011C108.426 62.4946 114.06 76.3085 98.7823 122.361Z" fill="#147AC6"/>
<path d="M118.771 86.9346C94.8727 85.7116 102.932 39.1774 103.213 30.1553C103.374 25.143 99.8048 22.9376 96.3563 26.0252C96.3563 26.0252 93.2487 24.0804 91.5245 20.2109C90.502 17.9053 85.1689 19.6696 81.8007 19.0079C88.6174 -8.49953 120.917 -7.21637 135.192 30.015C147.482 62.1538 156.945 88.8994 118.771 86.9346Z" fill="#092B96"/>
<path d="M98.5216 44.8916C99.1231 44.2901 101.669 39.2778 101.669 39.2778C100.406 40.5008 98.0605 41.6437 96.9978 42.1248C96.657 42.2852 96.4565 42.3654 96.4565 42.3654L97.2786 54.836L98.9827 54.3749C98.6018 50.6056 98.1407 45.2725 98.5216 44.8916Z" fill="#EF7F5E"/>
<path d="M81.4798 81.2407C84.6075 66.5647 94.2712 57.3019 96.657 55.1968C80.337 60.6903 68.1471 104.879 68.1471 104.879L16.0593 114.342L74.3423 110.853C74.3423 110.853 77.911 98.0018 81.4798 81.2407Z" fill="#63B8F7"/>
<path d="M107.885 7.01855C125.247 14.8177 135.212 43.0469 130.46 86.4333C154.639 82.4235 146.038 58.3043 135.192 30.015C120.917 -7.23641 88.6374 -8.51957 81.8007 19.0079C81.8007 19.028 90.4017 -0.820677 107.885 7.01855Z" fill="#052575"/>
</svg>
