<svg width="210" height="277" viewBox="0 0 210 277" fill="none" xmlns="http://www.w3.org/2000/svg">
<path d="M103.86 174.029L105.679 179.15L132.818 176.374C132.818 176.374 162.733 214.498 175.13 227.469C176.422 228.809 177.882 230.437 179.366 232.255C187.263 213.11 203.274 152.777 187 147.991C162.996 140.931 103.86 174.029 103.86 174.029Z" fill="#092B96"/>
<path d="M158.258 208.012C164.695 215.766 170.942 223.089 175.154 227.517C176.446 228.857 177.906 230.484 179.39 232.303C184.32 220.385 192.385 192.504 193.821 171.994C188.412 172.784 170.104 193.796 158.258 208.012Z" fill="#052575"/>
<path d="M132.842 176.398C132.842 176.398 162.757 214.522 175.154 227.517C187.574 240.512 215.934 278.947 139.686 275.979C63.4389 273.036 28.8093 261.309 28.8093 261.309L27.2297 244.748L107.019 236.276C107.019 236.276 57.1687 230.46 63.2714 183.482L132.842 176.398Z" fill="#173ACC"/>
<path d="M134.278 182.285L135.642 179.916C143.348 189.656 165.054 216.915 175.177 227.493C180.06 232.614 187.407 241.661 189.896 250.563C184.056 236.994 166.107 224.31 150.839 209.4C131.047 190.183 134.278 182.285 134.278 182.285Z" fill="#2B56E0"/>
<path d="M13.4448 248.218C13.4448 248.218 13.2055 248.242 12.7508 248.266C10.0226 248.481 2.48396 248.888 0.952312 252.286C-0.818658 256.235 -1.44088 275.812 11.3628 276.41C24.1664 277.008 8.99349 266.789 13.3491 262.577L13.4448 248.218Z" fill="#092B96"/>
<path d="M27.2297 244.772L107.019 236.3C107.019 236.3 115.683 240.033 142.486 250.683C158.76 257.145 175.704 263.726 185.038 268.034C178.241 273.538 164.504 276.96 139.662 276.003C63.415 273.059 28.7853 261.333 28.7853 261.333L27.2297 244.772Z" fill="#092B96"/>
<path d="M28.8092 261.333C28.8092 261.333 19.1647 257.288 14.0193 262.721C6.6482 270.523 13.421 248.242 13.421 248.242L27.2058 244.796L28.8092 261.333Z" fill="#FFA683"/>
<path d="M208.97 49.6301L185.755 30.5084C184.966 29.8623 184.726 28.7375 185.181 27.828C189.273 19.4997 186.952 9.04138 178.791 3.39342C171.324 -1.7759 161.01 -0.962201 154.452 5.30799C153.16 6.55246 152.083 7.91658 151.198 9.37643C146.363 17.4176 147.991 28.0195 155.41 34.194C162.398 40.0095 172.282 40.0573 179.294 34.8641C179.509 34.6965 179.749 34.5769 180.012 34.5051C180.706 34.3136 181.472 34.4572 182.046 34.9359L205.26 54.0575C205.882 54.5601 206.624 54.7755 207.366 54.7037C208.108 54.6319 208.802 54.2969 209.305 53.6747C210.358 52.4541 210.19 50.6353 208.97 49.6301ZM178.719 28.4024C173.718 34.4094 164.791 35.223 158.76 30.2212C152.753 25.2195 151.94 16.2928 156.941 10.2619C161.943 4.255 170.87 3.44129 176.901 8.44308C182.908 13.4449 183.721 22.3955 178.719 28.4024Z" fill="white"/>
<path d="M176.901 8.44302C170.894 3.44122 161.967 4.25493 156.941 10.2619C151.94 16.2688 152.753 25.1955 158.76 30.2212C164.767 35.223 173.694 34.4093 178.719 28.4024C183.721 22.3954 182.908 13.4448 176.901 8.44302Z" fill="#51A9F3"/>
<path d="M196.549 38.1908C194.491 37.9036 192.193 39.531 190.183 41.5412C189.609 39.5788 188.556 36.683 187.503 36.2283C185.875 35.5582 183.961 49.0081 183.961 49.0081L185.109 48.0268C184.918 48.314 184.822 48.4816 184.822 48.4816L196.118 54.3449C203.346 44.4131 201.694 38.8848 196.549 38.1908Z" fill="#FFA683"/>
<path d="M63.3192 140.308C65.5688 117.07 68.9193 92.229 73.251 85.552C75.4289 82.1775 77.3913 79.8322 79.8084 78.2766C79.7845 78.2527 79.7845 78.2527 79.7845 78.2527C79.7845 78.2527 58.7721 91.6546 50.0848 112.332C45.8967 122.383 53.9139 132.531 63.3192 140.308Z" fill="#51A9F3"/>
<path d="M120.565 77.3674L119.847 68.2254C122.742 67.7707 125.471 66.4544 127.601 64.2287C133.296 58.3175 133.201 47.1652 128.079 40.8472C123.341 42.2831 117.31 41.3019 117.094 43.8865C116.735 48.0028 116.353 51.3055 116.353 51.3055C112.428 48.8405 108.311 49.1994 108.862 54.4405C109.077 56.5466 110.561 59.8971 112.117 60.1603C112.117 60.1603 113.289 69.0869 104.506 72.5332C104.506 72.5332 104.506 72.5332 104.482 72.5092L104.458 75.6683L120.565 77.3674Z" fill="#FFA683"/>
<path d="M89.2136 46.5904C93.0667 30.7235 99.289 21.749 116.233 21.3421C131.669 20.9592 133.727 33.8107 133.727 33.8107C133.249 44.9391 117.453 39.6741 117.094 43.8861C116.759 48.0024 116.353 51.305 116.353 51.305C112.428 48.84 108.311 49.199 108.862 54.4401C109.077 56.5462 110.585 59.8966 112.117 60.1599C112.117 60.1599 113.289 69.0626 104.506 72.5328C104.506 72.5328 85.3845 62.4095 89.2136 46.5904Z" fill="#092B96"/>
<path d="M89.2136 46.5908C93.0667 30.7239 99.289 21.7493 116.233 21.3425C126.476 21.0792 130.831 26.6554 132.602 30.4367C125.064 23.3049 108.599 18.9972 98.2599 35.5821C89.3333 49.9174 94.9573 67.2441 111.494 65.3535C110.633 67.9382 108.718 70.8818 104.482 72.5331C104.506 72.5331 85.3845 62.4099 89.2136 46.5908Z" fill="#09256B"/>
<path d="M116.352 71.1453C114.893 70.2358 113.241 65.593 113.241 65.593C114.964 67.6033 119.871 68.2256 119.871 68.2256L120.588 77.3676L116.975 76.9847C117.047 74.1367 116.975 71.5282 116.352 71.1453Z" fill="#EF7F5E"/>
<path d="M59.8491 185.492C59.8491 185.492 64.5637 98.9539 73.2271 85.552C76.8408 79.9519 79.8802 77.1997 85.3367 76.0988C88.735 75.4048 101.036 75.0219 104.506 75.333C112.045 76.051 130.927 78.5399 135.474 80.4066C141.768 82.9673 166.825 104.769 166.825 104.769L183.65 47.2129L197.53 52.3822C197.53 52.3822 183.985 136.264 173.143 136.479C162.302 136.671 134.565 121.211 134.565 121.211C134.565 121.211 132.483 173.981 142.726 183.625C142.774 183.649 99.4566 203.633 59.8491 185.492Z" fill="#51A9F3"/>
<path d="M73.3228 83.0869C77.128 79.9997 79.7845 78.2766 79.7845 78.2766C79.7845 78.2766 79.7845 78.2766 79.8084 78.3005C77.3913 79.8561 75.4288 82.2015 73.251 85.5759C68.9193 92.2529 65.5688 117.094 63.3192 140.332C61.0217 138.418 58.7961 136.36 56.8097 134.206C57.8388 120.373 61.3329 95.9624 73.3228 83.0869Z" fill="#147AC6"/>
<path d="M119.081 114.773C117.597 111.806 134.613 121.211 134.613 121.211C134.613 121.211 132.531 173.981 142.773 183.626C142.773 183.626 139.758 185.014 134.589 186.737C128.678 169.099 130.018 145.263 128.941 136.982C127.481 125.638 120.565 117.741 119.081 114.773Z" fill="#63B8F7"/>
</svg>
