<svg width="80" height="80" viewBox="0 0 80 80" fill="none" xmlns="http://www.w3.org/2000/svg">
<path d="M33.5349 0.087677C26.1507 0.781441 20.137 2.68526 14.3007 6.13797C13.156 6.83174 12.898 7.12215 12.898 7.75138C12.898 8.50969 13.3011 8.8001 15.4293 9.51C17.1866 10.0908 17.5897 10.2844 18.154 10.8491C18.7989 11.4784 19.1858 12.3496 19.1858 13.1402C19.1858 13.3338 19.0246 13.9953 18.8472 14.5923C18.5732 15.4635 18.5248 15.9798 18.5732 16.964C18.6538 18.2063 18.7021 18.3354 20.524 21.9978L22.3942 25.7732L21.5397 26.0152C18.2829 26.9671 16.977 31.0007 19.1374 33.5176C19.4277 33.8725 20.8142 35.0665 22.2168 36.1797L24.7481 38.2126L25.2963 39.826C25.6026 40.7134 26.2314 42.2461 26.6989 43.2303C27.1826 44.2145 27.5695 45.0535 27.5695 45.0858C27.5695 45.1019 24.7965 45.1503 21.4107 45.1826L15.2358 45.231L14.1556 45.7472C12.6562 46.4572 11.7211 47.3607 10.9956 48.8289L10.399 50.0551L10.3507 53.411L10.2862 56.783L9.33495 57.267C7.04555 58.4125 4.91737 60.1873 3.36961 62.2202C1.80572 64.3015 0.564289 67.254 0.177348 69.9484C0.0806127 70.5777 0 72.9333 0 75.1598V79.2094L0.403063 79.5966L0.790004 80H39.9839H79.1777L79.5808 79.5966L80 79.1772L79.9355 74.466C79.871 69.9968 79.8388 69.6742 79.4357 68.1414C78.1943 63.4303 74.9859 59.4451 70.6651 57.2831L69.6816 56.783L69.6171 53.411L69.5687 50.0551L68.9722 48.8289C68.2467 47.3607 67.3116 46.4572 65.8122 45.7472L64.732 45.231L58.5732 45.1826C55.1713 45.1503 52.3982 45.0858 52.3982 45.0212C52.3982 44.9567 52.5111 44.7308 52.6401 44.5372C53.0109 44.037 54.3813 40.7618 54.8327 39.3904L55.2035 38.2287L57.7509 36.1958C60.7013 33.8241 61.2817 33.211 61.6687 31.9848C62.5071 29.3227 60.9432 26.6444 58.154 25.9345C57.7348 25.8377 57.3962 25.7087 57.3962 25.6603C57.3962 25.5957 58.0895 23.6274 58.944 21.2879C59.7985 18.9323 60.5885 16.4799 60.7175 15.8184C62.1201 8.46129 57.0899 1.31387 49.6574 0.136078C48.7062 -0.00913239 35.002 -0.0575333 33.5349 0.087677ZM49.867 2.81434C51.3019 3.13702 53.3656 4.10507 54.3652 4.94405C58.0089 7.99339 59.2503 12.6078 57.6703 17.1576C56.8319 19.5454 56.6062 20.094 56.6062 19.8036C56.574 19.1905 55.7356 16.6252 55.2197 15.6087C54.4942 14.1405 51.2052 9.23573 50.8666 9.10665C50.2056 8.86464 49.7864 9.07438 47.7872 10.6717C46.6425 11.5752 45.3688 12.5109 44.9657 12.753C43.5953 13.5597 41.9186 14.0114 39.6937 14.1728C37.4526 14.3341 36.711 14.4632 35.2439 14.9795C33.8896 15.4474 33.0834 15.9153 28.2306 19.1582C25.8767 20.7394 23.8452 22.0785 23.7485 22.143C23.6034 22.2237 23.1681 21.5138 22.3136 19.7874C21.1689 17.4641 21.1044 17.2705 21.1689 16.4315C21.2011 15.9475 21.3624 15.044 21.5236 14.4309C21.7815 13.4951 21.7977 13.1563 21.6526 12.3012C21.5558 11.7365 21.2979 10.9298 21.1044 10.5103C20.6046 9.4616 19.3632 8.26768 18.2829 7.76752C17.235 7.28349 17.1221 7.41257 19.6534 6.26704C23.3454 4.60523 27.9403 3.29836 31.6002 2.89501C32.4385 2.79821 33.3575 2.68526 33.6155 2.653C33.8896 2.63686 37.3881 2.58846 41.4027 2.57233C47.5453 2.5562 48.8835 2.6046 49.867 2.81434ZM51.4792 14.4148C53.7364 17.8675 54.1717 19.3034 54.1717 23.3692V25.7893H48.1258H42.0637L41.6767 26.1927C41.3382 26.5154 41.2737 26.7412 41.2737 27.4834V28.3708H39.9839H38.6941V27.4834C38.6941 26.7412 38.6296 26.5154 38.291 26.1927L37.9041 25.7893H31.842H25.796V24.8536V23.9016L30.1975 20.9814C32.5998 19.368 34.9859 17.8675 35.5018 17.6416C36.6788 17.1092 38.3233 16.7542 39.742 16.7542C42.6925 16.7381 45.7396 15.5764 48.3837 13.4629C49.2221 12.8014 49.9315 12.2528 49.9798 12.2528C50.0282 12.2367 50.7054 13.2209 51.4792 14.4148ZM23.2809 29.7745C23.3454 30.565 23.4583 31.7912 23.555 32.5334C23.6518 33.2756 23.7001 33.9048 23.6679 33.9371C23.5389 34.0823 21.185 32.0494 20.9109 31.5654C20.1693 30.2262 21.2173 28.4192 22.7489 28.3869C23.1681 28.3708 23.1681 28.3869 23.2809 29.7745ZM28.3757 30.565C28.3757 33.3078 28.5208 33.8564 29.5848 34.9051C30.6006 35.9377 31.1971 36.1152 33.5671 36.1152C35.921 36.1152 36.6626 35.8732 37.6139 34.8244C38.4039 33.9371 38.6941 33.1626 38.6941 31.8558V30.9523H39.9839H41.2737V31.8558C41.2737 33.2594 41.5639 34.0016 42.4829 34.9051C43.4986 35.9377 44.0951 36.1152 46.4651 36.1152C48.819 36.1152 49.5607 35.8732 50.5119 34.8244C51.4309 33.7919 51.5921 33.1949 51.5921 30.565V28.3708H52.898H54.2039L54.0911 29.8551C53.8654 33.1304 53.1721 36.4056 52.0435 39.5033C51.5437 40.8909 50.2539 43.6659 49.6574 44.6179L49.3349 45.1503H39.9839H30.6328L30.2942 44.6179C29.7461 43.7466 28.4563 40.9554 27.9242 39.5033C26.8279 36.5185 26.1024 33.1465 25.8767 29.8551L25.7638 28.3708H27.0697H28.3757V30.565ZM36.1145 30.5489C36.1145 32.6625 36.0983 32.7593 35.7114 33.1304C35.3406 33.5176 35.2116 33.5337 33.5349 33.5337C31.8581 33.5337 31.7291 33.5176 31.3583 33.1304C30.9714 32.7593 30.9553 32.6625 30.9553 30.5489V28.3708H33.5349H36.1145V30.5489ZM49.0125 30.5489C49.0125 32.6625 48.9964 32.7593 48.6094 33.1304C48.2386 33.5176 48.1096 33.5337 46.4329 33.5337C44.7561 33.5337 44.6272 33.5176 44.2563 33.1304C43.8694 32.7593 43.8533 32.6625 43.8533 30.5489V28.3708H46.4329H49.0125V30.5489ZM58.1701 28.6935C59.2342 29.3388 59.605 30.5328 59.0568 31.5654C58.7827 32.0494 56.445 34.0823 56.2999 33.9371C56.2676 33.9048 56.316 33.2756 56.3966 32.5334C56.4934 31.7912 56.6223 30.565 56.6868 29.7745C56.7836 28.3869 56.7997 28.3708 57.2189 28.3708C57.4446 28.3708 57.8799 28.516 58.1701 28.6935ZM64.3934 47.9254C65.2801 48.1835 66.6183 49.5226 66.8763 50.41C67.0214 50.9102 67.0697 54.379 67.0697 64.2531V77.4185H39.9839H12.898V64.2531C12.898 54.379 12.9464 50.9102 13.0915 50.41C13.3333 49.5872 14.6876 48.1996 15.4776 47.9415C16.3321 47.6672 63.4905 47.6672 64.3934 47.9254ZM10.3184 68.5448V77.4185H6.43289H2.54736L2.62797 73.6754C2.69246 70.4325 2.74083 69.7387 3.04716 68.6254C3.80492 65.8988 5.44942 63.285 7.5131 61.5426C8.38372 60.8004 10.0443 59.6871 10.2862 59.671C10.3023 59.671 10.3184 63.6561 10.3184 68.5448ZM70.9553 60.397C73.1479 61.8168 75.26 64.3338 76.2112 66.6571C77.1302 68.8997 77.2592 69.658 77.3398 73.6593L77.4204 77.4185H73.5349H69.6493V68.5448C69.6493 63.6561 69.6977 59.671 69.7461 59.671C69.7944 59.671 70.3426 59.9937 70.9553 60.397Z" fill="#255FFF"/>
<path d="M60.7039 63.9195C60.4935 63.906 60.2898 63.8642 60.0929 63.7941C59.8987 63.7213 59.7261 63.6228 59.575 63.4987C59.424 63.3747 59.308 63.2263 59.2271 63.0537L60.0606 62.6976C60.0929 62.7516 60.1455 62.8096 60.2184 62.8716C60.2912 62.9309 60.3775 62.9808 60.4773 63.0213C60.5798 63.0618 60.6918 63.082 60.8131 63.082C60.9156 63.082 61.0127 63.0685 61.1044 63.0415C61.1989 63.0119 61.2744 62.9674 61.331 62.908C61.3904 62.8487 61.42 62.7718 61.42 62.6774C61.42 62.5776 61.385 62.5007 61.3148 62.4468C61.2474 62.3901 61.1611 62.3483 61.0559 62.3213C60.9534 62.2917 60.8536 62.2647 60.7565 62.2404C60.5002 62.1892 60.2615 62.1096 60.0403 62.0017C59.8219 61.8938 59.6452 61.7549 59.5103 61.585C59.3781 61.4123 59.312 61.2046 59.312 60.9619C59.312 60.6948 59.3822 60.4642 59.5224 60.27C59.6654 60.0758 59.8502 59.9261 60.0768 59.8209C60.306 59.7157 60.5528 59.6631 60.8172 59.6631C61.1382 59.6631 61.4322 59.7305 61.6992 59.8654C61.969 59.9976 62.182 60.185 62.3385 60.4278L61.5576 60.889C61.5198 60.8243 61.4672 60.765 61.3998 60.711C61.3324 60.6544 61.2555 60.6085 61.1692 60.5734C61.0829 60.5357 60.9925 60.5141 60.8981 60.5087C60.7767 60.5033 60.6661 60.5141 60.5663 60.5411C60.4665 60.5681 60.3856 60.6139 60.3236 60.6786C60.2642 60.7434 60.2345 60.8297 60.2345 60.9376C60.2345 61.0401 60.275 61.117 60.3559 61.1682C60.4368 61.2168 60.534 61.2545 60.6472 61.2815C60.7632 61.3085 60.8738 61.3382 60.979 61.3705C61.2164 61.4487 61.4389 61.5445 61.6466 61.6578C61.857 61.7711 62.0256 61.91 62.1524 62.0745C62.2792 62.2391 62.3398 62.436 62.3344 62.6653C62.3344 62.9269 62.2562 63.1562 62.0998 63.3531C61.9433 63.5473 61.741 63.6956 61.4929 63.7981C61.2474 63.9006 60.9844 63.9411 60.7039 63.9195Z" fill="#255FFF"/>
<path d="M56.5272 63.8468L56.5232 59.8008H57.5104L57.5145 60.1609C57.652 60.0152 57.8166 59.9006 58.0081 59.817C58.1996 59.7307 58.406 59.6875 58.6271 59.6875C58.7755 59.6875 58.9238 59.7091 59.0722 59.7522L58.6838 60.7476C58.5813 60.7071 58.4788 60.6869 58.3763 60.6869C58.2171 60.6869 58.0715 60.726 57.9393 60.8042C57.8098 60.8797 57.706 60.9836 57.6278 61.1158C57.5522 61.2452 57.5145 61.3895 57.5145 61.5487V63.8468H56.5272Z" fill="#255FFF"/>
<path d="M53.8702 63.952C53.4979 63.952 53.1581 63.8563 52.8506 63.6648C52.5458 63.4733 52.3017 63.2157 52.1182 62.892C51.9375 62.5683 51.8472 62.2109 51.8472 61.8198C51.8472 61.5258 51.8998 61.2506 52.0049 60.9944C52.1101 60.7354 52.2545 60.5088 52.4379 60.3146C52.624 60.1177 52.8398 59.964 53.0852 59.8534C53.3307 59.7428 53.5923 59.6875 53.8702 59.6875C54.1858 59.6875 54.4744 59.7549 54.736 59.8898C55.0004 60.022 55.2243 60.204 55.4077 60.436C55.5911 60.668 55.7246 60.9323 55.8082 61.229C55.8919 61.5258 55.9107 61.836 55.8649 62.1596H52.9072C52.945 62.3107 53.007 62.4469 53.0933 62.5683C53.1797 62.687 53.2889 62.7827 53.4211 62.8556C53.5532 62.9257 53.7029 62.9621 53.8702 62.9648C54.0428 62.9675 54.1993 62.927 54.3395 62.8434C54.4825 62.7571 54.6012 62.6411 54.6956 62.4955L55.703 62.7301C55.5385 63.0889 55.293 63.3829 54.9667 63.6122C54.6403 63.8387 54.2748 63.952 53.8702 63.952ZM52.8748 61.4192H54.8655C54.8358 61.2574 54.7724 61.1117 54.6753 60.9822C54.5809 60.8501 54.4636 60.7449 54.3233 60.6666C54.1831 60.5884 54.032 60.5493 53.8702 60.5493C53.7083 60.5493 53.5586 60.5884 53.4211 60.6666C53.2835 60.7422 53.1662 60.846 53.0691 60.9782C52.9747 61.1077 52.9099 61.2547 52.8748 61.4192Z" fill="#255FFF"/>
<path d="M50.1939 57.7778H51.1811V63.8469H50.1939V63.3412C50.0644 63.5219 49.9012 63.6689 49.7043 63.7822C49.5074 63.8955 49.2795 63.9521 49.0205 63.9521C48.7265 63.9521 48.4514 63.8968 48.1951 63.7862C47.9389 63.6756 47.7123 63.5232 47.5154 63.329C47.3212 63.1321 47.1688 62.9055 47.0582 62.6493C46.9476 62.393 46.8923 62.1179 46.8923 61.8239C46.8923 61.5299 46.9476 61.2547 47.0582 60.9985C47.1688 60.7422 47.3212 60.517 47.5154 60.3228C47.7123 60.1259 47.9389 59.9721 48.1951 59.8615C48.4514 59.751 48.7265 59.6957 49.0205 59.6957C49.2795 59.6957 49.5074 59.7523 49.7043 59.8656C49.9012 59.9762 50.0644 60.1232 50.1939 60.3066V57.7778ZM49.0327 63.0013C49.2431 63.0013 49.4292 62.9487 49.591 62.8435C49.7529 62.7383 49.8797 62.5967 49.9714 62.4187C50.0631 62.2379 50.1089 62.0397 50.1089 61.8239C50.1089 61.6054 50.0631 61.4071 49.9714 61.2291C49.8797 61.0484 49.7515 60.9054 49.587 60.8002C49.4251 60.695 49.2404 60.6424 49.0327 60.6424C48.825 60.6424 48.6348 60.6964 48.4622 60.8043C48.2923 60.9095 48.156 61.0511 48.0535 61.2291C47.9537 61.4071 47.9038 61.6054 47.9038 61.8239C47.9038 62.0424 47.9551 62.2406 48.0576 62.4187C48.1601 62.5967 48.2963 62.7383 48.4662 62.8435C48.6389 62.9487 48.8277 63.0013 49.0327 63.0013Z" fill="#255FFF"/>
<path d="M45.4206 59.8008H46.4079V63.8468H45.4206L45.3761 63.3451C45.2655 63.5259 45.1185 63.6729 44.9351 63.7861C44.7544 63.8967 44.5399 63.952 44.2918 63.952C43.9924 63.952 43.7119 63.8954 43.4502 63.7821C43.1886 63.6688 42.9579 63.5124 42.7583 63.3128C42.5614 63.1132 42.4063 62.8825 42.293 62.6209C42.1824 62.3592 42.1272 62.0787 42.1272 61.7793C42.1272 61.4907 42.1798 61.2196 42.2849 60.9661C42.3928 60.7125 42.5425 60.49 42.7341 60.2985C42.9256 60.1069 43.1468 59.9572 43.3976 59.8493C43.6485 59.7414 43.9182 59.6875 44.2068 59.6875C44.4739 59.6875 44.7126 59.7468 44.923 59.8655C45.1361 59.9842 45.3168 60.1353 45.4651 60.3187L45.4206 59.8008ZM44.2675 63.0012C44.4779 63.0012 44.664 62.9486 44.8259 62.8434C44.9877 62.7382 45.1145 62.5966 45.2062 62.4186C45.2979 62.2379 45.3438 62.0396 45.3438 61.8238C45.3438 61.6053 45.2979 61.4071 45.2062 61.229C45.1145 61.0483 44.9864 60.9054 44.8218 60.8002C44.66 60.695 44.4752 60.6424 44.2675 60.6424C44.0598 60.6424 43.8696 60.6963 43.697 60.8042C43.5271 60.9094 43.3909 61.051 43.2884 61.229C43.1886 61.4071 43.1387 61.6053 43.1387 61.8238C43.1387 62.0423 43.1899 62.2406 43.2924 62.4186C43.3949 62.5966 43.5311 62.7382 43.7011 62.8434C43.8737 62.9486 44.0625 63.0012 44.2675 63.0012Z" fill="#255FFF"/>
<path d="M39.7011 63.952C39.3289 63.952 38.989 63.8563 38.6815 63.6648C38.3767 63.4733 38.1326 63.2157 37.9492 62.892C37.7684 62.5683 37.6781 62.2109 37.6781 61.8198C37.6781 61.5258 37.7307 61.2506 37.8359 60.9944C37.9411 60.7354 38.0854 60.5088 38.2688 60.3146C38.4549 60.1177 38.6707 59.964 38.9162 59.8534C39.1616 59.7428 39.4233 59.6875 39.7011 59.6875C40.0167 59.6875 40.3053 59.7549 40.567 59.8898C40.8313 60.022 41.0552 60.204 41.2386 60.436C41.422 60.668 41.5555 60.9323 41.6392 61.229C41.7228 61.5258 41.7417 61.836 41.6958 62.1596H38.7381C38.7759 62.3107 38.838 62.4469 38.9243 62.5683C39.0106 62.687 39.1198 62.7827 39.252 62.8556C39.3842 62.9257 39.5339 62.9621 39.7011 62.9648C39.8737 62.9675 40.0302 62.927 40.1705 62.8434C40.3134 62.7571 40.4321 62.6411 40.5265 62.4955L41.534 62.7301C41.3694 63.0889 41.124 63.3829 40.7976 63.6122C40.4712 63.8387 40.1057 63.952 39.7011 63.952ZM38.7058 61.4192H40.6964C40.6668 61.2574 40.6034 61.1117 40.5063 60.9822C40.4119 60.8501 40.2945 60.7449 40.1543 60.6666C40.014 60.5884 39.863 60.5493 39.7011 60.5493C39.5393 60.5493 39.3896 60.5884 39.252 60.6666C39.1144 60.7422 38.9971 60.846 38.9 60.9782C38.8056 61.1077 38.7408 61.2547 38.7058 61.4192Z" fill="#255FFF"/>
<path d="M34.017 63.8471V58.1826H35.0043V62.8599H37.3631V63.8471H34.017Z" fill="#255FFF"/>
<path d="M31.3095 59.6876C31.7034 59.6876 32.0621 59.7833 32.3858 59.9748C32.7095 60.1664 32.9671 60.4239 33.1586 60.7476C33.3501 61.0686 33.4459 61.4247 33.4459 61.8158C33.4459 62.1098 33.3906 62.3863 33.28 62.6452C33.1694 62.9042 33.0156 63.1321 32.8187 63.329C32.6245 63.5232 32.3979 63.6756 32.139 63.7862C31.8827 63.8968 31.6063 63.9521 31.3095 63.9521C31.056 63.9521 30.8308 63.8955 30.6339 63.7822C30.4396 63.6662 30.2765 63.5165 30.1443 63.3331V63.8469H29.157V57.7778H30.1443V60.3066C30.2765 60.1232 30.4396 59.9748 30.6339 59.8615C30.8308 59.7456 31.056 59.6876 31.3095 59.6876ZM31.2974 62.9972C31.5078 62.9972 31.698 62.9446 31.8679 62.8394C32.0405 62.7315 32.1781 62.5886 32.2806 62.4106C32.3831 62.2325 32.4343 62.0343 32.4343 61.8158C32.4343 61.6 32.3831 61.4031 32.2806 61.2251C32.1781 61.0443 32.0405 60.9014 31.8679 60.7962C31.6953 60.691 31.5051 60.6384 31.2974 60.6384C31.0924 60.6384 30.909 60.6923 30.7471 60.8002C30.5853 60.9054 30.4585 61.0484 30.3668 61.2291C30.2751 61.4071 30.2292 61.6027 30.2292 61.8158C30.2292 62.0343 30.2751 62.2339 30.3668 62.4146C30.4585 62.5926 30.5853 62.7342 30.7471 62.8394C30.909 62.9446 31.0924 62.9972 31.2974 62.9972Z" fill="#255FFF"/>
<path d="M26.5673 63.952C26.195 63.952 25.8551 63.8563 25.5476 63.6648C25.2428 63.4733 24.9987 63.2157 24.8153 62.892C24.6346 62.5683 24.5442 62.2109 24.5442 61.8198C24.5442 61.5258 24.5968 61.2506 24.702 60.9944C24.8072 60.7354 24.9515 60.5088 25.135 60.3146C25.3211 60.1177 25.5369 59.964 25.7823 59.8534C26.0278 59.7428 26.2894 59.6875 26.5673 59.6875C26.8828 59.6875 27.1715 59.7549 27.4331 59.8898C27.6974 60.022 27.9213 60.204 28.1048 60.436C28.2882 60.668 28.4217 60.9323 28.5053 61.229C28.5889 61.5258 28.6078 61.836 28.562 62.1596H25.6043C25.6421 62.3107 25.7041 62.4469 25.7904 62.5683C25.8767 62.687 25.986 62.7827 26.1181 62.8556C26.2503 62.9257 26.4 62.9621 26.5673 62.9648C26.7399 62.9675 26.8963 62.927 27.0366 62.8434C27.1796 62.7571 27.2982 62.6411 27.3926 62.4955L28.4001 62.7301C28.2356 63.0889 27.9901 63.3829 27.6637 63.6122C27.3374 63.8387 26.9719 63.952 26.5673 63.952ZM25.5719 61.4192H27.5626C27.5329 61.2574 27.4695 61.1117 27.3724 60.9822C27.278 60.8501 27.1607 60.7449 27.0204 60.6666C26.8801 60.5884 26.7291 60.5493 26.5673 60.5493C26.4054 60.5493 26.2557 60.5884 26.1181 60.6666C25.9806 60.7422 25.8632 60.846 25.7661 60.9782C25.6717 61.1077 25.607 61.2547 25.5719 61.4192Z" fill="#255FFF"/>
<path d="M19.2263 63.8471L17.7778 58.1826H18.7974L19.7846 62.0547L20.7719 58.1826H21.6741L22.6614 62.0547L23.6445 58.1826H24.6642L23.2238 63.8471H22.103L21.221 60.416L20.3511 63.8471H19.2263Z" fill="#255FFF"/>
</svg>
