<svg width="283" height="271" viewBox="0 0 283 271" fill="none" xmlns="http://www.w3.org/2000/svg">
<path d="M214.31 246.984C214.31 246.984 123.943 191.535 156.893 163.398C181.573 142.335 132.905 115.316 151.441 104.864C169.951 94.4126 173.807 104.013 167.292 77.0731C160.776 50.1598 182.504 42.8463 190.349 15.4277C198.194 -11.9644 236.915 -1.91175 234.07 37.8998C231.251 77.7114 242.899 35.5329 255.717 52.2873C268.536 69.0417 225.985 133.559 242.154 128.054C258.324 122.549 270.796 134.862 265.185 154.303C252.154 199.752 214.31 246.984 214.31 246.984Z" fill="#1D88D8"/>
<path opacity="0.39" d="M217.448 266.929C217.289 266.85 217.182 266.717 217.156 266.53C211.092 235.814 203.752 195.258 200.774 154.196L200.747 153.877L200.508 153.665C191.173 145.686 183.009 136.219 175.137 127.097C172.531 124.092 169.925 121.06 167.292 118.108C167.132 117.948 167.132 117.815 167.238 117.656C167.398 117.443 167.77 117.284 168.063 117.417C168.143 117.443 168.196 117.496 168.249 117.576C170.829 120.475 173.382 123.427 175.935 126.379C183.222 134.809 190.748 143.532 199.231 151.111L200.641 152.361L200.508 150.473C199.364 133.16 198.992 115.449 199.311 96.3539V95.8486L198.859 95.6359C198.753 95.5827 198.699 95.5561 198.673 95.4763C191.413 84.5461 185.19 72.8712 180.137 60.7974C180.057 60.5847 180.084 60.4251 180.216 60.2922C180.403 60.106 180.722 60.0528 180.908 60.1592C181.014 60.2124 181.094 60.2922 181.147 60.4251C185.775 71.5149 191.413 82.2856 197.955 92.418L199.311 94.5455L199.364 92.0191C199.79 73.9882 200.827 55.3456 202.556 35.0542C202.582 34.8149 202.689 34.7617 202.715 34.7351C202.875 34.6553 203.114 34.6553 203.3 34.7617C203.54 34.8681 203.646 35.0542 203.619 35.3202C201.253 63.058 200.162 88.1629 200.269 111.991V113.507L201.492 112.63C215.215 102.737 226.73 90.45 235.665 76.0891C235.772 75.9296 235.878 75.8498 236.091 75.9562C236.277 76.0359 236.437 76.2221 236.49 76.4348C236.543 76.5944 236.517 76.7806 236.41 76.9401C227.129 91.8329 215.108 104.492 200.721 114.571L200.322 114.81V115.262C200.428 128.666 200.907 141.059 201.758 153.186L201.784 153.399L201.917 153.585C202.024 153.744 202.024 153.904 201.944 154.09L201.838 154.276L201.864 154.489C202.635 165.206 203.779 176.429 205.321 188.849L205.587 190.87L206.731 189.168C217.608 173.211 229.469 157.76 241.968 143.24C242.154 143.027 242.367 142.974 242.607 143.107C242.793 143.186 242.926 143.373 242.952 143.532C242.979 143.612 242.979 143.718 242.819 143.878C229.629 159.196 217.236 175.445 205.933 192.2L205.774 192.439L205.8 192.731C208.619 214.459 212.582 237.915 218.246 266.53C218.299 266.796 218.193 266.876 218.14 266.903C217.98 267.009 217.661 267.036 217.448 266.929Z" fill="#092B96"/>
<path d="M203.568 248.785C203.568 248.785 92.2855 246.395 107.257 203.472C118.461 171.305 60.0421 172.579 71.2788 153.327C82.5255 134.05 91.1016 140.69 70.9025 119.757C50.7135 98.7987 66.5541 80.654 59.154 51.6812C51.7294 22.6983 92.1611 11.3079 110.695 48.8863C129.229 86.4647 117.43 42.0444 137.949 50.466C158.453 58.853 154.065 139.895 165.825 126.317C177.576 112.763 195.393 117.321 200.597 137.896C212.822 185.91 203.568 248.785 203.568 248.785Z" fill="#51A9F3"/>
<path opacity="0.39" d="M216.972 265.187C216.794 265.2 216.622 265.13 216.49 264.961C194.699 240.331 166.563 207.473 142.127 171.819L141.927 171.536L141.577 171.479C128.892 169.193 116.49 164.953 104.502 160.825C100.547 159.466 96.5914 158.107 92.6307 156.832C92.3991 156.766 92.3309 156.651 92.3622 156.434C92.3991 156.133 92.6486 155.804 92.9697 155.792C93.0536 155.798 93.1375 155.803 93.2113 155.834C97.0881 157.103 100.969 158.432 104.826 159.751C115.894 163.531 127.341 167.438 139.041 169.81L140.979 170.201L139.866 168.567C129.662 153.475 119.937 137.63 110.126 120.17L109.853 119.714L109.32 119.754C109.201 119.763 109.152 119.743 109.053 119.703C96.6801 113.636 84.8594 106.358 73.8811 98.0749C73.6797 97.935 73.6315 97.7717 73.6875 97.5647C73.7635 97.3085 74.032 97.0735 74.2592 97.0802C74.3778 97.0713 74.4762 97.1115 74.6138 97.1966C84.6691 104.786 95.4963 111.542 106.796 117.285L109.152 118.479L107.856 116.167C98.6855 99.601 89.7588 82.1577 80.56 62.8505C80.4481 62.6324 80.5231 62.5194 80.5432 62.4701C80.6383 62.3079 80.8565 62.196 81.0937 62.1781C81.3555 62.1702 81.5669 62.2855 81.6688 62.5283C94.2299 88.9287 106.534 112.236 119.256 133.817L120.05 135.177L120.693 133.744C127.887 117.493 131.798 100.273 132.307 82.5228C132.303 82.3203 132.354 82.1972 132.615 82.1894C132.828 82.1614 133.074 82.2621 133.216 82.4064C133.358 82.5508 133.417 82.6895 133.42 82.892C132.902 101.299 128.713 119.124 121.012 135.915L120.782 136.338L121.026 136.725C128.236 148.811 135.232 159.805 142.42 170.33L142.542 170.524L142.764 170.614C142.936 170.685 143.043 170.844 143.047 171.046L143.065 171.283L143.187 171.477C149.554 180.776 156.552 190.362 164.531 200.78L165.841 202.494L166.001 200.347C167.407 180.12 169.955 159.842 173.591 140.067C173.652 139.776 173.831 139.619 174.118 139.621C174.33 139.594 174.552 139.684 174.669 139.818C174.733 139.873 174.777 139.977 174.745 140.194C170.894 161.059 168.269 182.369 166.91 203.535L166.897 203.846L167.083 204.094C181.16 222.294 197.17 241.456 217.462 264.41C217.633 264.624 217.583 264.747 217.563 264.796C217.482 264.993 217.209 265.169 216.972 265.187Z" fill="#092B96"/>
</svg>
