<svg width="240" height="246" viewBox="0 0 240 246" fill="none" xmlns="http://www.w3.org/2000/svg">
<path fill-rule="evenodd" clip-rule="evenodd" d="M149.022 21.0603C147.974 13.8729 144.08 -1.87953 130.634 3.60088C104.37 -6.55136 92.6304 6.26623 90.7737 23.3364C88.4378 44.7489 76.3988 53.3438 80.861 59.4831C86.4313 67.1796 103.651 78.41 121.44 78.7993C140.007 79.1587 156.299 64.1549 161.21 56.0092C165.104 49.5105 152.136 42.413 149.022 21.0603Z" fill="#092B96"/>
<path fill-rule="evenodd" clip-rule="evenodd" d="M238.086 127.823C228.682 110.693 191.727 71.8807 187.594 70.4732C176.034 66.5501 157.706 64.7832 146.865 63.8548C139.798 62.6868 119.942 62.8965 119.942 62.8965L112.066 63.0163C101.884 63.0163 73.5836 64.2741 53.5486 71.0722C49.4159 72.4797 11.2028 110.693 1.79922 127.793C-0.416904 131.836 -0.5966 136.717 1.32005 140.91L41.5995 221.619L61.6644 217.336L45.7623 147.708C44.6243 142.347 46.3313 136.747 50.2844 133.094L75.8596 102.996H112.036H163.636L189.511 133.094C193.434 136.747 195.171 142.347 194.033 147.708L178.131 217.336L198.555 220.211L238.475 140.91C240.452 136.777 240.302 131.866 238.086 127.823Z" fill="#51A9F3"/>
<path fill-rule="evenodd" clip-rule="evenodd" d="M59.8377 217.755L68.5525 225.272C69.7204 226.26 69.1215 228.237 67.6241 228.357L63.9406 228.656L66.3663 235.155C68.8819 241.923 54.8065 252.255 48.9967 238.898L43.0671 221.349L59.8377 217.755Z" fill="#FFA683"/>
<path fill-rule="evenodd" clip-rule="evenodd" d="M180.407 217.696L171.392 225.303C170.224 226.291 170.823 228.268 172.321 228.388L176.004 228.687L173.579 235.186C171.063 241.954 185.138 252.286 190.948 238.929L197.177 220.032L180.407 217.696Z" fill="#FFA683"/>
<path fill-rule="evenodd" clip-rule="evenodd" d="M142.852 30.4336L143.182 46.7251C143.302 52.7745 140.936 58.5844 136.623 62.8369C135.905 63.4958 135.216 64.1846 134.497 64.9033C127.04 72.2105 115.181 72.4501 107.424 65.4424L105.238 63.4658C100.746 59.4229 98.1407 53.7329 98.0209 47.6834L97.6915 31.362C97.6915 31.362 120.631 31.1524 129.406 20.2515C129.346 20.2515 133.778 28.6967 142.852 30.4336Z" fill="#FFA683"/>
<path fill-rule="evenodd" clip-rule="evenodd" d="M142.852 30.434L143.182 46.7254C143.302 52.7749 140.936 58.5847 136.623 62.8373C135.905 63.4961 135.216 64.1849 134.497 64.9036C127.04 72.2108 115.181 72.4504 107.424 65.4427L105.238 63.4662C100.746 59.4232 98.1407 53.7332 98.0209 47.6838L97.6915 31.3623C97.6915 31.3623 120.422 31.1527 129.196 20.2817C129.166 20.2817 133.778 28.697 142.852 30.434Z" fill="#FFA683"/>
<path fill-rule="evenodd" clip-rule="evenodd" d="M103.681 50.7682C107.904 43.6706 100.387 36.4532 93.4689 40.9454C92.9298 41.3047 92.4506 41.7839 92.1212 42.323C87.8687 49.4205 95.4155 56.6679 102.333 52.1458C102.872 51.8164 103.322 51.3072 103.681 50.7682Z" fill="#FFA683"/>
<path fill-rule="evenodd" clip-rule="evenodd" d="M148.662 49.8401C152.795 42.9222 145.727 35.8546 138.929 39.7178C138.031 40.2269 137.282 41.0055 136.803 41.904C133.209 48.8219 140.546 55.62 147.315 51.2177C147.854 50.8883 148.333 50.4091 148.662 49.8401Z" fill="#FFA683"/>
<path fill-rule="evenodd" clip-rule="evenodd" d="M133.568 66.5207C133.568 59.3932 127.849 53.6133 120.781 53.6133C113.713 53.6133 107.993 59.3932 107.993 66.5207C107.993 73.6482 113.713 80.9255 120.781 80.9255C127.819 80.9255 133.568 73.6482 133.568 66.5207Z" fill="#FFA683"/>
<path fill-rule="evenodd" clip-rule="evenodd" d="M108.023 65.9222C108.023 66.1318 107.964 66.3115 107.964 66.5212C107.964 67.0303 114.612 73.6786 121.111 73.6786C127.4 73.6487 133.569 67.0003 133.569 66.5212C133.569 66.2816 133.509 66.042 133.509 65.7725C126.202 72.0315 115.42 72.1214 108.023 65.9222Z" fill="#EF7F5E"/>
<path d="M61.7243 217.366L45.8222 147.738C44.6842 142.377 46.3912 136.777 50.3442 133.124L75.9195 103.026C75.9195 103.026 81.5796 93.2934 78.7645 94.5512C75.9195 95.809 38.1855 128.362 34.7116 136.238C32.0762 142.228 46.9901 194.516 54.2374 218.983L61.7243 217.366Z" fill="#1D88D8"/>
<path d="M187.594 70.4738C186.905 70.2342 186.216 70.0246 185.498 69.8149C192.805 78.4099 237.187 131.237 232.276 142.198C227.844 152.081 200.142 202.273 191.637 219.283L198.615 220.272L238.535 140.97C240.451 136.778 240.272 131.866 238.056 127.853C228.682 110.693 191.727 71.8813 187.594 70.4738Z" fill="#1D88D8"/>
</svg>
