<svg width="48" height="48" viewBox="0 0 48 48" fill="none" xmlns="http://www.w3.org/2000/svg">
<g clip-path="url(#clip0_6_356)">
<path d="M17 10H9C8.4 10 8 9.6 8 9C8 8.4 8.4 8 9 8H17C17.6 8 18 8.4 18 9C18 9.6 17.6 10 17 10Z" fill="white"/>
<path d="M13 14H9C8.4 14 8 13.6 8 13C8 12.4 8.4 12 9 12H13C13.6 12 14 12.4 14 13C14 13.6 13.6 14 13 14Z" fill="white"/>
<path d="M17 38H9C8.4 38 8 37.6 8 37C8 36.4 8.4 36 9 36H17C17.6 36 18 36.4 18 37C18 37.6 17.6 38 17 38Z" fill="white"/>
<path d="M31 38H27C26.4 38 26 37.6 26 37C26 36.4 26.4 36 27 36H31C31.6 36 32 36.4 32 37C32 37.6 31.6 38 31 38Z" fill="white"/>
<path d="M27 10H21C20.4 10 20 9.6 20 9C20 8.4 20.4 8 21 8H27C27.6 8 28 8.4 28 9C28 9.6 27.6 10 27 10Z" fill="white"/>
<path d="M41 8H39C38.8 8 38.8 8 38.6 8L36 9V3C36 1.4 34.6 0 33 0H7C5.4 0 4 1.4 4 3V45C4 46.6 5.4 48 7 48H33C34.6 48 36 46.6 36 45V31L38.6 31.8C38.8 31.8 38.8 31.8 39 31.8H41C42.6 31.8 44 30.4 44 28.8V10.8C44 9.4 42.6 8 41 8ZM16 2H24V3C24 3.6 23.6 4 23 4H17C16.4 4 16 3.6 16 3V2ZM7 2H14V3C14 4.6 15.4 6 17 6H23C24.6 6 26 4.6 26 3V2H33C33.6 2 34 2.4 34 3V9.6L20.8 14H17C16.4 14 16 14.4 16 15V16H13C12.4 16 12 16.4 12 17V18H11C9.4 18 8 19.4 8 21V31C8 32.6 9.4 34 11 34H19L20.2 37.4C20.4 37.8 20.8 38 21.2 38H23.2C23.4 38 23.8 37.8 24 37.6C24.2 37.4 24.2 37 24.2 36.8L23.6 34H29C30.6 34 32 32.6 32 31V29.8L34 30.4V40H6V3C6 2.4 6.4 2 7 2ZM13 24H16V25C16 25.2 16 25.2 16 25.4L18.2 32H11C10.4 32 10 31.6 10 31V21C10 20.4 10.4 20 11 20H12V23C12 23.6 12.4 24 13 24ZM14 22V18H16V22H14ZM18 24V16H20V24H18ZM20.2 26L21.8 36L18.4 26H20.2ZM22.2 26.4L30 29V31C30 31.6 29.6 32 29 32H23.2L22.2 26.4ZM33 46H7C6.4 46 6 45.6 6 45V42H34V45C34 45.6 33.6 46 33 46ZM38 29.6L22 24.2V15.8L38 10.4V29.6ZM42 29C42 29.6 41.6 30 41 30H40V10H41C41.6 10 42 10.4 42 11V29Z" fill="white"/>
</g>
<defs>
<clipPath id="clip0_6_356">
<rect width="48" height="48" fill="white"/>
</clipPath>
</defs>
</svg>
