<svg width="48" height="48" viewBox="0 0 48 48" fill="none" xmlns="http://www.w3.org/2000/svg">
<path d="M10.9185 10H4.96295C4.3674 10 3.97036 9.6 3.97036 9C3.97036 8.4 4.3674 8 4.96295 8H10.9185C11.514 8 11.9111 8.4 11.9111 9C11.9111 9.6 11.514 10 10.9185 10Z" fill="white"/>
<path d="M8.93331 38H4.96295C4.3674 38 3.97036 37.6 3.97036 37C3.97036 36.4 4.3674 36 4.96295 36H8.93331C9.52887 36 9.9259 36.4 9.9259 37C9.9259 37.6 9.52887 38 8.93331 38Z" fill="white"/>
<path d="M20.8444 38H12.9037C12.3081 38 11.9111 37.6 11.9111 37C11.9111 36.4 12.3081 36 12.9037 36H20.8444C21.4399 36 21.837 36.4 21.837 37C21.837 37.6 21.4399 38 20.8444 38Z" fill="white"/>
<path d="M20.8444 10H14.8889C14.2933 10 13.8963 9.6 13.8963 9C13.8963 8.4 14.2933 8 14.8889 8H20.8444C21.4399 8 21.837 8.4 21.837 9C21.837 9.6 21.4399 10 20.8444 10Z" fill="white"/>
<path d="M20.8444 14H18.8592C18.2637 14 17.8666 13.6 17.8666 13C17.8666 12.4 18.2637 12 18.8592 12H20.8444C21.4399 12 21.837 12.4 21.837 13C21.837 13.6 21.4399 14 20.8444 14Z" fill="white"/>
<path d="M20.8444 18H18.8592C18.2637 18 17.8666 17.6 17.8666 17C17.8666 16.4 18.2637 16 18.8592 16H20.8444C21.4399 16 21.837 16.4 21.837 17C21.837 17.6 21.4399 18 20.8444 18Z" fill="white"/>
<path d="M20.8444 22H18.8592C18.2637 22 17.8666 21.6 17.8666 21C17.8666 20.4 18.2637 20 18.8592 20H20.8444C21.4399 20 21.837 20.4 21.837 21C21.837 21.6 21.4399 22 20.8444 22Z" fill="white"/>
<path d="M20.8444 26H18.8592C18.2637 26 17.8666 25.6 17.8666 25C17.8666 24.4 18.2637 24 18.8592 24H20.8444C21.4399 24 21.837 24.4 21.837 25C21.837 25.6 21.4399 26 20.8444 26Z" fill="white"/>
<path d="M20.8444 30H18.8592C18.2637 30 17.8666 29.6 17.8666 29C17.8666 28.4 18.2637 28 18.8592 28H20.8444C21.4399 28 21.837 28.4 21.837 29C21.837 29.6 21.4399 30 20.8444 30Z" fill="white"/>
<path d="M20.8444 34H18.8592C18.2637 34 17.8666 33.6 17.8666 33C17.8666 32.4 18.2637 32 18.8592 32H20.8444C21.4399 32 21.837 32.4 21.837 33C21.837 33.6 21.4399 34 20.8444 34Z" fill="white"/>
<path d="M14.8889 14H4.96295C4.3674 14 3.97036 13.6 3.97036 13C3.97036 12.4 4.3674 12 4.96295 12H14.8889C15.4844 12 15.8814 12.4 15.8814 13C15.8814 13.6 15.4844 14 14.8889 14Z" fill="white"/>
<path d="M12.9037 34H6.94813C5.35999 34 3.97036 32.6 3.97036 31V19C3.97036 17.4 5.35999 16 6.94813 16H12.9037C14.4918 16 15.8814 17.4 15.8814 19V31C15.8814 32.6 14.4918 34 12.9037 34ZM6.94813 18C6.35258 18 5.95554 18.4 5.95554 19V31C5.95554 31.6 6.35258 32 6.94813 32H12.9037C13.4992 32 13.8963 31.6 13.8963 31V19C13.8963 18.4 13.4992 18 12.9037 18H6.94813Z" fill="white"/>
<path d="M46.2547 29.2L43.4755 27.6C43.0784 27.4 42.8799 27 43.0784 26.6C43.2769 25.8 43.2769 24.8 43.2769 24C43.2769 23.2 43.2769 22.2 43.0784 21.4C43.0784 21 43.2769 20.6 43.4755 20.4L46.4532 18.8C47.8428 18 48.4384 16.2 47.6443 14.8L44.6666 9.6C44.2695 8.8 43.674 8.4 42.8799 8.2C42.0858 8 41.2918 8 40.6962 8.6L37.3214 10C36.9244 10.2 36.5273 10.2 36.1303 9.8C34.7407 8.8 33.351 7.8 31.7629 7.2C31.3659 7 31.1673 6.6 31.1673 6.2V3C31.1673 1.4 29.7777 0 28.1896 0H2.97777C1.38963 0 0 1.4 0 3V45C0 46.6 1.38963 48 2.97777 48H28.1896C29.7777 48 31.1673 46.6 31.1673 45V41.6C31.1673 41.2 31.3659 40.8 31.7629 40.6C33.351 40 34.7407 39.2 36.1303 38C36.5273 37.8 36.9244 37.6 37.3214 37.8L40.1006 39.4C40.6962 39.8 41.6888 40 42.2843 39.8C42.8799 39.6 43.674 39 44.071 38.4L47.0488 33.2C48.0414 32 47.6443 30.2 46.2547 29.2ZM25.8073 13C31.5644 13.4 36.1303 18.2 36.1303 24C36.1303 29.8 31.5644 34.6 25.8073 35V13ZM11.9111 2H19.8518V3C19.8518 3.6 19.4548 4 18.8592 4H12.9037C12.3081 4 11.9111 3.6 11.9111 3V2ZM2.97777 2H9.9259V3C9.9259 4.6 11.3155 6 12.9037 6H18.8592C20.4474 6 21.837 4.6 21.837 3V2H23.8222V40H1.98518V3C1.98518 2.4 2.38222 2 2.97777 2ZM2.97777 46C2.38222 46 1.98518 45.6 1.98518 45V42H23.8222V46H2.97777ZM45.4606 32.4L42.4829 37.6C42.2843 37.8 42.0858 38 41.8873 38C41.6888 38 41.2918 38 41.0932 37.8L38.1155 36.2C37.1229 35.6 35.7332 35.8 34.7407 36.4C33.5495 37.4 32.1599 38.2 30.7703 38.6C29.5792 39 28.7851 40.2 28.7851 41.4V44.8C28.7851 45.4 28.3881 45.8 27.7925 45.8H25.8073V36.8C32.557 36.4 38.1155 30.8 38.1155 23.8C38.1155 16.8 32.557 11.4 25.8073 11V2H28.1896C28.7851 2 29.1822 2.4 29.1822 3V6.4C29.1822 7.6 29.9762 8.8 31.1673 9.2C32.557 9.8 33.9466 10.6 35.1377 11.4C36.1303 12.2 37.5199 12.4 38.5125 11.6L41.2918 10C41.4903 9.8 41.6888 9.8 41.8873 10C42.0858 10 42.2843 10.2 42.4829 10.4L45.4606 15.6C45.8577 16 45.6592 16.6 45.0636 17L42.0858 18.6C41.0932 19.2 40.4977 20.4 40.6962 21.6C40.8947 22.4 40.8947 23.2 40.8947 24C40.8947 24.8 40.8947 25.6 40.6962 26.4C40.4977 27.6 41.0932 28.8 42.0858 29.4L44.8651 31C45.6592 31.4 45.8577 32 45.4606 32.4Z" fill="white"/>
</svg>
