<svg width="204" height="207" viewBox="0 0 204 207" fill="none" xmlns="http://www.w3.org/2000/svg">
<path d="M160.474 206.033C160.474 206.033 108.957 138.827 0 145.747C0 145.747 57.7428 214.821 160.474 206.033Z" fill="#1D88D8"/>
<path d="M129.005 160.316C129.005 160.316 140.159 76.3697 58.2586 4.16455C58.2586 4.16455 50.2002 93.8384 129.005 160.316Z" fill="#7DC4F9"/>
<path d="M121.036 171.167C121.036 171.167 193.614 131.907 203.665 26.0094C203.665 25.9916 128.347 70.962 121.036 171.167Z" fill="#7DC4F9"/>
<path d="M137.508 165.208C137.508 165.208 77.0615 128.118 99.102 109.297C115.61 95.2083 83.0564 77.1347 95.4552 70.1437C107.836 63.1526 110.416 69.5744 106.057 51.5543C101.699 33.5519 116.233 28.66 121.48 10.3196C126.728 -8.00298 152.629 -1.27877 150.725 25.3512C148.84 51.9812 156.631 23.768 165.206 34.975C173.78 46.182 145.318 89.3379 156.133 85.6556C166.949 81.9733 175.292 90.2096 171.538 103.213C162.822 133.615 137.508 165.208 137.508 165.208Z" fill="#1D88D8"/>
<path opacity="0.39" d="M139.607 178.549C139.501 178.496 139.429 178.407 139.412 178.282C135.356 157.736 130.446 130.608 128.454 103.142L128.436 102.929L128.276 102.786C122.032 97.4497 116.571 91.1168 111.305 85.0152C109.562 83.0051 107.819 80.9771 106.057 79.0026C105.951 78.8958 105.951 78.8069 106.022 78.7001C106.129 78.5578 106.378 78.4511 106.573 78.54C106.627 78.5578 106.662 78.5934 106.698 78.6468C108.423 80.5858 110.131 82.5603 111.839 84.5349C116.713 90.174 121.747 96.0088 127.422 101.079L128.365 101.915L128.276 100.652C127.511 89.0711 127.262 77.2237 127.475 64.4512V64.1132L127.173 63.9709C127.102 63.9353 127.066 63.9176 127.048 63.8642C122.192 56.553 118.029 48.7436 114.65 40.6675C114.596 40.5252 114.614 40.4184 114.703 40.3295C114.827 40.2049 115.041 40.1694 115.165 40.2405C115.237 40.2761 115.29 40.3295 115.326 40.4184C118.421 47.8364 122.192 55.0409 126.568 61.8185L127.475 63.2416L127.511 61.5516C127.796 49.4908 128.489 37.0207 129.646 23.4478C129.663 23.2877 129.735 23.2521 129.752 23.2343C129.859 23.181 130.019 23.181 130.144 23.2521C130.304 23.3233 130.375 23.4478 130.357 23.6257C128.774 42.1795 128.045 58.9722 128.116 74.9111V75.9251L128.934 75.338C138.113 68.7206 145.816 60.5021 151.793 50.8961C151.864 50.7894 151.935 50.736 152.077 50.8071C152.202 50.8605 152.309 50.985 152.344 51.1273C152.38 51.2341 152.362 51.3586 152.291 51.4653C146.083 61.4271 138.042 69.8946 128.418 76.6366L128.151 76.7967V77.0991C128.222 86.0647 128.543 94.3544 129.112 102.466L129.13 102.608L129.219 102.733C129.29 102.84 129.29 102.946 129.236 103.071L129.165 103.195L129.183 103.338C129.699 110.507 130.464 118.014 131.496 126.321L131.674 127.673L132.438 126.535C139.714 115.861 147.648 105.526 156.009 95.8131C156.133 95.6708 156.276 95.6352 156.436 95.7241C156.56 95.7775 156.649 95.902 156.667 96.0088C156.685 96.0621 156.685 96.1333 156.578 96.24C147.755 106.486 139.465 117.355 131.905 128.562L131.798 128.723L131.816 128.918C133.701 143.452 136.352 159.142 140.141 178.282C140.177 178.46 140.105 178.514 140.07 178.531C139.963 178.603 139.75 178.62 139.607 178.549Z" fill="#092B96"/>
<path d="M145.691 167.556C145.691 167.556 76.1899 194.257 74.5889 163.891C73.3792 141.139 37.5346 156.722 39.6159 141.958C41.6972 127.175 48.6882 129.114 30.8815 121.269C13.0748 113.406 18.287 98.1613 6.3684 82.0979C-5.56796 66.0345 16.5792 48.7437 37.5701 67.3153C58.5611 85.8869 40.0072 61.3738 54.8432 61.3916C69.6613 61.3916 87.468 112.677 91.3104 101.292C95.1528 89.925 107.338 88.2351 115.77 99.6555C135.498 126.286 145.691 167.556 145.691 167.556Z" fill="#51A9F3"/>
<path opacity="0.39" d="M158.143 174.316C158.037 174.369 157.912 174.369 157.788 174.298C138.06 164.567 112.319 151.35 88.1618 135.465L87.9661 135.34L87.7349 135.394C79.3029 137.19 70.5508 137.706 62.0833 138.186C59.2904 138.346 56.4976 138.507 53.7225 138.72C53.5624 138.738 53.4912 138.685 53.4557 138.542C53.4023 138.347 53.4735 138.08 53.6691 137.991C53.7225 137.973 53.7759 137.955 53.8292 137.955C56.5509 137.759 59.2904 137.599 62.0121 137.439C69.8215 136.977 77.8976 136.496 85.7425 135.002L87.0411 134.753L85.9382 134.024C75.7985 127.264 65.7656 119.917 55.2701 111.592L54.9855 111.379L54.6653 111.539C54.5942 111.574 54.5586 111.574 54.4874 111.574C45.2906 110.952 36.1293 109.44 27.2348 107.091C27.0747 107.056 27.0036 106.967 26.9858 106.825C26.968 106.647 27.0747 106.433 27.217 106.38C27.2882 106.344 27.3593 106.344 27.4661 106.362C35.6134 108.515 44.0275 109.955 52.4773 110.649L54.2384 110.791L52.8508 109.689C42.978 101.755 33.034 93.2161 22.4496 83.5923C22.3251 83.4855 22.3429 83.3966 22.3429 83.361C22.3607 83.2365 22.4674 83.112 22.6097 83.0408C22.7698 82.9696 22.9299 82.9874 23.0544 83.112C37.5168 96.2757 51.0364 107.589 64.3781 117.729L65.2141 118.37L65.2497 117.32C65.5877 105.437 63.6487 93.7853 59.4683 82.6672C59.4149 82.5427 59.415 82.4538 59.5751 82.3826C59.6996 82.3115 59.8775 82.3115 60.002 82.3648C60.1265 82.4182 60.1977 82.4893 60.251 82.6139C64.5915 94.1411 66.5127 106.238 65.9968 118.583L65.9613 118.903L66.2103 119.081C73.735 124.738 80.8506 129.772 87.9661 134.469L88.0907 134.557H88.2508C88.3753 134.557 88.482 134.629 88.5354 134.753L88.6066 134.895L88.7311 134.984C95.0283 139.129 101.788 143.292 109.366 147.721L110.611 148.451L110.167 147.081C105.915 134.202 102.357 121.002 99.6001 107.839C99.5645 107.643 99.6357 107.501 99.8136 107.429C99.9381 107.358 100.098 107.358 100.205 107.412C100.258 107.429 100.312 107.483 100.347 107.625C103.247 121.518 107.018 135.376 111.536 148.824L111.608 149.02L111.785 149.127C125.109 156.829 139.874 164.638 158.25 173.711C158.41 173.8 158.41 173.889 158.41 173.924C158.41 174.067 158.286 174.245 158.143 174.316Z" fill="#092B96"/>
</svg>
