<svg width="163" height="337" viewBox="0 0 163 337" fill="none" xmlns="http://www.w3.org/2000/svg">
<path d="M152.203 110.82C150.548 119.866 120.84 172.246 102.483 207.275C88.1169 234.706 91.1911 260.749 93.2012 270.799H96.7188C94.6201 258.68 93.7628 260.542 96.8075 241.653C100.148 220.931 132.546 206.536 152.883 166.57C173.25 126.635 153.888 101.775 152.203 110.82Z" fill="#51A9F3"/>
<path d="M83.9194 249.309C84.954 259.241 85.7816 266.099 86.1364 270.799H87.91C88.5012 253.95 89.5357 224.833 88.8558 205.383C87.8508 176.739 95.7138 164.945 100.148 116.644C104.582 68.3427 92.078 0 92.078 0C92.078 0 62.0745 61.337 72.5387 129.621C83.0325 197.904 79.3671 205.501 83.9194 249.309Z" fill="#51A9F3"/>
<path d="M75.465 239.672C75.6719 250.491 77.5046 263.734 78.6279 270.799H80.5198C80.1946 265.803 79.8399 256.61 79.4556 240.293C78.3027 190.839 73.248 191.401 64.6756 158.323C56.1327 125.246 42.3283 111.5 28.0508 94.8579C28.0508 94.8579 13.3003 118.624 34.1401 153.948C54.9799 189.273 63.2272 191.726 68.1341 209.107C73.0115 226.489 75.1398 224.153 75.465 239.672Z" fill="#51A9F3"/>
<path d="M70.5877 270.799H72.6569C73.662 264.03 73.7506 253.92 68.1933 244.491C58.7046 228.41 51.2851 207.186 36.6529 193.175C16.6407 174.02 2.71795 126.162 2.71795 126.162C2.71795 126.162 -7.80545 168.669 12.5614 202.368C32.9282 236.066 49.9548 242.422 59.0297 247.949C68.7254 253.832 70.6468 263.705 70.5877 270.799Z" fill="#51A9F3"/>
<path d="M86.284 270.799H86.6093L88.1759 264.237C88.7671 247.092 89.5061 222.498 88.8853 205.383C87.8803 176.739 95.7433 164.945 100.177 116.644C104.611 68.3427 92.1074 0 92.1074 0C92.1074 0 80.6972 95.2423 83.8306 138.932C86.7866 179.37 86.3432 259.093 86.284 270.799Z" fill="#1D88D8"/>
<path d="M153.356 109.047C153.651 121.905 152.617 165.595 126.899 188.859C97.0734 215.788 87.5846 245.525 96.4526 270.799H96.7187C94.6199 258.68 93.7626 260.542 96.8073 241.653C100.148 220.931 132.545 206.536 152.883 166.571C170.973 131.069 157.701 107.48 153.356 109.047Z" fill="#1D88D8"/>
<path d="M79.5148 270.799H80.5198C80.1947 265.803 79.8399 256.61 79.4556 240.293C78.3028 190.839 73.248 191.401 64.6756 158.323C56.1328 125.246 42.3283 111.5 28.0508 94.8579C28.0508 94.8579 27.4596 127.729 48.7723 159.328C70.0851 190.928 75.9971 214.221 76.5883 222.971C77.0613 230.184 78.894 260.424 79.5148 270.799Z" fill="#1D88D8"/>
<path d="M71.031 270.799H72.6569C73.6619 264.03 73.7506 253.92 68.1933 244.491C58.7045 228.41 51.285 207.186 36.6528 193.175C16.6407 174.02 2.7179 126.162 2.7179 126.162C2.7179 126.162 3.36821 180.345 19.1532 196.131C34.9383 211.945 34.554 207.363 46.7919 222.971C59.0297 238.579 62.7839 242.924 67.5135 252.501C70.5286 258.62 71.031 266.158 71.031 270.799Z" fill="#1D88D8"/>
<path d="M109.903 262.079H54.5663C48.9203 262.079 44.6636 267.223 45.7278 272.75L56.5763 329.476C57.3744 333.703 61.099 336.777 65.4147 336.777H99.054C103.37 336.777 107.065 333.703 107.892 329.476L118.741 272.75C119.776 267.223 115.519 262.079 109.903 262.079Z" fill="#D8E8EF"/>
<path d="M118.623 268.907C117.677 265.035 114.189 262.079 109.903 262.079H54.5663C50.2801 262.079 46.792 265.065 45.8461 268.907H118.623Z" fill="#ABD0DD"/>
<path d="M109.903 262.079H97.6352C103.281 262.079 107.538 267.223 106.474 272.75L95.6252 329.476C94.827 333.703 91.1025 336.777 86.7867 336.777H99.0541C103.37 336.777 107.065 333.703 107.893 329.476L118.741 272.75C119.776 267.223 115.519 262.079 109.903 262.079Z" fill="#ABD0DD"/>
</svg>
