<svg width="232" height="356" viewBox="0 0 232 356" fill="none" xmlns="http://www.w3.org/2000/svg">
<path d="M292.996 294.15C292.996 294.15 163.674 289.077 181.953 239.445C195.651 202.283 127.702 202.578 141.196 180.382C154.661 158.202 164.5 166.12 141.476 141.329C118.467 116.566 137.233 95.8051 129.212 61.9287C121.208 28.0806 168.436 15.661 189.18 59.7462C209.952 103.815 197.166 51.9539 220.819 62.1372C244.471 72.3205 237.695 166.419 251.622 150.903C265.55 135.386 286.182 141.048 291.816 165.096C305.083 221.266 292.996 294.15 292.996 294.15Z" fill="#1D88D8"/>
<path opacity="0.39" d="M308.248 313.511C308.03 313.521 307.837 313.443 307.698 313.261C282.9 284.179 250.868 245.383 223.177 203.445L222.958 203.122L222.576 203.038C207.874 200.118 193.528 194.913 179.7 189.902C175.13 188.259 170.545 186.588 165.979 185.017C165.714 184.943 165.635 184.801 165.653 184.568C165.696 184.246 165.997 183.854 166.388 183.82C166.488 183.801 166.577 183.826 166.681 183.879C171.159 185.425 175.639 187.043 180.12 188.662C192.912 193.286 206.134 198.079 219.692 201.082L221.939 201.571L220.67 199.64C209.114 181.891 198.141 163.256 187.079 142.736L186.777 142.198L186.169 142.242C186.024 142.248 185.951 142.252 185.875 142.183C171.619 134.881 158.022 126.167 145.432 116.33C145.22 116.151 145.153 115.966 145.215 115.745C145.302 115.435 145.61 115.188 145.872 115.19C146.017 115.183 146.15 115.221 146.286 115.33C157.835 124.374 170.269 132.475 183.285 139.356L185.999 140.811L184.547 138.089C174.233 118.638 164.205 98.1708 153.928 75.5351C153.814 75.2643 153.895 75.1442 153.908 75.1C154.03 74.9198 154.285 74.7769 154.546 74.7789C154.865 74.7493 155.089 74.8839 155.22 75.1829C169.263 106.128 183.094 133.507 197.436 158.813L198.341 160.427L199.12 158.762C207.822 140.035 212.745 120.077 213.683 99.452C213.701 99.2186 213.767 99.0701 214.057 99.0564C214.302 99.0301 214.584 99.133 214.767 99.3278C214.919 99.4659 215.002 99.68 214.984 99.9134C213.996 121.312 208.757 141.967 199.458 161.289L199.176 161.782L199.446 162.264C207.563 176.47 215.473 189.379 223.621 201.782L223.776 201.993L224.029 202.111C224.237 202.218 224.333 202.388 224.359 202.633L224.357 202.895L224.512 203.106C231.733 214.056 239.652 225.321 248.711 237.623L250.201 239.616L250.402 237.121C252.454 213.637 255.855 190.104 260.492 167.181C260.563 166.843 260.758 166.66 261.092 166.658C261.338 166.632 261.591 166.751 261.714 166.905C261.79 166.974 261.854 167.087 261.779 167.352C256.883 191.538 253.392 216.238 251.363 240.825L251.336 241.175L251.539 241.471C267.515 262.92 285.74 285.527 308.859 312.61C309.074 312.861 309.009 313.01 308.968 313.07C308.861 313.278 308.538 313.497 308.248 313.511Z" fill="#092B96"/>
<path d="M282.635 302.483C282.635 302.483 162.729 366.39 153.037 311.751C145.757 270.814 84.3223 307.055 84.7892 279.848C85.2521 252.609 98.3477 254.557 64.3421 244.332C30.3325 234.074 36.3624 205.297 11.1828 178.869C-14.029 152.446 22.2155 116.175 64.3876 145.116C106.56 174.057 67.4726 133.81 94.3469 130.524C121.185 127.209 164.908 216.112 169.32 194.633C173.737 173.186 195.428 167.399 213.255 186.198C254.942 230.016 282.635 302.483 282.635 302.483Z" fill="#51A9F3"/>
<path opacity="0.39" d="M306.7 311.941C306.519 312.061 306.293 312.089 306.052 311.988C268.145 298.777 218.568 280.597 171.262 257.229L170.879 257.048L170.472 257.196C155.603 262.336 139.866 265.228 124.638 267.992C119.615 268.907 114.593 269.821 109.615 270.829C109.329 270.897 109.188 270.816 109.091 270.566C108.951 270.224 109.02 269.725 109.355 269.52C109.447 269.476 109.54 269.432 109.637 269.42C114.522 268.456 119.448 267.554 124.342 266.655C138.382 264.07 152.902 261.394 166.776 256.933L169.073 256.191L166.912 255.117C147.035 245.142 127.221 234.08 106.349 221.349L105.786 221.026L105.242 221.388C105.121 221.468 105.057 221.476 104.928 221.492C88.1315 222.422 71.2007 221.732 54.5661 219.469C54.2682 219.44 54.1194 219.295 54.0554 219.042C53.9834 218.723 54.1289 218.313 54.3747 218.184C54.4956 218.104 54.6245 218.088 54.8218 218.096C70.0594 220.172 85.6211 220.9 101.08 220.266L104.302 220.13L101.542 218.443C81.8858 206.282 61.9657 193.041 40.6429 177.979C40.3935 177.813 40.4058 177.648 40.3978 177.584C40.4022 177.354 40.5677 177.105 40.8095 176.944C41.0835 176.779 41.3775 176.776 41.6309 176.973C70.7692 197.58 97.786 215.047 124.218 230.427L125.876 231.4L125.705 229.491C123.659 207.894 117.541 187.224 107.483 168.023C107.358 167.809 107.339 167.648 107.613 167.483C107.822 167.327 108.144 167.287 108.382 167.356C108.619 167.424 108.764 167.537 108.889 167.751C119.328 187.658 125.514 209.137 127.341 231.612L127.348 232.2L127.839 232.466C142.733 241.029 156.746 248.555 170.684 255.469L170.93 255.602L171.22 255.566C171.445 255.538 171.654 255.643 171.779 255.857L171.94 256.099L172.185 256.232C184.518 262.33 197.692 268.357 212.408 274.685L214.826 275.727L213.714 273.346C203.133 250.971 193.737 227.86 185.799 204.635C185.69 204.289 185.787 204.015 186.094 203.846C186.303 203.69 186.593 203.654 186.799 203.727C186.899 203.747 187.008 203.832 187.104 204.081C195.463 228.596 205.393 252.85 216.585 276.197L216.758 276.535L217.104 276.689C242.959 287.659 271.447 298.5 306.758 310.822C307.068 310.947 307.088 311.108 307.096 311.172C307.128 311.43 306.942 311.78 306.7 311.941Z" fill="#092B96"/>
</svg>
