<svg width="48" height="48" viewBox="0 0 48 48" fill="none" xmlns="http://www.w3.org/2000/svg">
<g clip-path="url(#clip0_6_369)">
<path d="M45 46H3C1.4 46 0 44.6 0 43V39C0 38.4 0.4 38 1 38H17C17.6 38 18 38.4 18 39V40H30V39C30 38.4 30.4 38 31 38H47C47.6 38 48 38.4 48 39V43C48 44.6 46.6 46 45 46ZM2 40V43C2 43.6 2.4 44 3 44H45C45.6 44 46 43.6 46 43V40H32V41C32 41.6 31.6 42 31 42H17C16.4 42 16 41.6 16 41V40H2Z" fill="white"/>
<path d="M22 14C19.8 14 18 12.2 18 10C18 7.8 19.8 6 22 6C24.2 6 26 7.8 26 10C26 12.2 24.2 14 22 14ZM22 8C20.8 8 20 8.8 20 10C20 11.2 20.8 12 22 12C23.2 12 24 11.2 24 10C24 8.8 23.2 8 22 8Z" fill="white"/>
<path d="M36 22C33.8 22 32 20.2 32 18C32 15.8 33.8 14 36 14C38.2 14 40 15.8 40 18C40 20.2 38.2 22 36 22ZM36 16C34.8 16 34 16.8 34 18C34 19.2 34.8 20 36 20C37.2 20 38 19.2 38 18C38 16.8 37.2 16 36 16Z" fill="white"/>
<path d="M45 6H30V5C30 3.4 28.6 2 27 2H7C5.4 2 4 3.4 4 5V6H3C1.4 6 0 7.4 0 9V35C0 35.6 0.4 36 1 36H47C47.6 36 48 35.6 48 35V9C48 7.4 46.6 6 45 6ZM30 18C30 17.4 29.8 17 29.6 16.4C29.8 16 30 15.6 30 15V12H41C41.6 12 42 12.4 42 13V28.6L38.2 24.8C37.6 24.2 36.8 24 36 24H20.8C20.2 24 19.8 23.6 19.8 23V18H21.8C21.8 20.2 23.6 22 25.8 22C28.2 22 30 20.2 30 18ZM24 18H27C27.4 18 27.6 18 28 17.8V18C28 19.2 27.2 20 26 20C24.8 20 24 19.2 24 18ZM6 5C6 4.4 6.4 4 7 4H27C27.6 4 28 4.4 28 5V15C28 15.6 27.6 16 27 16H11.8C11 16 10.2 16.4 9.8 16.8L6 20.6V5ZM46 34H2V9C2 8.4 2.4 8 3 8H4V23C4 23.4 4.2 23.8 4.6 24C4.8 24 4.8 24 5 24C5.2 24 5.6 23.8 5.8 23.8L11.2 18.4C11.4 18.2 11.6 18 11.8 18H18V23C18 24.6 19.4 26 21 26H36.2C36.4 26 36.8 26.2 37 26.2L42.4 31.6C42.6 31.8 42.8 31.8 43.2 31.8C43.4 31.8 43.4 31.8 43.6 31.8C44 31.6 44.2 31.2 44.2 30.8V12.8C44 11.4 42.6 10 41 10H30V8H45C45.6 8 46 8.4 46 9V34Z" fill="white"/>
<path d="M12 14C9.8 14 8 12.2 8 10C8 7.8 9.8 6 12 6C14.2 6 16 7.8 16 10C16 12.2 14.2 14 12 14ZM12 8C10.8 8 10 8.8 10 10C10 11.2 10.8 12 12 12C13.2 12 14 11.2 14 10C14 8.8 13.2 8 12 8Z" fill="white"/>
<path d="M15 24H11C10.4 24 10 23.6 10 23C10 22.4 10.4 22 11 22H15C15.6 22 16 22.4 16 23C16 23.6 15.6 24 15 24Z" fill="white"/>
<path d="M17 28H5C4.4 28 4 27.6 4 27C4 26.4 4.4 26 5 26H17C17.6 26 18 26.4 18 27C18 27.6 17.6 28 17 28Z" fill="white"/>
<path d="M11 32H5C4.4 32 4 31.6 4 31C4 30.4 4.4 30 5 30H11C11.6 30 12 30.4 12 31C12 31.6 11.6 32 11 32Z" fill="white"/>
<path d="M21 32H15C14.4 32 14 31.6 14 31C14 30.4 14.4 30 15 30H21C21.6 30 22 30.4 22 31C22 31.6 21.6 32 21 32Z" fill="white"/>
<path d="M37 32H25C24.4 32 24 31.6 24 31C24 30.4 24.4 30 25 30H37C37.6 30 38 30.4 38 31C38 31.6 37.6 32 37 32Z" fill="white"/>
</g>
<defs>
<clipPath id="clip0_6_369">
<rect width="48" height="48" fill="white"/>
</clipPath>
</defs>
</svg>
