<svg width="48" height="48" viewBox="0 0 48 48" fill="none" xmlns="http://www.w3.org/2000/svg">
<g clip-path="url(#clip0_6_345)">
<path d="M45 4H3C1.4 4 0 5.4 0 7V33C0 34.6 1.4 36 3 36H18V42H15C14.4 42 14 42.4 14 43C14 43.6 14.4 44 15 44H33C33.6 44 34 43.6 34 43C34 42.4 33.6 42 33 42H30V36H45C46.6 36 48 34.6 48 33V7C48 5.4 46.6 4 45 4ZM28 42H20V36H28V42ZM46 33C46 33.6 45.6 34 45 34H3C2.4 34 2 33.6 2 33V30H46V33ZM24 24C21.8 24 20 25.8 20 28H10C10.6 20.8 16.6 15 24 15C26.4 15 28.4 15.6 30.4 16.6L25 24.2C24.8 24 24.4 24 24 24ZM22 28C22 26.8 22.8 26 24 26C25.2 26 26 26.8 26 28H22ZM26.8 25.2L32 17.6C35.4 20 37.6 23.8 37.8 28H27.8C28 26.8 27.6 25.8 26.8 25.2ZM40 28C39.4 19.6 32.6 13 24 13C15.4 13 8.6 19.6 8 28H6C6.6 18.6 14.4 11 24 11C33.6 11 41.4 18.6 42 28H40ZM46 28H44C43.4 17.4 34.8 9 24 9C13.4 9 4.6 17.4 4 28H2V7C2 6.4 2.4 6 3 6H45C45.6 6 46 6.4 46 7V28Z" fill="white"/>
<path d="M11 10H5C4.4 10 4 9.6 4 9C4 8.4 4.4 8 5 8H11C11.6 8 12 8.4 12 9C12 9.6 11.6 10 11 10Z" fill="white"/>
<path d="M7 14H5C4.4 14 4 13.6 4 13C4 12.4 4.4 12 5 12H7C7.6 12 8 12.4 8 13C8 13.6 7.6 14 7 14Z" fill="white"/>
<path d="M43 10H37C36.4 10 36 9.6 36 9C36 8.4 36.4 8 37 8H43C43.6 8 44 8.4 44 9C44 9.6 43.6 10 43 10Z" fill="white"/>
<path d="M43 14H41C40.4 14 40 13.6 40 13C40 12.4 40.4 12 41 12H43C43.6 12 44 12.4 44 13C44 13.6 43.6 14 43 14Z" fill="white"/>
</g>
<defs>
<clipPath id="clip0_6_345">
<rect width="48" height="48" fill="white"/>
</clipPath>
</defs>
</svg>
