<svg width="1260" height="512" viewBox="0 0 1260 512" fill="none" xmlns="http://www.w3.org/2000/svg">
<path d="M695.929 420.825H1139.53C1183 420.825 1220.68 389.234 1226.59 346.187C1226.74 345.174 1226.85 344.162 1226.96 343.134C1228.89 324.43 1225.08 305.935 1209.88 291.698C1161.27 246.128 1229.13 187.381 1218.99 146.872C1208.87 106.364 1173.42 129.663 1107.59 65.8547C1041.76 2.04648 1052.02 -33.4811 937.617 44.7567C845.785 107.553 735.731 37.6705 681.05 65.0192C626.352 92.3678 681.211 173.225 614.381 260.316C572.218 315.271 603.808 364.971 632.876 394.184C642.453 403.809 653.926 411.104 666.411 415.748C675.812 419.234 685.854 420.825 695.929 420.825Z" fill="#CCF2FF"/>
<path opacity="0.48" d="M1218.98 146.872C1208.85 106.364 1173.41 129.663 1107.57 65.8547C1062.76 22.4214 1053.2 -7.89995 1015.57 1.8376C1045.61 12.3464 1054.16 21.859 1062.5 41.3823C1110.43 153.461 1011.19 266.214 1078.7 316.862C1115.88 344.741 1038.61 385.539 968.195 420.841H1139.52C1182.98 420.841 1220.66 389.251 1226.58 346.203C1226.72 345.191 1226.83 344.178 1226.95 343.15C1228.88 324.446 1225.07 305.951 1209.87 291.714C1161.26 246.128 1229.12 187.381 1218.98 146.872Z" fill="#ADE4F2"/>
<path d="M835.196 52.791L751.896 34.7942L782.86 95.1156L803.283 78.9667L811.382 92.9785L814.001 67.7187L835.196 52.791Z" fill="#51A9F3"/>
<path d="M811.671 66.4975L814.001 67.7187L811.382 92.9785L803.283 78.9667L751.896 34.7942L811.671 66.4975Z" fill="#092B96"/>
<path d="M794.156 86.1815L811.382 92.9785L803.283 78.9667L794.156 86.1815Z" fill="#1574BC"/>
<path d="M817.054 95.8708C816.299 95.1477 815.592 94.3764 814.917 93.6051L815.495 93.0909C816.154 93.8462 816.861 94.6014 817.6 95.3245L817.054 95.8708Z" fill="#092B96"/>
<path d="M1036.02 222.989C1033.98 222.861 1031.92 222.684 1029.88 222.459L1029.96 221.688C1031.99 221.913 1034.04 222.089 1036.07 222.218L1036.02 222.989ZM1023.78 221.639C1021.77 221.318 1019.73 220.932 1017.72 220.515L1017.88 219.759C1019.87 220.177 1021.9 220.563 1023.9 220.884L1023.78 221.639ZM1011.72 219.085C1009.73 218.57 1007.74 217.992 1005.8 217.381L1006.02 216.642C1007.95 217.253 1009.92 217.815 1011.9 218.329L1011.72 219.085ZM999.962 215.405C998.05 214.698 996.122 213.943 994.226 213.155L994.531 212.448C996.411 213.236 998.323 213.991 1000.24 214.682L999.962 215.405ZM988.602 210.649C986.738 209.765 984.89 208.833 983.09 207.885L983.46 207.194C985.244 208.142 987.092 209.074 988.939 209.941L988.602 210.649ZM977.724 204.88C975.956 203.835 974.205 202.743 972.501 201.618L972.919 200.975C974.622 202.084 976.358 203.177 978.125 204.205L977.724 204.88ZM967.408 198.131C965.753 196.942 964.097 195.689 962.507 194.403L962.989 193.793C964.579 195.062 966.219 196.299 967.874 197.488L967.408 198.131ZM957.783 190.45C956.24 189.101 954.713 187.703 953.235 186.289L953.781 185.726C955.244 187.14 956.754 188.522 958.297 189.872L957.783 190.45ZM948.897 181.918C947.499 180.44 946.101 178.897 944.783 177.338L945.378 176.84C946.695 178.383 948.077 179.925 949.475 181.388L948.897 181.918ZM940.894 172.55C939.641 170.927 938.404 169.256 937.247 167.585L937.89 167.135C939.047 168.79 940.268 170.445 941.521 172.068L940.894 172.55ZM933.856 162.443C933.599 162.025 933.342 161.607 933.085 161.189C932.25 159.824 931.462 158.458 930.739 157.124L931.414 156.755C932.137 158.072 932.924 159.422 933.744 160.788C934.001 161.206 934.258 161.623 934.515 162.041L933.856 162.443ZM927.927 151.629C927.027 149.733 926.208 147.82 925.485 145.956L926.208 145.683C926.915 147.531 927.734 149.427 928.618 151.307L927.927 151.629ZM923.492 140.108C922.914 138.099 922.416 136.074 922.046 134.098L922.801 133.953C923.171 135.914 923.653 137.906 924.231 139.883L923.492 140.108ZM927.943 128.876L927.911 128.104C930.112 128.024 932.121 127.751 933.905 127.285L934.097 128.04C932.266 128.506 930.193 128.795 927.943 128.876ZM921.757 128.683C919.652 128.49 917.595 128.169 915.635 127.719L915.811 126.963C917.547 127.365 919.363 127.654 921.227 127.847C921.162 126.98 921.146 126.112 921.146 125.26C921.146 124.055 921.21 122.882 921.323 121.757L922.094 121.838C921.982 122.93 921.917 124.087 921.917 125.26C921.917 126.128 921.95 127.012 922.014 127.912L921.821 127.928L921.757 128.683ZM909.721 125.887C907.745 125.083 905.897 124.119 904.21 123.027L904.628 122.384C906.267 123.461 908.082 124.392 909.995 125.18L909.721 125.887ZM939.818 125.517L939.384 124.875C939.529 124.778 939.689 124.666 939.834 124.553C941.264 123.509 942.469 122.111 943.353 120.504L944.028 120.873C943.096 122.577 941.794 124.071 940.284 125.18C940.139 125.308 939.979 125.421 939.818 125.517ZM899.405 119.074C898.007 117.66 896.69 116.053 895.469 114.285L896.111 113.852C897.3 115.587 898.602 117.162 899.952 118.544L899.405 119.074ZM923.46 115.989L922.737 115.715C923.524 113.659 924.601 111.859 925.967 110.365L926.545 110.879C925.244 112.309 924.199 114.028 923.46 115.989ZM944.783 114.832C944.735 113.53 944.397 112.309 943.803 111.216C943.465 110.606 943.048 110.043 942.566 109.561L943.112 109.015C943.642 109.561 944.092 110.172 944.462 110.847C945.12 112.052 945.49 113.386 945.538 114.8L944.783 114.832ZM856.984 109.593V108.822C858.929 108.806 860.986 108.742 863.107 108.613L863.155 109.384C861.018 109.513 858.945 109.593 856.984 109.593ZM850.814 109.417C848.709 109.272 846.652 109.047 844.676 108.742L844.788 107.97C846.733 108.276 848.789 108.485 850.862 108.629L850.814 109.417ZM892.335 108.951C891.451 107.215 890.632 105.367 889.812 103.311L890.536 103.021C891.339 105.062 892.158 106.878 893.026 108.597L892.335 108.951ZM869.277 108.854L869.197 108.083C870.739 107.922 872.33 107.713 874.049 107.488L875.287 107.312L875.399 108.083L874.162 108.26C872.426 108.485 870.836 108.677 869.277 108.854ZM931.462 107.665L931.205 106.926C933.214 106.235 935.415 106.01 937.44 106.299L937.327 107.071C935.431 106.797 933.342 107.006 931.462 107.665ZM838.618 107.504C836.61 106.99 834.617 106.347 832.721 105.64L832.994 104.917C834.858 105.624 836.818 106.251 838.811 106.765L838.618 107.504ZM881.473 107.038L881.312 106.283C883.465 105.849 885.41 105.367 887.242 104.805L887.466 105.544C885.619 106.106 883.658 106.605 881.473 107.038ZM893.251 103.359L892.93 102.652C894.826 101.768 896.593 100.756 898.184 99.6308L898.634 100.258C897.011 101.414 895.195 102.459 893.251 103.359ZM827.081 103.086C825.217 102.105 823.449 101.013 821.81 99.8397L822.26 99.2131C823.867 100.37 825.619 101.447 827.45 102.411L827.081 103.086ZM887.74 97.4937C887.049 95.3084 886.551 93.348 886.213 91.5001L886.968 91.3555C887.29 93.1713 887.788 95.0995 888.463 97.2527L887.74 97.4937ZM903.246 96.0797L902.651 95.5816C903.969 94.039 905.094 92.3518 905.977 90.5521L906.668 90.8895C905.769 92.7374 904.612 94.4889 903.246 96.0797ZM886.518 85.3298L885.747 85.2977C885.779 84.3657 885.876 83.4337 886.004 82.55C886.181 81.4091 886.486 80.2682 886.888 79.1595L887.611 79.4166C887.225 80.4771 886.936 81.5698 886.776 82.6624C886.631 83.5301 886.551 84.43 886.518 85.3298ZM908.645 84.9602L907.89 84.8317C908.082 83.7712 908.179 82.6946 908.179 81.6662C908.179 80.7181 908.099 79.7701 907.938 78.8542L908.693 78.7256C908.87 79.6737 908.95 80.6699 908.95 81.6662C908.934 82.7428 908.838 83.8515 908.645 84.9602ZM890.584 74.2425L889.989 73.7444C891.435 72.0411 893.123 70.7717 895.003 69.9843L895.308 70.6914C893.54 71.4466 891.966 72.6357 890.584 74.2425ZM905.736 73.3427C904.901 72.1215 903.905 71.2056 902.812 70.6432C902.282 70.37 901.703 70.1611 901.093 70.0326L901.253 69.2773C901.928 69.4219 902.571 69.6469 903.165 69.9522C904.387 70.5789 905.463 71.5751 906.379 72.9088L905.736 73.3427Z" fill="#092B96"/>
<path d="M1043.36 223.214C1043.03 223.214 1042.7 223.214 1042.37 223.214V222.443C1043.4 222.459 1044.42 222.443 1045.47 222.427L1045.48 223.198C1044.78 223.214 1044.07 223.214 1043.36 223.214Z" fill="#092B96"/>
<path d="M385.289 367.692L468.589 349.745L437.625 409.898L417.201 393.794L409.103 407.767L406.484 382.578L385.289 367.692Z" fill="#51A9F3"/>
<path d="M408.814 381.36L406.484 382.578L409.103 407.767L417.201 393.794L468.589 349.745L408.814 381.36Z" fill="#092B96"/>
<path d="M426.328 400.989L409.103 407.767L417.202 393.794L426.328 400.989Z" fill="#1574BC"/>
<path d="M402.273 410.495C403.3 410.211 404.324 409.86 405.323 409.493L405.233 408.75C404.256 409.11 403.243 409.447 402.227 409.739L402.273 410.495Z" fill="#092B96"/>
<path d="M149.911 405.71C151.532 406.604 153.197 407.461 154.882 408.266L155.336 407.517C153.663 406.72 151.997 405.863 150.388 404.977L149.911 405.71ZM160.023 410.539C161.748 411.24 163.54 411.897 165.33 412.508L165.713 411.734C163.935 411.131 162.155 410.482 160.429 409.781L160.023 410.539ZM170.793 414.165C172.635 414.68 174.519 415.136 176.389 415.538L176.713 414.747C174.855 414.352 172.993 413.89 171.163 413.383L170.793 414.165ZM182.095 416.612C184.005 416.91 185.959 417.171 187.91 417.387L188.152 416.586C186.213 416.378 184.271 416.124 182.371 415.812L182.095 416.612ZM193.812 417.871C195.804 417.982 197.815 418.041 199.801 418.061L199.984 417.243C198.01 417.23 195.998 417.171 194.03 417.053L193.812 417.871ZM205.842 417.959C207.868 417.875 209.914 417.738 211.945 417.548L212.059 416.75C210.039 416.925 208.005 417.07 205.99 417.139L205.842 417.959ZM218.102 416.867C220.139 416.594 222.22 416.262 224.274 415.869L224.318 415.068C222.275 415.447 220.217 415.772 218.179 416.045L218.102 416.867ZM230.462 414.576C232.523 414.1 234.603 413.571 236.658 413.004L236.621 412.215C234.579 412.791 232.521 413.313 230.461 413.789L230.462 414.576ZM242.835 411.135C244.872 410.469 246.952 409.743 248.982 408.963L248.867 408.211C246.847 408.976 244.779 409.709 242.753 410.361L242.835 411.135ZM255.099 406.488C257.124 405.617 259.169 404.694 261.153 403.73L260.969 402.998C258.996 403.946 256.974 404.863 254.949 405.734L255.099 406.488ZM267.131 400.683C267.603 400.426 268.074 400.169 268.546 399.913C270.085 399.071 271.588 398.205 273.021 397.337L272.76 396.663C271.337 397.516 269.845 398.367 268.318 399.217C267.847 399.473 267.375 399.73 266.903 399.987L267.131 400.683ZM278.799 393.678C280.74 392.381 282.631 391.029 284.417 389.673L284.055 389.063C282.292 390.412 280.412 391.749 278.494 393.04L278.799 393.678ZM289.815 385.282C291.589 383.722 293.313 382.107 294.908 380.473L294.436 379.966C292.852 381.585 291.161 383.178 289.409 384.709L289.815 385.282ZM293.952 372.747L294.49 372.054C292.887 370.889 291.558 369.642 290.527 368.329L289.878 368.928C290.946 370.264 292.313 371.558 293.952 372.747ZM298.735 375.637C300.447 376.503 302.209 377.227 303.984 377.785L304.354 377.003C302.781 376.512 301.222 375.878 299.691 375.131C300.317 374.365 300.908 373.575 301.475 372.792C302.279 371.684 303.012 370.574 303.677 369.483L303.043 369.175C302.4 370.235 301.677 371.331 300.895 372.41C300.317 373.208 299.704 374.005 299.055 374.8L299.19 374.911L298.735 375.637ZM309.654 379.032C311.676 379.273 313.709 379.303 315.707 379.135L315.821 378.337C313.87 378.514 311.883 378.471 309.919 378.247L309.654 379.032ZM287.256 363.772L288.01 363.396C287.966 363.236 287.92 363.053 287.886 362.877C287.506 361.208 287.531 359.325 287.937 357.409L287.183 357.415C286.749 359.443 286.732 361.462 287.13 363.231C287.153 363.421 287.199 363.604 287.256 363.772ZM321.956 377.882C323.95 377.274 326.013 376.45 328.109 375.43L327.915 374.713C325.864 375.719 323.835 376.522 321.898 377.123L321.956 377.882ZM305.914 363.119L306.64 363.227C307.418 360.945 307.808 358.756 307.776 356.705L306.998 356.891C307.024 358.851 306.664 360.95 305.914 363.119ZM290.642 351.484C291.545 350.311 292.613 349.356 293.789 348.646C294.45 348.251 295.139 347.941 295.823 347.737L295.776 346.964C295.013 347.203 294.267 347.542 293.539 347.979C292.24 348.761 291.074 349.804 290.095 351.08L290.642 351.484ZM360.192 390.194L360.706 389.485C359.254 388.507 357.749 387.428 356.239 386.258L355.688 386.943C357.211 388.121 358.717 389.223 360.192 390.194ZM364.952 393.091C366.632 394.002 368.33 394.814 370.02 395.513L370.45 394.748C368.783 394.065 367.096 393.238 365.44 392.343L364.952 393.091ZM334.022 372.078C335.844 370.92 337.692 369.627 339.68 368.142L339.328 367.518C337.364 368.996 335.537 370.259 333.738 371.41L334.022 372.078ZM351.436 383.421L352.01 382.751C350.957 381.839 349.899 380.858 348.755 379.799L347.942 379.023L347.343 379.676L348.157 380.452C349.312 381.519 350.381 382.485 351.436 383.421ZM305.44 351.498L306.127 350.946C305.076 349.315 303.569 348.017 301.853 347.279L301.424 348.044C303.033 348.733 304.465 349.96 305.44 351.498ZM375.403 397.379C377.256 397.902 379.184 398.299 381.082 398.588L381.358 397.788C379.485 397.514 377.592 397.119 375.75 396.604L375.403 397.379ZM343.47 375.705L344.094 375.09C342.763 373.623 341.621 372.216 340.618 370.791L339.956 371.359C340.972 372.792 342.115 374.222 343.47 375.705ZM337.06 366.482L337.773 365.991C336.936 364.238 336.28 362.431 335.833 360.608L335.077 360.961C335.527 362.83 336.197 364.69 337.06 366.482ZM387.028 399.035C389.084 399.058 391.142 398.929 393.157 398.663L393.236 397.864C391.256 398.131 389.221 398.253 387.2 398.231L387.028 399.035ZM345.116 363.821C347.092 362.154 348.774 360.598 350.259 359.066L349.787 358.559C348.335 360.069 346.675 361.595 344.733 363.241L345.116 363.821ZM334.392 354.833L335.171 354.67C335.208 352.598 335.486 350.489 336.02 348.396L335.276 348.364C334.721 350.509 334.424 352.693 334.392 354.833ZM354.142 353.241L354.744 353.594C355.341 352.721 355.889 351.816 356.381 350.939C357.009 349.803 357.539 348.602 357.976 347.383L357.261 347.261C356.844 348.428 356.333 349.576 355.726 350.66C355.257 351.53 354.717 352.397 354.142 353.241ZM337.74 341.931L338.394 342.188C338.956 341.117 339.601 340.079 340.286 339.133C340.918 338.262 341.611 337.43 342.342 336.667L341.859 336.174C341.095 336.959 340.37 337.835 339.706 338.751C339.001 339.749 338.334 340.816 337.74 341.931ZM358.473 341.03L359.252 340.866C359.299 338.583 358.876 336.579 357.986 334.923L357.285 335.422C358.111 336.993 358.504 338.867 358.473 341.03ZM347.672 332.69C349.114 331.981 350.474 331.633 351.671 331.658C352.252 331.669 352.827 331.764 353.372 331.949L353.754 331.174C353.15 330.973 352.516 330.861 351.866 330.847C350.529 330.818 349.055 331.2 347.477 331.973L347.672 332.69Z" fill="#092B96"/>
<path d="M143.675 386.527C143.941 386.705 144.195 386.874 144.461 387.052L145.001 386.298C144.178 385.772 143.377 385.214 142.563 384.648L142.011 385.393C142.558 385.782 143.117 386.154 143.675 386.527Z" fill="#092B96"/>
<path d="M1050.47 81.7787C1049.36 81.1841 1048.23 80.6378 1047.09 80.1397C1065.7 92.3518 1072.19 116.969 1061.44 136.91C1050.67 156.867 1026.54 164.966 1006.12 156.112C1007.15 156.803 1008.22 157.429 1009.33 158.024C1030.38 169.384 1056.67 161.511 1068.03 140.445C1079.39 119.411 1071.53 93.1391 1050.47 81.7787Z" fill="#1D88D8"/>
<path d="M1043.88 78.2275C1022.83 66.867 996.54 74.7406 985.179 95.7904C973.819 116.84 981.693 143.128 1002.74 154.489C1023.79 165.849 1050.08 157.976 1061.44 136.926C1072.8 115.86 1064.93 89.588 1043.88 78.2275ZM1008.54 143.739C993.423 135.576 987.766 116.712 995.929 101.591C1004.09 86.4707 1022.96 80.8145 1038.08 88.9774C1053.2 97.1402 1058.85 116.005 1050.69 131.125C1042.54 146.246 1023.66 151.886 1008.54 143.739Z" fill="#51A9F3"/>
<path d="M991.784 99.3416C1002.53 79.4005 1026.68 71.2859 1047.09 80.1397C1046.06 79.4487 1044.97 78.822 1043.86 78.2114C1022.81 66.851 996.524 74.7246 985.179 95.7744C973.819 116.84 981.676 143.112 1002.74 154.473C1003.85 155.067 1004.99 155.63 1006.12 156.112C987.509 143.932 981.034 119.299 991.784 99.3416Z" fill="#51A9F3"/>
<path opacity="0.05" d="M1037.61 88.7203C1022.35 80.8145 1003.58 86.792 995.672 102.041C987.766 117.306 993.744 136.074 1008.99 143.98C1024.26 151.886 1043.03 145.908 1050.93 130.659C1058.84 115.394 1052.88 96.626 1037.61 88.7203Z" fill="white"/>
<path d="M1050.64 101.495L992.314 118.945C991.832 113.353 992.86 107.569 995.608 102.202L1038.69 89.3148C1043.91 92.2714 1047.96 96.5457 1050.64 101.495Z" fill="url(#paint0_linear_5_27)"/>
<path d="M1050.95 130.659C1050.8 130.948 1050.64 131.238 1050.48 131.511L1008.93 143.932C1001.73 140.172 996.62 134.001 994.065 126.931L1053.58 109.127C1055.25 116.133 1054.52 123.75 1050.95 130.659Z" fill="url(#paint1_linear_5_27)"/>
<path d="M1014.51 154.007L1000.75 146.585L955.79 229.947L969.552 237.369L1014.51 154.007Z" fill="#51A9F3"/>
<path d="M1188.9 131.189V123.027C1188.9 121.243 1187.45 119.813 1185.68 119.813H1181.52C1179.56 119.813 1177.86 118.527 1177.25 116.68C1176.75 115.201 1176.15 113.755 1175.46 112.373C1174.58 110.622 1174.88 108.501 1176.27 107.119L1179.21 104.178C1180.46 102.925 1180.46 100.884 1179.21 99.6148L1173.42 93.8301C1172.17 92.5767 1170.13 92.5767 1168.86 93.8301L1165.92 96.7706C1164.54 98.1525 1162.42 98.4578 1160.66 97.574C1159.28 96.8831 1157.85 96.2886 1156.36 95.7904C1154.49 95.1638 1153.22 93.4766 1153.22 91.5162V87.3544C1153.22 85.5708 1151.78 84.1407 1150.01 84.1407H1141.85C1140.06 84.1407 1138.62 85.5869 1138.62 87.3544V91.5162C1138.62 93.4766 1137.33 95.1798 1135.48 95.7904C1134.01 96.2886 1132.56 96.8831 1131.18 97.574C1129.43 98.4578 1127.31 98.1525 1125.92 96.7706L1122.98 93.8301C1121.73 92.5767 1119.69 92.5767 1118.42 93.8301L1112.64 99.6148C1111.38 100.868 1111.38 102.909 1112.64 104.178L1115.58 107.119C1116.96 108.501 1117.26 110.622 1116.38 112.373C1115.69 113.755 1115.09 115.185 1114.6 116.68C1113.97 118.544 1112.28 119.813 1110.32 119.813H1106.16C1104.38 119.813 1102.95 121.259 1102.95 123.027V131.189C1102.95 132.973 1104.39 134.419 1106.16 134.419H1110.32C1112.28 134.419 1113.99 135.705 1114.6 137.553C1115.09 139.031 1115.69 140.477 1116.38 141.859C1117.26 143.61 1116.96 145.732 1115.58 147.113L1112.64 150.054C1111.38 151.307 1111.38 153.348 1112.64 154.617L1118.42 160.402C1119.67 161.655 1121.71 161.655 1122.98 160.402L1125.92 157.462C1127.31 156.08 1129.43 155.774 1131.18 156.658C1132.56 157.349 1133.99 157.944 1135.48 158.442C1137.35 159.068 1138.62 160.756 1138.62 162.716V166.878C1138.62 168.661 1140.06 170.091 1141.85 170.091H1150.01C1151.79 170.091 1153.22 168.645 1153.22 166.878V162.716C1153.22 160.756 1154.51 159.052 1156.36 158.442C1157.84 157.944 1159.28 157.349 1160.66 156.658C1162.42 155.774 1164.54 156.08 1165.92 157.462L1168.86 160.402C1170.11 161.655 1172.15 161.655 1173.42 160.402L1179.21 154.617C1180.46 153.364 1180.46 151.323 1179.21 150.054L1176.27 147.113C1174.88 145.732 1174.58 143.61 1175.46 141.859C1176.15 140.477 1176.75 139.047 1177.25 137.553C1177.87 135.689 1179.56 134.419 1181.52 134.419H1185.68C1187.45 134.419 1188.9 132.973 1188.9 131.189ZM1145.91 136.974C1140.47 136.974 1136.05 132.555 1136.05 127.108C1136.05 121.661 1140.47 117.242 1145.91 117.242C1151.36 117.242 1155.78 121.661 1155.78 127.108C1155.78 132.555 1151.36 136.974 1145.91 136.974Z" fill="#1D88D8"/>
<path d="M1229.04 181.998V177.371C1229.04 176.358 1228.22 175.555 1227.22 175.555H1224.87C1223.77 175.555 1222.8 174.832 1222.45 173.771C1222.17 172.936 1221.84 172.116 1221.44 171.345C1220.94 170.349 1221.1 169.159 1221.89 168.372L1223.56 166.701C1224.26 165.994 1224.26 164.837 1223.56 164.13L1220.29 160.868C1219.59 160.161 1218.43 160.161 1217.72 160.868L1216.05 162.539C1215.27 163.327 1214.08 163.487 1213.08 162.989C1212.29 162.604 1211.49 162.266 1210.65 161.977C1209.61 161.623 1208.87 160.659 1208.87 159.55V157.204C1208.87 156.192 1208.05 155.389 1207.05 155.389H1202.43C1201.41 155.389 1200.61 156.208 1200.61 157.204V159.55C1200.61 160.659 1199.89 161.623 1198.83 161.977C1197.99 162.25 1197.17 162.587 1196.4 162.989C1195.4 163.487 1194.22 163.327 1193.43 162.539L1191.76 160.868C1191.05 160.161 1189.89 160.161 1189.19 160.868L1185.92 164.13C1185.22 164.837 1185.22 165.994 1185.92 166.701L1187.6 168.372C1188.38 169.159 1188.54 170.349 1188.04 171.345C1187.66 172.132 1187.32 172.936 1187.03 173.771C1186.68 174.816 1185.72 175.555 1184.61 175.555H1182.26C1181.25 175.555 1180.44 176.374 1180.44 177.371V181.998C1180.44 183.011 1181.26 183.814 1182.26 183.814H1184.61C1185.72 183.814 1186.68 184.537 1187.03 185.598C1187.31 186.433 1187.64 187.253 1188.04 188.024C1188.54 189.02 1188.38 190.209 1187.6 190.997L1185.92 192.668C1185.22 193.375 1185.22 194.532 1185.92 195.239L1189.19 198.501C1189.89 199.208 1191.05 199.208 1191.76 198.501L1193.43 196.83C1194.22 196.042 1195.4 195.881 1196.4 196.38C1197.19 196.765 1197.99 197.103 1198.83 197.392C1199.87 197.745 1200.61 198.71 1200.61 199.818V202.164C1200.61 203.177 1201.43 203.98 1202.43 203.98H1207.05C1208.07 203.98 1208.87 203.161 1208.87 202.164V199.818C1208.87 198.71 1209.59 197.745 1210.65 197.392C1211.49 197.119 1212.31 196.781 1213.08 196.38C1214.08 195.881 1215.27 196.042 1216.05 196.83L1217.72 198.501C1218.43 199.208 1219.59 199.208 1220.29 198.501L1223.56 195.239C1224.26 194.532 1224.26 193.375 1223.56 192.668L1221.89 190.997C1221.1 190.209 1220.94 189.02 1221.44 188.024C1221.82 187.237 1222.16 186.433 1222.45 185.598C1222.8 184.553 1223.77 183.814 1224.87 183.814H1227.22C1228.23 183.83 1229.04 183.011 1229.04 181.998ZM1204.72 189.406C1199.36 189.406 1195.02 185.067 1195.02 179.7C1195.02 174.334 1199.36 169.995 1204.72 169.995C1210.09 169.995 1214.43 174.334 1214.43 179.7C1214.43 185.051 1210.09 189.406 1204.72 189.406Z" fill="#51A9F3"/>
<path d="M1245.43 129.454V124.826C1245.43 123.814 1244.61 123.011 1243.61 123.011H1241.26C1240.16 123.011 1239.19 122.287 1238.84 121.227C1238.56 120.391 1238.23 119.572 1237.83 118.801C1237.33 117.804 1237.49 116.615 1238.28 115.828L1239.95 114.157C1240.65 113.45 1240.65 112.293 1239.95 111.586L1236.68 108.324C1235.98 107.617 1234.82 107.617 1234.11 108.324L1232.44 109.995C1231.66 110.782 1230.47 110.943 1229.47 110.445C1228.68 110.059 1227.88 109.722 1227.04 109.433C1226 109.079 1225.26 108.115 1225.26 107.006V104.66C1225.26 103.648 1224.44 102.845 1223.44 102.845H1218.78C1217.77 102.845 1216.97 103.664 1216.97 104.66V107.006C1216.97 108.115 1216.25 109.079 1215.18 109.433C1214.35 109.706 1213.53 110.043 1212.76 110.445C1211.76 110.943 1210.57 110.782 1209.79 109.995L1208.11 108.324C1207.41 107.617 1206.25 107.617 1205.54 108.324L1202.28 111.586C1201.57 112.293 1201.57 113.45 1202.28 114.157L1203.95 115.828C1204.74 116.615 1204.9 117.804 1204.4 118.801C1204.02 119.588 1203.68 120.391 1203.39 121.227C1203.04 122.271 1202.07 123.011 1200.96 123.011H1198.62C1197.61 123.011 1196.8 123.83 1196.8 124.826V129.454C1196.8 130.466 1197.62 131.27 1198.62 131.27H1200.96C1202.07 131.27 1203.04 131.993 1203.39 133.053C1203.66 133.889 1204 134.708 1204.4 135.48C1204.9 136.476 1204.74 137.665 1203.95 138.452L1202.28 140.124C1201.57 140.831 1201.57 141.988 1202.28 142.695L1205.54 145.956C1206.25 146.663 1207.41 146.663 1208.11 145.956L1209.79 144.285C1210.57 143.498 1211.76 143.337 1212.76 143.835C1213.55 144.221 1214.35 144.559 1215.18 144.848C1216.23 145.201 1216.97 146.165 1216.97 147.274V149.62C1216.97 150.632 1217.79 151.436 1218.78 151.436H1223.41C1224.42 151.436 1225.23 150.616 1225.23 149.62V147.274C1225.23 146.165 1225.95 145.201 1227.01 144.848C1227.85 144.575 1228.67 144.237 1229.44 143.835C1230.43 143.337 1231.62 143.498 1232.41 144.285L1234.08 145.956C1234.79 146.663 1235.95 146.663 1236.65 145.956L1239.91 142.695C1240.62 141.988 1240.62 140.831 1239.91 140.124L1238.24 138.452C1237.46 137.665 1237.3 136.476 1237.79 135.48C1238.18 134.692 1238.52 133.889 1238.81 133.053C1239.16 132.009 1240.12 131.27 1241.23 131.27H1243.58C1244.61 131.27 1245.43 130.45 1245.43 129.454ZM1221.1 132.025C1218.4 132.025 1216.21 129.84 1216.21 127.14C1216.21 124.441 1218.4 122.255 1221.1 122.255C1223.8 122.255 1225.98 124.441 1225.98 127.14C1225.98 129.84 1223.8 132.025 1221.1 132.025Z" fill="#2B56E0"/>
<path d="M714.955 276.481C714.955 276.481 668.42 215.774 570 222.025C570 222.025 622.159 284.419 714.955 276.481Z" fill="#1D88D8"/>
<path d="M686.529 235.185C686.529 235.185 696.604 159.358 622.625 94.1354C622.625 94.1354 615.346 175.137 686.529 235.185Z" fill="#7DC4F9"/>
<path d="M679.331 244.987C679.331 244.987 744.89 209.524 753.969 113.868C753.969 113.852 685.935 154.473 679.331 244.987Z" fill="#7DC4F9"/>
<path d="M694.21 239.604C694.21 239.604 639.609 206.101 659.518 189.101C674.43 176.374 645.024 160.049 656.224 153.734C667.408 147.419 669.738 153.219 665.801 136.942C661.864 120.681 674.992 116.262 679.732 99.6951C684.473 83.1445 707.868 89.2184 706.149 113.273C704.446 137.328 711.484 111.843 719.229 121.966C726.974 132.089 701.264 171.072 711.034 167.745C720.804 164.419 728.34 171.859 724.949 183.605C717.076 211.066 694.21 239.604 694.21 239.604Z" fill="#1D88D8"/>
<path opacity="0.39" d="M696.106 251.655C696.01 251.607 695.945 251.527 695.929 251.414C692.266 232.855 687.831 208.351 686.031 183.541L686.015 183.348L685.871 183.219C680.23 178.399 675.297 172.678 670.541 167.167C668.966 165.351 667.392 163.519 665.801 161.736C665.704 161.639 665.704 161.559 665.769 161.463C665.865 161.334 666.09 161.238 666.267 161.318C666.315 161.334 666.347 161.366 666.379 161.414C667.938 163.166 669.481 164.95 671.023 166.733C675.426 171.827 679.973 177.097 685.099 181.677L685.951 182.432L685.871 181.291C685.18 170.831 684.955 160.129 685.147 148.592V148.286L684.874 148.158C684.81 148.126 684.778 148.11 684.762 148.061C680.375 141.457 676.615 134.403 673.562 127.108C673.514 126.98 673.53 126.883 673.61 126.803C673.723 126.69 673.915 126.658 674.028 126.722C674.092 126.755 674.14 126.803 674.173 126.883C676.969 133.584 680.375 140.091 684.328 146.214L685.147 147.499L685.18 145.973C685.437 135.078 686.063 123.814 687.108 111.554C687.124 111.409 687.188 111.377 687.204 111.361C687.301 111.313 687.445 111.313 687.558 111.377C687.702 111.441 687.767 111.554 687.751 111.714C686.32 128.474 685.662 143.643 685.726 158.04V158.956L686.465 158.426C694.756 152.448 701.714 145.025 707.113 136.347C707.177 136.251 707.242 136.203 707.37 136.267C707.483 136.315 707.579 136.428 707.611 136.556C707.643 136.653 707.627 136.765 707.563 136.862C701.955 145.86 694.692 153.509 685.999 159.599L685.758 159.743V160.016C685.822 168.115 686.112 175.603 686.626 182.93L686.642 183.059L686.722 183.171C686.786 183.268 686.786 183.364 686.738 183.477L686.674 183.589L686.69 183.718C687.156 190.193 687.847 196.974 688.779 204.478L688.94 205.699L689.631 204.671C696.203 195.03 703.369 185.694 710.921 176.921C711.034 176.792 711.162 176.76 711.307 176.84C711.419 176.888 711.5 177.001 711.516 177.097C711.532 177.146 711.532 177.21 711.436 177.306C703.466 186.562 695.978 196.38 689.148 206.503L689.052 206.647L689.068 206.824C690.771 219.952 693.166 234.125 696.588 251.414C696.62 251.575 696.556 251.623 696.524 251.639C696.428 251.704 696.235 251.72 696.106 251.655Z" fill="#092B96"/>
<path d="M701.602 241.725C701.602 241.725 638.822 265.844 637.376 238.415C636.283 217.863 603.905 231.939 605.785 218.602C607.665 205.249 613.98 207.001 597.895 199.915C581.81 192.812 586.519 179.042 575.753 164.532C564.971 150.022 584.976 134.403 603.937 151.179C622.898 167.954 606.138 145.812 619.539 145.828C632.925 145.828 649.009 192.154 652.48 181.87C655.951 171.602 666.958 170.075 674.574 180.391C692.394 204.446 701.602 241.725 701.602 241.725Z" fill="#51A9F3"/>
<path opacity="0.39" d="M712.85 247.831C712.753 247.879 712.641 247.879 712.528 247.815C694.708 239.026 671.457 227.087 649.636 212.737L649.459 212.625L649.25 212.673C641.634 214.296 633.728 214.762 626.079 215.196C623.557 215.341 621.034 215.485 618.527 215.678C618.383 215.694 618.318 215.646 618.286 215.517C618.238 215.341 618.302 215.099 618.479 215.019C618.527 215.003 618.575 214.987 618.624 214.987C621.082 214.81 623.557 214.666 626.015 214.521C633.069 214.103 640.364 213.669 647.451 212.32L648.624 212.095L647.627 211.436C638.468 205.33 629.406 198.693 619.925 191.173L619.668 190.981L619.379 191.125C619.315 191.157 619.282 191.157 619.218 191.157C610.911 190.595 602.635 189.229 594.601 187.108C594.456 187.076 594.392 186.996 594.376 186.867C594.36 186.706 594.456 186.514 594.585 186.465C594.649 186.433 594.714 186.433 594.81 186.449C602.169 188.394 609.77 189.695 617.402 190.322L618.993 190.45L617.74 189.454C608.822 182.287 599.839 174.575 590.279 165.881C590.166 165.785 590.182 165.705 590.182 165.673C590.198 165.56 590.295 165.448 590.423 165.383C590.568 165.319 590.713 165.335 590.825 165.448C603.889 177.338 616.101 187.558 628.152 196.717L628.907 197.296L628.94 196.347C629.245 185.614 627.493 175.089 623.717 165.046C623.669 164.933 623.669 164.853 623.814 164.789C623.926 164.725 624.087 164.725 624.199 164.773C624.312 164.821 624.376 164.885 624.424 164.998C628.345 175.41 630.08 186.337 629.614 197.488L629.582 197.778L629.807 197.938C636.604 203.048 643.032 207.595 649.459 211.838L649.572 211.918H649.716C649.829 211.918 649.925 211.982 649.973 212.095L650.038 212.223L650.15 212.304C655.838 216.048 661.944 219.808 668.79 223.809L669.914 224.467L669.513 223.23C665.672 211.597 662.459 199.674 659.968 187.783C659.936 187.606 660 187.478 660.161 187.413C660.273 187.349 660.418 187.349 660.514 187.397C660.563 187.413 660.611 187.462 660.643 187.59C663.262 200.14 666.669 212.657 670.75 224.805L670.814 224.982L670.975 225.078C683.01 232.036 696.347 239.09 712.946 247.285C713.091 247.365 713.091 247.445 713.091 247.478C713.091 247.606 712.978 247.767 712.85 247.831Z" fill="#092B96"/>
<path d="M1157.05 186.096H665.463C660.836 186.096 657.092 189.84 657.092 194.467L656.079 434.178C656.079 438.806 659.823 442.55 664.451 442.55L1157.05 438.501C1161.68 438.501 1165.42 434.757 1165.42 430.129V194.467C1165.42 189.856 1161.68 186.096 1157.05 186.096Z" fill="white"/>
<path d="M1101.26 253.809H712.753C708.897 253.809 705.763 256.942 705.763 260.798V297.033C705.763 300.89 708.897 304.023 712.753 304.023H1101.24C1105.1 304.023 1108.23 300.89 1108.23 297.033V260.798C1108.25 256.942 1105.12 253.809 1101.26 253.809Z" fill="#D8E8EF"/>
<path d="M800.889 253.809H712.753C708.897 253.809 705.763 256.942 705.763 260.798V297.033C705.763 300.89 708.897 304.023 712.753 304.023H800.889C804.81 304.023 807.992 300.841 807.992 296.921V260.927C808.008 256.99 804.826 253.809 800.889 253.809Z" fill="#51A9F3"/>
<path d="M768.479 330.215H718.715C714.199 330.215 710.536 333.878 710.536 338.394V388.158C710.536 392.673 714.199 396.337 718.715 396.337H768.479C772.994 396.337 776.658 392.673 776.658 388.158V338.394C776.658 333.878 772.994 330.215 768.479 330.215Z" fill="#7DC4F9"/>
<path d="M899.743 330.215H849.979C845.463 330.215 841.8 333.878 841.8 338.394V388.158C841.8 392.673 845.463 396.337 849.979 396.337H899.743C904.258 396.337 907.922 392.673 907.922 388.158V338.394C907.922 333.878 904.258 330.215 899.743 330.215Z" fill="#1D88D8"/>
<path d="M785.238 337.333C784.676 337.333 784.21 336.867 784.21 336.305C784.21 335.742 784.676 335.276 785.238 335.276H829.138C829.7 335.276 830.166 335.742 830.166 336.305C830.166 336.867 829.7 337.333 829.138 337.333H785.238Z" fill="#ABD0DD"/>
<path d="M785.238 348.003C784.676 348.003 784.21 347.537 784.21 346.974C784.21 346.412 784.676 345.946 785.238 345.946H829.138C829.7 345.946 830.166 346.412 830.166 346.974C830.166 347.537 829.7 348.003 829.138 348.003H785.238Z" fill="#ABD0DD"/>
<path d="M785.238 358.672C784.676 358.672 784.21 358.206 784.21 357.644C784.21 357.081 784.676 356.615 785.238 356.615H829.138C829.7 356.615 830.166 357.081 830.166 357.644C830.166 358.206 829.7 358.672 829.138 358.672H785.238Z" fill="#ABD0DD"/>
<path d="M785.238 369.342C784.676 369.342 784.21 368.876 784.21 368.313C784.21 367.751 784.676 367.285 785.238 367.285H829.138C829.7 367.285 830.166 367.751 830.166 368.313C830.166 368.876 829.7 369.342 829.138 369.342H785.238Z" fill="#ABD0DD"/>
<path d="M785.238 380.027C784.676 380.027 784.21 379.561 784.21 378.999C784.21 378.436 784.676 377.97 785.238 377.97H829.138C829.7 377.97 830.166 378.436 830.166 378.999C830.166 379.561 829.7 380.027 829.138 380.027H785.238Z" fill="#ABD0DD"/>
<path d="M785.238 390.697C784.676 390.697 784.21 390.231 784.21 389.668C784.21 389.106 784.676 388.64 785.238 388.64H804.023C804.585 388.64 805.051 389.106 805.051 389.668C805.051 390.231 804.585 390.697 804.023 390.697H785.238Z" fill="#ABD0DD"/>
<path d="M919.057 337.333C918.495 337.333 918.029 336.867 918.029 336.305C918.029 335.742 918.495 335.276 919.057 335.276H962.957C963.519 335.276 963.985 335.742 963.985 336.305C963.985 336.867 963.519 337.333 962.957 337.333H919.057Z" fill="#ABD0DD"/>
<path d="M919.057 348.003C918.495 348.003 918.029 347.537 918.029 346.974C918.029 346.412 918.495 345.946 919.057 345.946H962.957C963.519 345.946 963.985 346.412 963.985 346.974C963.985 347.537 963.519 348.003 962.957 348.003H919.057Z" fill="#ABD0DD"/>
<path d="M919.057 358.672C918.495 358.672 918.029 358.206 918.029 357.644C918.029 357.081 918.495 356.615 919.057 356.615H962.957C963.519 356.615 963.985 357.081 963.985 357.644C963.985 358.206 963.519 358.672 962.957 358.672H919.057Z" fill="#ABD0DD"/>
<path d="M919.057 369.342C918.495 369.342 918.029 368.876 918.029 368.313C918.029 367.751 918.495 367.285 919.057 367.285H962.957C963.519 367.285 963.985 367.751 963.985 368.313C963.985 368.876 963.519 369.342 962.957 369.342H919.057Z" fill="#ABD0DD"/>
<path d="M919.057 380.027C918.495 380.027 918.029 379.561 918.029 378.999C918.029 378.436 918.495 377.97 919.057 377.97H962.957C963.519 377.97 963.985 378.436 963.985 378.999C963.985 379.561 963.519 380.027 962.957 380.027H919.057Z" fill="#ABD0DD"/>
<path d="M919.057 390.697C918.495 390.697 918.029 390.231 918.029 389.668C918.029 389.106 918.495 388.64 919.057 388.64H937.842C938.404 388.64 938.87 389.106 938.87 389.668C938.87 390.231 938.404 390.697 937.842 390.697H919.057Z" fill="#ABD0DD"/>
<path d="M1034.7 330.215H984.939C980.423 330.215 976.76 333.878 976.76 338.394V388.158C976.76 392.673 980.423 396.337 984.939 396.337H1034.7C1039.22 396.337 1042.88 392.673 1042.88 388.158V338.394C1042.88 333.878 1039.22 330.215 1034.7 330.215Z" fill="#092B96"/>
<path d="M1054.03 337.333C1053.47 337.333 1053 336.867 1053 336.305C1053 335.742 1053.47 335.276 1054.03 335.276H1097.93C1098.5 335.276 1098.96 335.742 1098.96 336.305C1098.96 336.867 1098.5 337.333 1097.93 337.333H1054.03Z" fill="#ABD0DD"/>
<path d="M1054.03 348.003C1053.47 348.003 1053 347.537 1053 346.974C1053 346.412 1053.47 345.946 1054.03 345.946H1097.93C1098.5 345.946 1098.96 346.412 1098.96 346.974C1098.96 347.537 1098.5 348.003 1097.93 348.003H1054.03Z" fill="#ABD0DD"/>
<path d="M1054.03 358.672C1053.47 358.672 1053 358.206 1053 357.644C1053 357.081 1053.47 356.615 1054.03 356.615H1097.93C1098.5 356.615 1098.96 357.081 1098.96 357.644C1098.96 358.206 1098.5 358.672 1097.93 358.672H1054.03Z" fill="#ABD0DD"/>
<path d="M1054.03 369.342C1053.47 369.342 1053 368.876 1053 368.313C1053 367.751 1053.47 367.285 1054.03 367.285H1097.93C1098.5 367.285 1098.96 367.751 1098.96 368.313C1098.96 368.876 1098.5 369.342 1097.93 369.342H1054.03Z" fill="#ABD0DD"/>
<path d="M1054.03 380.027C1053.47 380.027 1053 379.561 1053 378.999C1053 378.436 1053.47 377.97 1054.03 377.97H1097.93C1098.5 377.97 1098.96 378.436 1098.96 378.999C1098.96 379.561 1098.5 380.027 1097.93 380.027H1054.03Z" fill="#ABD0DD"/>
<path d="M1054.03 390.697C1053.47 390.697 1053 390.231 1053 389.668C1053 389.106 1053.47 388.64 1054.03 388.64H1072.82C1073.38 388.64 1073.85 389.106 1073.85 389.668C1073.85 390.231 1073.38 390.697 1072.82 390.697H1054.03Z" fill="#ABD0DD"/>
<path fill-rule="evenodd" clip-rule="evenodd" d="M1154.01 199.32H1141.08C1140.37 199.32 1139.79 199.899 1139.79 200.606C1139.79 201.313 1140.37 201.891 1141.08 201.891H1154.01C1154.72 201.891 1155.3 201.313 1155.3 200.606C1155.28 199.883 1154.7 199.32 1154.01 199.32Z" fill="#51A9F3"/>
<path fill-rule="evenodd" clip-rule="evenodd" d="M1154.01 205.41H1141.08C1140.37 205.41 1139.79 205.989 1139.79 206.696C1139.79 207.403 1140.37 207.981 1141.08 207.981H1154.01C1154.72 207.981 1155.3 207.403 1155.3 206.696C1155.28 205.989 1154.7 205.41 1154.01 205.41Z" fill="#51A9F3"/>
<path fill-rule="evenodd" clip-rule="evenodd" d="M1154.01 211.404H1141.08C1140.37 211.404 1139.79 211.982 1139.79 212.689C1139.79 213.396 1140.37 213.975 1141.08 213.975H1154.01C1154.72 213.975 1155.3 213.396 1155.3 212.689C1155.28 211.982 1154.7 211.404 1154.01 211.404Z" fill="#51A9F3"/>
<path d="M687.686 205.908C687.686 209.058 685.131 211.597 681.998 211.597C678.849 211.597 676.31 209.042 676.31 205.908C676.31 202.759 678.865 200.22 681.998 200.22C685.147 200.22 687.686 202.775 687.686 205.908Z" fill="#51A9F3"/>
<path d="M718.458 205.908C718.458 209.058 715.903 211.597 712.769 211.597C709.62 211.597 707.081 209.042 707.081 205.908C707.081 202.759 709.636 200.22 712.769 200.22C715.903 200.22 718.458 202.775 718.458 205.908Z" fill="#092B96"/>
<path d="M749.904 205.908C749.904 209.058 747.349 211.597 744.215 211.597C741.066 211.597 738.527 209.042 738.527 205.908C738.527 202.759 741.082 200.22 744.215 200.22C747.349 200.22 749.904 202.775 749.904 205.908Z" fill="#1D88D8"/>
<path d="M891.918 369.856L877.376 349.159C875.785 346.91 872.459 346.91 870.868 349.159L856.326 369.856C854.478 372.491 856.358 376.122 859.572 376.122H888.656C891.886 376.106 893.766 372.475 891.918 369.856Z" fill="#092B96"/>
<path d="M1009.46 382.855C1018.9 382.855 1026.56 375.201 1026.56 365.758C1026.56 356.316 1018.9 348.661 1009.46 348.661C1000.02 348.661 992.362 356.316 992.362 365.758C992.362 375.201 1000.02 382.855 1009.46 382.855Z" fill="#1D88D8"/>
<path d="M1260 448.174C1260 439.224 1110.59 431.977 926.288 431.977C741.982 431.977 592.576 439.24 592.576 448.174C592.576 457.124 741.982 464.371 926.288 464.371C1110.59 464.371 1260 457.124 1260 448.174Z" fill="#CCF2FF"/>
<path fill-rule="evenodd" clip-rule="evenodd" d="M883.289 142.47C882.726 138.613 880.637 130.161 873.423 133.102C859.33 127.654 853.032 134.532 852.035 143.691C850.782 155.18 844.322 159.792 846.717 163.086C849.705 167.215 858.945 173.241 868.49 173.45C878.452 173.643 887.193 165.592 889.829 161.222C891.917 157.735 884.96 153.926 883.289 142.47Z" fill="#092B96"/>
<path fill-rule="evenodd" clip-rule="evenodd" d="M931.077 199.754C926.031 190.563 906.202 169.738 903.985 168.983C897.783 166.878 887.949 165.93 882.132 165.432C878.34 164.805 867.686 164.917 867.686 164.917L863.46 164.982C857.997 164.982 842.812 165.657 832.062 169.304C829.845 170.059 809.341 190.563 804.296 199.738C803.107 201.907 803.01 204.526 804.039 206.776L825.651 250.081L836.417 247.783L827.884 210.424C827.274 207.547 828.19 204.542 830.311 202.582L844.033 186.433H863.444H891.13L905.013 202.582C907.118 204.542 908.05 207.547 907.44 210.424L898.907 247.783L909.866 249.326L931.285 206.776C932.346 204.559 932.266 201.923 931.077 199.754Z" fill="#51A9F3"/>
<path fill-rule="evenodd" clip-rule="evenodd" d="M835.437 248.008L840.113 252.041C840.739 252.571 840.418 253.632 839.614 253.696L837.638 253.857L838.94 257.344C840.289 260.975 832.737 266.519 829.62 259.352L826.438 249.936L835.437 248.008Z" fill="#FFA683"/>
<path fill-rule="evenodd" clip-rule="evenodd" d="M900.128 247.976L895.292 252.057C894.665 252.587 894.987 253.648 895.79 253.712L897.766 253.873L896.465 257.36C895.115 260.991 902.667 266.535 905.785 259.368L909.127 249.229L900.128 247.976Z" fill="#FFA683"/>
<path fill-rule="evenodd" clip-rule="evenodd" d="M879.979 147.499L880.155 156.24C880.22 159.486 878.95 162.604 876.636 164.885C876.251 165.239 875.881 165.608 875.495 165.994C871.494 169.915 865.131 170.043 860.97 166.283L859.797 165.223C857.386 163.053 855.988 160 855.924 156.755L855.747 147.997C855.747 147.997 868.056 147.885 872.764 142.036C872.732 142.036 875.11 146.567 879.979 147.499Z" fill="#FFA683"/>
<path fill-rule="evenodd" clip-rule="evenodd" d="M879.979 147.499L880.155 156.24C880.22 159.486 878.95 162.604 876.636 164.885C876.251 165.239 875.881 165.608 875.495 165.994C871.494 169.915 865.131 170.043 860.97 166.283L859.797 165.223C857.386 163.053 855.988 160 855.924 156.755L855.747 147.997C855.747 147.997 867.943 147.885 872.651 142.052C872.635 142.052 875.11 146.567 879.979 147.499Z" fill="#FFA683"/>
<path fill-rule="evenodd" clip-rule="evenodd" d="M858.961 158.41C861.227 154.601 857.193 150.729 853.482 153.139C853.192 153.332 852.935 153.589 852.758 153.878C850.477 157.687 854.526 161.575 858.238 159.149C858.527 158.972 858.768 158.699 858.961 158.41Z" fill="#FFA683"/>
<path fill-rule="evenodd" clip-rule="evenodd" d="M883.096 157.912C885.313 154.2 881.521 150.407 877.874 152.48C877.392 152.754 876.99 153.171 876.733 153.653C874.805 157.365 878.741 161.013 882.373 158.651C882.662 158.474 882.919 158.217 883.096 157.912Z" fill="#FFA683"/>
<path fill-rule="evenodd" clip-rule="evenodd" d="M874.997 166.862C874.997 163.037 871.928 159.936 868.136 159.936C864.344 159.936 861.275 163.037 861.275 166.862C861.275 170.686 864.344 174.591 868.136 174.591C871.912 174.591 874.997 170.686 874.997 166.862Z" fill="#FFA683"/>
<path fill-rule="evenodd" clip-rule="evenodd" d="M861.291 166.54C861.291 166.653 861.259 166.749 861.259 166.862C861.259 167.135 864.826 170.702 868.313 170.702C871.687 170.686 874.997 167.119 874.997 166.862C874.997 166.733 874.965 166.605 874.965 166.46C871.044 169.818 865.26 169.867 861.291 166.54Z" fill="#EF7F5E"/>
<path d="M836.449 247.799L827.916 210.44C827.306 207.563 828.222 204.559 830.343 202.598L844.065 186.449C844.065 186.449 847.102 181.227 845.592 181.902C844.065 182.577 823.819 200.043 821.955 204.269C820.541 207.483 828.543 235.539 832.432 248.667L836.449 247.799Z" fill="#1D88D8"/>
<path d="M903.985 168.983C903.615 168.854 903.246 168.742 902.86 168.629C906.781 173.241 930.594 201.586 927.959 207.467C925.581 212.77 910.718 239.7 906.154 248.827L909.898 249.358L931.318 206.808C932.346 204.559 932.25 201.923 931.06 199.77C926.031 190.563 906.202 169.738 903.985 168.983Z" fill="#1D88D8"/>
<path d="M705.667 379.304L706.888 382.743L725.11 380.879C725.11 380.879 745.196 406.476 753.519 415.185C754.387 416.085 755.367 417.178 756.363 418.399C761.666 405.544 772.416 365.035 761.489 361.822C745.372 357.081 705.667 379.304 705.667 379.304Z" fill="#092B96"/>
<path d="M742.191 402.121C746.513 407.328 750.707 412.245 753.535 415.217C754.403 416.117 755.383 417.21 756.379 418.431C759.69 410.429 765.105 391.709 766.069 377.938C762.437 378.469 750.145 392.577 742.191 402.121Z" fill="#052575"/>
<path d="M725.126 380.895C725.126 380.895 745.212 406.492 753.535 415.217C761.875 423.943 780.916 449.749 729.722 447.756C678.527 445.78 655.276 437.906 655.276 437.906L654.216 426.787L707.788 421.098C707.788 421.098 674.317 417.194 678.415 385.651L725.126 380.895Z" fill="#173ACC"/>
<path d="M726.09 384.848L727.006 383.257C732.18 389.797 746.754 408.099 753.551 415.201C756.829 418.64 761.762 424.714 763.433 430.691C759.513 421.581 747.461 413.064 737.21 403.053C723.921 390.15 726.09 384.848 726.09 384.848Z" fill="#2B56E0"/>
<path d="M644.96 429.117C644.96 429.117 644.799 429.133 644.494 429.149C642.662 429.293 637.601 429.567 636.572 431.848C635.383 434.5 634.965 447.644 643.562 448.045C652.159 448.447 641.971 441.586 644.896 438.758L644.96 429.117Z" fill="#092B96"/>
<path d="M654.216 426.803L707.788 421.114C707.788 421.114 713.605 423.621 731.602 430.772C742.528 435.11 753.905 439.529 760.172 442.421C755.608 446.117 746.385 448.415 729.706 447.772C678.511 445.796 655.26 437.922 655.26 437.922L654.216 426.803Z" fill="#092B96"/>
<path d="M655.276 437.922C655.276 437.922 648.8 435.207 645.346 438.854C640.397 444.093 644.944 429.133 644.944 429.133L654.199 426.819L655.276 437.922Z" fill="#FFA683"/>
<path d="M776.24 295.78L760.654 282.941C760.123 282.507 759.963 281.752 760.268 281.141C763.016 275.549 761.457 268.527 755.978 264.735C750.964 261.264 744.039 261.811 739.636 266.021C738.768 266.856 738.045 267.772 737.451 268.752C734.205 274.151 735.297 281.27 740.279 285.416C744.971 289.32 751.607 289.352 756.315 285.865C756.46 285.753 756.62 285.673 756.797 285.624C757.263 285.496 757.777 285.592 758.163 285.914L773.749 298.752C774.167 299.09 774.665 299.234 775.163 299.186C775.662 299.138 776.128 298.913 776.465 298.495C777.172 297.676 777.06 296.455 776.24 295.78ZM755.929 281.527C752.571 285.56 746.578 286.106 742.528 282.748C738.495 279.39 737.949 273.396 741.307 269.347C744.665 265.314 750.659 264.767 754.708 268.126C758.741 271.484 759.288 277.494 755.929 281.527Z" fill="white"/>
<path d="M754.708 268.126C750.675 264.767 744.681 265.314 741.307 269.347C737.949 273.38 738.495 279.374 742.528 282.748C746.561 286.106 752.555 285.56 755.929 281.527C759.288 277.494 758.741 271.484 754.708 268.126Z" fill="#51A9F3"/>
<path d="M767.901 288.099C766.519 287.906 764.976 288.999 763.626 290.349C763.241 289.031 762.534 287.087 761.827 286.781C760.734 286.331 759.448 295.362 759.448 295.362L760.22 294.703C760.091 294.896 760.027 295.008 760.027 295.008L767.611 298.945C772.464 292.277 771.355 288.565 767.901 288.099Z" fill="#FFA683"/>
<path d="M678.447 356.664C679.957 341.061 682.207 324.382 685.115 319.899C686.578 317.633 687.895 316.058 689.518 315.014C689.502 314.998 689.502 314.998 689.502 314.998C689.502 314.998 675.394 323.996 669.561 337.879C666.749 344.628 672.132 351.441 678.447 356.664Z" fill="#51A9F3"/>
<path d="M716.883 314.403L716.401 308.265C718.345 307.96 720.177 307.076 721.607 305.582C725.431 301.613 725.367 294.125 721.928 289.883C718.747 290.847 714.697 290.188 714.553 291.923C714.312 294.687 714.055 296.905 714.055 296.905C711.419 295.249 708.656 295.491 709.025 299.01C709.17 300.424 710.166 302.673 711.211 302.85C711.211 302.85 711.998 308.843 706.101 311.157C706.101 311.157 706.101 311.157 706.085 311.141L706.069 313.262L716.883 314.403Z" fill="#FFA683"/>
<path d="M695.833 293.739C698.42 283.085 702.598 277.06 713.974 276.787C724.339 276.529 725.721 285.158 725.721 285.158C725.399 292.63 714.794 289.095 714.553 291.923C714.328 294.687 714.055 296.904 714.055 296.904C711.42 295.249 708.656 295.49 709.025 299.009C709.17 300.423 710.182 302.673 711.211 302.85C711.211 302.85 711.998 308.827 706.101 311.157C706.101 311.157 693.262 304.36 695.833 293.739Z" fill="#092B96"/>
<path d="M695.833 293.739C698.42 283.086 702.598 277.06 713.974 276.787C720.852 276.61 723.776 280.354 724.965 282.893C719.904 278.104 708.849 275.212 701.907 286.348C695.913 295.973 699.689 307.606 710.793 306.337C710.214 308.072 708.929 310.049 706.085 311.157C706.101 311.157 693.262 304.36 695.833 293.739Z" fill="#09256B"/>
<path d="M714.055 310.225C713.075 309.615 711.966 306.497 711.966 306.497C713.123 307.847 716.417 308.265 716.417 308.265L716.899 314.403L714.473 314.146C714.521 312.234 714.473 310.482 714.055 310.225Z" fill="#EF7F5E"/>
<path d="M676.117 387.001C676.117 387.001 679.282 328.897 685.099 319.899C687.526 316.139 689.566 314.291 693.23 313.552C695.512 313.086 703.771 312.828 706.101 313.037C711.162 313.519 723.841 315.191 726.894 316.444C731.12 318.163 747.943 332.802 747.943 332.802L759.24 294.157L768.559 297.628C768.559 297.628 759.465 353.948 752.185 354.093C744.906 354.221 726.283 343.841 726.283 343.841C726.283 343.841 724.885 379.272 731.762 385.748C731.795 385.764 702.71 399.181 676.117 387.001Z" fill="#51A9F3"/>
<path d="M685.164 318.244C687.718 316.171 689.502 315.014 689.502 315.014C689.502 315.014 689.502 315.014 689.518 315.03C687.895 316.074 686.578 317.649 685.115 319.915C682.207 324.398 679.957 341.077 678.447 356.68C676.904 355.394 675.41 354.012 674.076 352.566C674.767 343.278 677.113 326.888 685.164 318.244Z" fill="#147AC6"/>
<path d="M715.887 339.518C714.89 337.526 726.315 343.841 726.315 343.841C726.315 343.841 724.917 379.272 731.794 385.748C731.794 385.748 729.77 386.68 726.299 387.837C722.33 375.994 723.23 359.99 722.507 354.43C721.527 346.813 716.883 341.511 715.887 339.518Z" fill="#63B8F7"/>
<path d="M1102.67 441.007C1102.66 441.554 1102.62 442.164 1102.56 442.807C1102.34 444.816 1100.23 445.924 1099.75 446.149C1100.02 446.165 1100.26 446.23 1100.46 446.31C1103.91 447.82 1105.9 448.206 1109.26 446.776C1109.52 446.663 1109.79 446.663 1110.03 446.744C1109.9 445.057 1109.58 442.727 1109.31 441.007H1102.67Z" fill="#FFA683"/>
<path d="M1110.8 451.966C1110.88 450.536 1110.85 448.929 1110.8 447.724C1110.77 446.969 1109.98 446.471 1109.29 446.776C1105.92 448.222 1103.94 447.836 1100.47 446.326C1097.8 445.169 1089.19 449.974 1087.07 451.388C1087.05 451.388 1087.05 451.404 1087.04 451.404C1085.95 452.143 1086.49 453.862 1087.81 453.862H1108.81C1109.87 453.846 1110.76 453.027 1110.8 451.966Z" fill="#2B56E0"/>
<path d="M1137.46 439.722C1137.45 440.268 1137.41 440.879 1137.35 441.522C1137.12 443.53 1135.02 444.639 1134.54 444.864C1134.81 444.88 1135.05 444.944 1135.24 445.024C1138.7 446.535 1140.69 446.921 1144.05 445.49C1144.31 445.378 1144.58 445.378 1144.82 445.458C1144.69 443.771 1144.37 441.441 1144.1 439.722H1137.46Z" fill="#FFA683"/>
<path d="M1145.59 450.681C1145.67 449.251 1145.64 447.644 1145.59 446.439C1145.56 445.683 1144.77 445.185 1144.08 445.49C1140.71 446.937 1138.73 446.551 1135.26 445.041C1132.59 443.884 1123.98 448.688 1121.86 450.102C1121.84 450.102 1121.84 450.118 1121.83 450.118C1120.73 450.857 1121.28 452.577 1122.6 452.577H1143.6C1144.66 452.561 1145.53 451.725 1145.59 450.681Z" fill="#2B56E0"/>
<path d="M1139.08 318.581C1139.12 321.522 1141.17 329.524 1141.17 338.474C1141.17 355.651 1132.43 378.693 1132.43 378.693L1147.02 440.67L1134.68 441.039L1107.35 380.397L1109.33 315.528L1139.08 318.581Z" fill="#092B96"/>
<path d="M1129.27 315.094C1129.27 315.094 1127.32 335.292 1123.21 350.172C1119.77 362.609 1094.9 381.489 1094.9 381.489L1111.04 441.827H1100.95L1064.86 383.209C1063.96 380.702 1064.09 377.922 1065.25 375.528L1099.7 309.775L1129.27 315.094Z" fill="#2B56E0"/>
<path d="M1044.12 304.248L1031.17 304.264C1031.17 304.264 1031.81 312.009 1045.28 312.009L1044.12 304.248Z" fill="#FFA683"/>
<path d="M1113.74 238.511C1113.84 237.869 1114.07 236.117 1113.95 235.121C1113.55 231.12 1111.16 230.413 1108.39 232.887C1108.39 232.887 1105.89 231.329 1104.52 228.227C1103.7 226.38 1100.26 227.794 1097.56 227.263C1095.23 232.92 1097.37 240.697 1102.27 244.328C1104.26 245.806 1106.11 245.983 1108.47 245.967L1109.13 255.962L1121.26 252.732L1121.09 246.851C1116.44 246.98 1113.07 242.978 1113.74 238.511Z" fill="#FFA683"/>
<path opacity="0.4" d="M1104.31 441.827C1101.76 437.488 1070.07 383.498 1074.75 376.926C1079.61 370.065 1101.34 327.451 1101.34 327.451L1096.2 320.879C1096.2 320.879 1094.64 322.148 1092.18 324.189L1065.28 375.528C1064.12 377.938 1064 380.702 1064.9 383.209L1100.99 441.827H1104.31Z" fill="#092B96"/>
<path d="M1100.12 266.583C1100.76 254.243 1119.96 253.278 1122.04 253.246C1124.78 253.214 1127.35 254.676 1129.12 256.621C1132.21 260.043 1138.04 267.515 1136.18 278.072C1131.37 305.116 1141.32 322.357 1142.59 330.841C1124.73 338.072 1086.93 329.106 1086.93 329.106L1098.46 285.158L1100.12 266.583Z" fill="#51A9F3"/>
<path d="M1085.78 296.069C1085.78 296.069 1097.53 253.439 1112.52 255.898C1129.11 258.613 1101.8 311.511 1101.8 311.511L1045.2 312.652L1044.05 303.637L1085.78 296.069Z" fill="#51A9F3"/>
<path d="M1110.34 310.081C1107.56 318.469 1098.33 317.794 1098.33 317.794L1093.19 330.407C1089.32 329.684 1086.94 329.122 1086.94 329.122L1091.51 311.72L1101.82 311.511C1101.82 311.511 1120.81 274.698 1117.49 260.911C1118.07 262.1 1122.58 273.171 1110.34 310.081Z" fill="#147AC6"/>
<path d="M1126.36 281.688C1107.2 280.707 1113.66 243.412 1113.89 236.181C1114.02 232.164 1111.16 230.397 1108.39 232.871C1108.39 232.871 1105.9 231.313 1104.52 228.211C1103.7 226.364 1099.43 227.778 1096.73 227.247C1102.19 205.201 1128.08 206.23 1139.52 236.069C1149.37 261.827 1156.95 283.262 1126.36 281.688Z" fill="#092B96"/>
<path d="M1110.13 247.992C1110.61 247.51 1112.65 243.493 1112.65 243.493C1111.64 244.473 1109.76 245.389 1108.91 245.774C1108.63 245.903 1108.47 245.967 1108.47 245.967L1109.13 255.962L1110.5 255.592C1110.19 252.571 1109.82 248.297 1110.13 247.992Z" fill="#EF7F5E"/>
<path d="M1096.47 277.124C1098.98 265.362 1106.72 257.938 1108.63 256.251C1095.55 260.654 1085.78 296.069 1085.78 296.069L1044.04 303.653L1090.75 300.857C1090.75 300.857 1093.61 290.557 1096.47 277.124Z" fill="#63B8F7"/>
<path d="M1117.63 217.638C1131.55 223.889 1139.53 246.514 1135.73 281.286C1155.1 278.072 1148.21 258.742 1139.52 236.069C1128.08 206.214 1102.21 205.185 1096.73 227.247C1096.73 227.263 1103.62 211.356 1117.63 217.638Z" fill="#052575"/>
<path d="M1237.73 325.089C1236.83 330.006 1220.68 358.479 1210.7 377.52C1202.89 392.432 1204.56 406.589 1205.66 412.052H1207.57C1206.43 405.464 1205.96 406.476 1207.62 396.208C1209.43 384.944 1227.04 377.119 1238.1 355.394C1249.17 333.685 1238.64 320.172 1237.73 325.089Z" fill="#51A9F3"/>
<path d="M1200.61 400.37C1201.17 405.769 1201.62 409.497 1201.82 412.052H1202.78C1203.1 402.893 1203.66 387.065 1203.29 376.492C1202.75 360.922 1207.02 354.51 1209.43 328.254C1211.84 301.998 1205.05 264.848 1205.05 264.848C1205.05 264.848 1188.74 298.19 1194.42 335.308C1200.13 372.427 1198.14 376.556 1200.61 400.37Z" fill="#51A9F3"/>
<path d="M1196.01 395.132C1196.13 401.013 1197.12 408.211 1197.73 412.052H1198.76C1198.59 409.336 1198.39 404.339 1198.18 395.469C1197.56 368.586 1194.81 368.892 1190.15 350.911C1185.51 332.93 1178 325.458 1170.24 316.412C1170.24 316.412 1162.22 329.331 1173.55 348.533C1184.88 367.735 1189.36 369.068 1192.03 378.517C1194.68 387.965 1195.84 386.696 1196.01 395.132Z" fill="#51A9F3"/>
<path d="M1193.36 412.052H1194.49C1195.03 408.372 1195.08 402.877 1192.06 397.751C1186.9 389.01 1182.87 377.472 1174.92 369.856C1164.04 359.443 1156.47 333.428 1156.47 333.428C1156.47 333.428 1150.75 356.535 1161.82 374.853C1172.89 393.171 1182.15 396.626 1187.08 399.631C1192.35 402.828 1193.4 408.195 1193.36 412.052Z" fill="#51A9F3"/>
<path d="M1201.9 412.052H1202.07L1202.92 408.485C1203.25 399.165 1203.65 385.796 1203.31 376.492C1202.76 360.922 1207.04 354.51 1209.45 328.254C1211.86 301.998 1205.06 264.848 1205.06 264.848C1205.06 264.848 1198.86 316.621 1200.56 340.37C1202.17 362.352 1201.93 405.689 1201.9 412.052Z" fill="#1D88D8"/>
<path d="M1238.36 324.125C1238.52 331.115 1237.95 354.864 1223.97 367.51C1207.76 382.148 1202.6 398.313 1207.42 412.052H1207.57C1206.43 405.464 1205.96 406.476 1207.62 396.208C1209.43 384.944 1227.04 377.119 1238.1 355.394C1247.93 336.096 1240.72 323.273 1238.36 324.125Z" fill="#1D88D8"/>
<path d="M1198.22 412.052H1198.76C1198.59 409.336 1198.39 404.339 1198.18 395.469C1197.56 368.586 1194.81 368.892 1190.15 350.911C1185.51 332.93 1178 325.458 1170.24 316.412C1170.24 316.412 1169.92 334.28 1181.51 351.457C1193.09 368.635 1196.3 381.297 1196.63 386.053C1196.88 389.974 1197.88 406.412 1198.22 412.052Z" fill="#1D88D8"/>
<path d="M1193.6 412.052H1194.49C1195.03 408.372 1195.08 402.877 1192.06 397.751C1186.9 389.01 1182.87 377.472 1174.92 369.856C1164.04 359.443 1156.47 333.428 1156.47 333.428C1156.47 333.428 1156.82 362.882 1165.4 371.463C1173.98 380.059 1173.78 377.569 1180.43 386.053C1187.08 394.537 1189.12 396.899 1191.69 402.105C1193.33 405.432 1193.6 409.529 1193.6 412.052Z" fill="#1D88D8"/>
<path d="M1214.73 407.312H1184.65C1181.59 407.312 1179.27 410.108 1179.85 413.112L1185.75 443.948C1186.18 446.246 1188.21 447.917 1190.55 447.917H1208.84C1211.18 447.917 1213.19 446.246 1213.64 443.948L1219.54 413.112C1220.1 410.108 1217.79 407.312 1214.73 407.312Z" fill="#D8E8EF"/>
<path d="M1219.48 411.023C1218.96 408.918 1217.06 407.312 1214.73 407.312H1184.65C1182.32 407.312 1180.43 408.935 1179.91 411.023H1219.48Z" fill="#ABD0DD"/>
<path d="M1214.73 407.312H1208.07C1211.14 407.312 1213.45 410.108 1212.87 413.112L1206.97 443.948C1206.54 446.246 1204.52 447.917 1202.17 447.917H1208.84C1211.18 447.917 1213.19 446.246 1213.64 443.948L1219.54 413.112C1220.1 410.108 1217.79 407.312 1214.73 407.312Z" fill="#ABD0DD"/>
<defs>
<linearGradient id="paint0_linear_5_27" x1="967.443" y1="116.581" x2="1065.14" y2="91.2777" gradientUnits="userSpaceOnUse">
<stop stop-color="white"/>
<stop offset="1" stop-color="white" stop-opacity="0"/>
</linearGradient>
<linearGradient id="paint1_linear_5_27" x1="973.869" y1="141.392" x2="1071.57" y2="116.088" gradientUnits="userSpaceOnUse">
<stop stop-color="white"/>
<stop offset="1" stop-color="white" stop-opacity="0"/>
</linearGradient>
</defs>
</svg>
