<svg width="356" height="240" viewBox="0 0 356 240" fill="none" xmlns="http://www.w3.org/2000/svg">
<path d="M64.9722 217.494H293.846C316.272 217.494 335.713 201.167 338.764 178.919C338.839 178.396 338.897 177.873 338.955 177.341C339.95 167.675 337.985 158.116 330.142 150.758C305.063 127.206 340.074 96.8439 334.843 75.9078C329.62 54.9717 311.331 67.0135 277.365 34.0356C243.399 1.05768 248.697 -17.304 189.669 23.1315C142.289 55.5862 85.5076 19.4692 57.2952 33.6037C29.0745 47.7383 57.3781 89.5275 22.8981 134.539C1.14402 162.941 17.443 188.627 32.4405 203.725C37.3816 208.7 43.3009 212.47 49.7426 214.87C54.5925 216.672 59.774 217.494 64.9722 217.494Z" fill="#CCF2FF"/>
<path opacity="0.48" d="M334.835 75.9078C329.612 54.9717 311.323 67.0135 277.357 34.0356C254.235 11.588 249.302 -4.0829 229.886 0.949733C245.389 6.381 249.799 11.2974 254.102 21.3876C278.833 79.3127 227.631 137.587 262.459 163.763C281.643 178.172 241.774 199.257 205.446 217.503H293.838C316.264 217.503 335.705 201.176 338.756 178.927C338.831 178.404 338.889 177.881 338.947 177.35C339.941 167.683 337.977 158.124 330.134 150.766C305.055 127.206 340.066 96.8439 334.835 75.9078Z" fill="#ADE4F2"/>
<path d="M136.826 27.2839L93.8479 17.9826L109.824 49.1584L120.361 40.8122L124.539 48.0539L125.89 34.9989L136.826 27.2839Z" fill="#51A9F3"/>
<path d="M124.688 34.3677L125.89 34.9989L124.539 48.0539L120.361 40.8122L93.8479 17.9826L124.688 34.3677Z" fill="#092B96"/>
<path d="M115.652 44.541L124.539 48.0539L120.361 40.8122L115.652 44.541Z" fill="#1574BC"/>
<path d="M127.465 49.5479C127.075 49.1744 126.711 48.776 126.363 48.3776L126.661 48.1121C127.001 48.5021 127.365 48.8922 127.746 49.2657L127.465 49.5479Z" fill="#092B96"/>
<path d="M240.439 115.247C239.386 115.181 238.325 115.089 237.272 114.973L237.314 114.574C238.358 114.691 239.42 114.782 240.464 114.848L240.439 115.247ZM234.122 114.55C233.086 114.383 232.033 114.184 230.997 113.968L231.079 113.578C232.107 113.794 233.152 113.993 234.188 114.159L234.122 114.55ZM227.904 113.229C226.876 112.963 225.848 112.664 224.845 112.349L224.961 111.967C225.956 112.282 226.976 112.573 227.995 112.839L227.904 113.229ZM221.836 111.327C220.849 110.962 219.854 110.572 218.876 110.165L219.033 109.799C220.003 110.206 220.99 110.596 221.977 110.954L221.836 111.327ZM215.974 108.869C215.013 108.412 214.059 107.931 213.131 107.441L213.321 107.084C214.242 107.574 215.195 108.055 216.148 108.504L215.974 108.869ZM210.362 105.888C209.45 105.348 208.546 104.783 207.667 104.202L207.883 103.87C208.762 104.443 209.657 105.007 210.569 105.539L210.362 105.888ZM205.039 102.4C204.185 101.785 203.331 101.137 202.511 100.473L202.759 100.158C203.58 100.814 204.426 101.453 205.28 102.068L205.039 102.4ZM200.073 98.4301C199.277 97.7325 198.49 97.01 197.727 96.2792L198.009 95.9885C198.763 96.7194 199.543 97.4336 200.338 98.1312L200.073 98.4301ZM195.489 94.0203C194.767 93.2563 194.046 92.4591 193.366 91.6535L193.673 91.3961C194.353 92.1933 195.066 92.9906 195.787 93.7463L195.489 94.0203ZM191.36 89.1787C190.713 88.3399 190.075 87.4762 189.478 86.6126L189.81 86.38C190.407 87.2354 191.037 88.0908 191.683 88.9296L191.36 89.1787ZM187.729 83.9551C187.596 83.7391 187.463 83.5232 187.331 83.3073C186.9 82.6014 186.493 81.8955 186.12 81.2062L186.469 81.0152C186.842 81.6962 187.248 82.3938 187.671 83.0997C187.803 83.3156 187.936 83.5315 188.069 83.7474L187.729 83.9551ZM184.67 78.366C184.205 77.3861 183.782 76.3978 183.409 75.4345L183.782 75.2933C184.147 76.2483 184.57 77.2283 185.026 78.1999L184.67 78.366ZM182.381 72.4115C182.083 71.3735 181.826 70.3271 181.635 69.3056L182.025 69.2309C182.216 70.244 182.464 71.2738 182.763 72.2953L182.381 72.4115ZM184.678 66.6066L184.661 66.208C185.797 66.1664 186.833 66.0252 187.754 65.7844L187.853 66.1747C186.908 66.4156 185.838 66.5651 184.678 66.6066ZM181.486 66.5069C180.4 66.4073 179.339 66.2412 178.327 66.0086L178.419 65.6183C179.314 65.8259 180.251 65.9754 181.212 66.0751C181.179 65.6266 181.171 65.1782 181.171 64.738C181.171 64.1152 181.204 63.5089 181.262 62.9276L181.66 62.9691C181.602 63.5338 181.569 64.1318 181.569 64.738C181.569 65.1865 181.585 65.6432 181.619 66.1083L181.519 66.1166L181.486 66.5069ZM175.276 65.0619C174.257 64.6467 173.303 64.1484 172.433 63.5837L172.648 63.2515C173.494 63.8079 174.431 64.2896 175.417 64.6965L175.276 65.0619ZM190.804 64.8709L190.581 64.5387C190.655 64.4889 190.738 64.4307 190.813 64.3726C191.551 63.8328 192.172 63.1103 192.628 62.2798L192.977 62.4708C192.496 63.3511 191.824 64.1235 191.045 64.6965C190.97 64.7629 190.887 64.8211 190.804 64.8709ZM169.954 61.5407C169.233 60.8099 168.553 59.9794 167.923 59.0659L168.254 58.8417C168.868 59.7386 169.539 60.5525 170.236 61.2667L169.954 61.5407ZM182.365 59.9462L181.992 59.805C182.398 58.742 182.953 57.8119 183.658 57.0396L183.957 57.3053C183.285 58.0444 182.746 58.9331 182.365 59.9462ZM193.366 59.3483C193.341 58.6756 193.167 58.0444 192.86 57.4797C192.686 57.1642 192.471 56.8735 192.222 56.6243L192.504 56.342C192.778 56.6243 193.01 56.9399 193.2 57.2887C193.54 57.9116 193.731 58.6009 193.756 59.3317L193.366 59.3483ZM148.067 56.641V56.2423C149.07 56.234 150.132 56.2008 151.226 56.1344L151.251 56.533C150.148 56.5994 149.079 56.641 148.067 56.641ZM144.884 56.5496C143.798 56.4749 142.736 56.3586 141.717 56.2008L141.775 55.8022C142.778 55.96 143.839 56.0679 144.909 56.1427L144.884 56.5496ZM166.306 56.3088C165.85 55.4119 165.427 54.4568 165.005 53.3938L165.378 53.2443C165.792 54.299 166.215 55.2375 166.663 56.1261L166.306 56.3088ZM154.409 56.2589L154.368 55.8603C155.164 55.7773 155.985 55.6693 156.872 55.553L157.51 55.4617L157.568 55.8603L156.93 55.9517C156.034 56.0679 155.214 56.1676 154.409 56.2589ZM186.493 55.6444L186.361 55.2624C187.397 54.9053 188.533 54.789 189.577 54.9385L189.519 55.3371C188.541 55.1959 187.463 55.3039 186.493 55.6444ZM138.591 55.5613C137.555 55.2956 136.527 54.9634 135.549 54.598L135.69 54.2243C136.651 54.5897 137.663 54.9136 138.691 55.1793L138.591 55.5613ZM160.702 55.3205L160.619 54.9302C161.73 54.706 162.733 54.4568 163.678 54.1662L163.794 54.5482C162.841 54.8388 161.829 55.0963 160.702 55.3205ZM166.779 53.4187L166.613 53.0533C167.591 52.5966 168.503 52.0734 169.324 51.4921L169.556 51.8159C168.719 52.4139 167.782 52.9537 166.779 53.4187ZM132.639 53.2776C131.677 52.771 130.765 52.2063 129.919 51.6L130.152 51.2761C130.981 51.8741 131.884 52.4305 132.829 52.9288L132.639 53.2776ZM163.935 50.3875C163.579 49.2581 163.322 48.2449 163.148 47.2899L163.537 47.2151C163.703 48.1536 163.96 49.1501 164.308 50.263L163.935 50.3875ZM171.935 49.6567L171.629 49.3993C172.308 48.602 172.889 47.73 173.345 46.7999L173.701 46.9743C173.237 47.9293 172.64 48.8346 171.935 49.6567ZM163.305 44.1009L162.907 44.0843C162.924 43.6026 162.973 43.1209 163.04 42.6642C163.131 42.0745 163.288 41.4849 163.496 40.9119L163.869 41.0448C163.67 41.5929 163.521 42.1576 163.438 42.7223C163.363 43.1708 163.322 43.6358 163.305 44.1009ZM174.721 43.9099L174.331 43.8434C174.431 43.2953 174.481 42.7389 174.481 42.2074C174.481 41.7174 174.439 41.2275 174.356 40.7541L174.746 40.6877C174.837 41.1776 174.879 41.6925 174.879 42.2074C174.87 42.7638 174.82 43.3369 174.721 43.9099ZM165.403 38.3707L165.096 38.1132C165.842 37.2329 166.712 36.5768 167.682 36.1699L167.84 36.5353C166.928 36.9256 166.116 37.5402 165.403 38.3707ZM173.22 37.9056C172.789 37.2744 172.275 36.8011 171.712 36.5104C171.438 36.3692 171.14 36.2613 170.824 36.1948L170.907 35.8045C171.256 35.8792 171.587 35.9955 171.894 36.1533C172.524 36.4772 173.079 36.9921 173.552 37.6814L173.22 37.9056Z" fill="#092B96"/>
<path d="M244.228 115.363C244.054 115.363 243.888 115.363 243.714 115.363V114.965C244.245 114.973 244.775 114.965 245.314 114.956L245.322 115.354C244.958 115.363 244.593 115.363 244.228 115.363Z" fill="#092B96"/>
<path d="M247.892 42.2655C247.32 41.9583 246.74 41.6759 246.151 41.4185C255.751 47.73 259.101 60.4528 253.554 70.7589C248 81.0733 235.548 85.2589 225.01 80.683C225.541 81.0401 226.097 81.364 226.669 81.6713C237.529 87.5427 251.092 83.4734 256.954 72.5859C262.815 61.7151 258.761 48.1369 247.892 42.2655Z" fill="#1D88D8"/>
<path d="M244.493 40.4302C233.633 34.5588 220.069 38.6281 214.208 49.5072C208.347 60.3864 212.409 73.9728 223.27 79.8442C234.13 85.7157 247.693 81.6464 253.555 70.7672C259.416 59.8798 255.354 46.3016 244.493 40.4302ZM226.262 74.2884C218.461 70.0696 215.543 60.3199 219.754 52.5052C223.966 44.6905 233.699 41.7673 241.5 45.9861C249.302 50.2048 252.22 59.9545 248.008 67.7692C243.805 75.5839 234.064 78.4989 226.262 74.2884Z" fill="#51A9F3"/>
<path d="M217.615 51.3425C223.162 41.0364 235.622 36.8425 246.151 41.4184C245.621 41.0613 245.057 40.7374 244.485 40.4219C233.624 34.5504 220.061 38.6197 214.208 49.4989C208.347 60.3863 212.401 73.9645 223.269 79.8359C223.842 80.1432 224.43 80.4338 225.01 80.683C215.41 74.388 212.069 61.6569 217.615 51.3425Z" fill="#51A9F3"/>
<path opacity="0.05" d="M241.26 45.8531C233.384 41.7672 223.701 44.8566 219.622 52.7377C215.543 60.6271 218.627 70.327 226.495 74.4129C234.371 78.4988 244.054 75.4095 248.133 67.5283C252.212 59.6389 249.136 49.939 241.26 45.8531Z" fill="white"/>
<path d="M247.983 52.4553L217.889 61.4742C217.64 58.5842 218.171 55.5945 219.589 52.8208L241.815 46.1604C244.51 47.6885 246.599 49.8975 247.983 52.4553Z" fill="url(#paint0_linear_74_181)"/>
<path d="M248.141 67.5284C248.066 67.6778 247.983 67.8273 247.9 67.9685L226.461 74.388C222.747 72.4447 220.111 69.2557 218.792 65.6017L249.5 56.4001C250.362 60.0209 249.981 63.9573 248.141 67.5284Z" fill="url(#paint1_linear_74_181)"/>
<path d="M229.341 79.5949L222.241 75.7591L199.045 118.843L206.145 122.679L229.341 79.5949Z" fill="#51A9F3"/>
<path d="M319.315 67.8024V63.5837C319.315 62.6618 318.569 61.9227 317.657 61.9227H315.51C314.498 61.9227 313.619 61.2584 313.304 60.3033C313.047 59.5393 312.741 58.7919 312.384 58.0777C311.928 57.1724 312.086 56.0762 312.799 55.362L314.316 53.8423C314.962 53.1945 314.962 52.1398 314.316 51.4837L311.331 48.4941C310.684 47.8463 309.632 47.8463 308.977 48.4941L307.459 50.0138C306.747 50.728 305.652 50.8858 304.748 50.429C304.036 50.0719 303.298 49.7647 302.527 49.5072C301.565 49.1833 300.91 48.3113 300.91 47.2982V45.1473C300.91 44.2254 300.164 43.4863 299.252 43.4863H295.04C294.12 43.4863 293.374 44.2337 293.374 45.1473V47.2982C293.374 48.3113 292.711 49.1916 291.757 49.5072C290.995 49.7647 290.249 50.0719 289.536 50.429C288.632 50.8858 287.538 50.728 286.825 50.0138L285.307 48.4941C284.661 47.8463 283.608 47.8463 282.953 48.4941L279.968 51.4837C279.322 52.1315 279.322 53.1862 279.968 53.8423L281.486 55.362C282.198 56.0762 282.356 57.1724 281.9 58.0777C281.544 58.7919 281.237 59.531 280.98 60.3033C280.656 61.2667 279.786 61.9227 278.775 61.9227H276.627C275.707 61.9227 274.969 62.6701 274.969 63.5837V67.8024C274.969 68.7243 275.715 69.4717 276.627 69.4717H278.775C279.786 69.4717 280.665 70.1361 280.98 71.0911C281.237 71.8551 281.544 72.6026 281.9 73.3168C282.356 74.222 282.198 75.3182 281.486 76.0324L279.968 77.5521C279.322 78.1999 279.322 79.2546 279.968 79.9107L282.953 82.9004C283.6 83.5481 284.652 83.5481 285.307 82.9004L286.825 81.3806C287.538 80.6664 288.632 80.5086 289.536 80.9654C290.249 81.3225 290.986 81.6297 291.757 81.8872C292.719 82.2111 293.374 83.0831 293.374 84.0962V86.2471C293.374 87.169 294.12 87.9081 295.04 87.9081H299.252C300.172 87.9081 300.91 87.1607 300.91 86.2471V84.0962C300.91 83.0831 301.573 82.2028 302.527 81.8872C303.289 81.6297 304.036 81.3225 304.748 80.9654C305.652 80.5086 306.747 80.6664 307.459 81.3806L308.977 82.9004C309.623 83.5481 310.676 83.5481 311.331 82.9004L314.316 79.9107C314.962 79.2629 314.962 78.2082 314.316 77.5521L312.799 76.0324C312.086 75.3182 311.928 74.222 312.384 73.3168C312.741 72.6026 313.047 71.8634 313.304 71.0911C313.628 70.1278 314.498 69.4717 315.51 69.4717H317.657C318.569 69.4717 319.315 68.7243 319.315 67.8024ZM297.138 70.7921C294.327 70.7921 292.048 68.5083 292.048 65.6931C292.048 62.8778 294.327 60.594 297.138 60.594C299.948 60.594 302.228 62.8778 302.228 65.6931C302.228 68.5083 299.948 70.7921 297.138 70.7921Z" fill="#1D88D8"/>
<path d="M340.024 94.0619V91.6701C340.024 91.1469 339.601 90.7317 339.087 90.7317H337.877C337.305 90.7317 336.807 90.358 336.625 89.8099C336.484 89.378 336.31 88.9545 336.103 88.5559C335.846 88.041 335.929 87.4264 336.335 87.0195L337.197 86.1558C337.562 85.7904 337.562 85.1925 337.197 84.8271L335.514 83.1412C335.149 82.7758 334.552 82.7758 334.188 83.1412L333.325 84.0049C332.919 84.4118 332.306 84.4949 331.792 84.2374C331.386 84.0381 330.971 83.8637 330.54 83.7142C330.001 83.5315 329.62 83.0333 329.62 82.4602V81.2478C329.62 80.7246 329.197 80.3093 328.683 80.3093H326.295C325.773 80.3093 325.358 80.7329 325.358 81.2478V82.4602C325.358 83.0333 324.985 83.5315 324.438 83.7142C324.007 83.8554 323.584 84.0298 323.186 84.2374C322.672 84.4949 322.059 84.4118 321.653 84.0049L320.79 83.1412C320.426 82.7758 319.829 82.7758 319.464 83.1412L317.781 84.8271C317.416 85.1925 317.416 85.7904 317.781 86.1558L318.643 87.0195C319.049 87.4264 319.132 88.041 318.875 88.5559C318.676 88.9628 318.502 89.378 318.353 89.8099C318.171 90.3497 317.673 90.7317 317.101 90.7317H315.891C315.368 90.7317 314.954 91.1552 314.954 91.6701V94.0619C314.954 94.5851 315.377 95.0003 315.891 95.0003H317.101C317.673 95.0003 318.171 95.374 318.353 95.9221C318.494 96.354 318.668 96.7775 318.875 97.1761C319.132 97.691 319.049 98.3056 318.643 98.7125L317.781 99.5762C317.416 99.9416 317.416 100.54 317.781 100.905L319.464 102.591C319.829 102.956 320.426 102.956 320.79 102.591L321.653 101.727C322.059 101.32 322.672 101.237 323.186 101.495C323.592 101.694 324.007 101.868 324.438 102.018C324.977 102.2 325.358 102.699 325.358 103.272V104.484C325.358 105.007 325.781 105.423 326.295 105.423H328.683C329.205 105.423 329.62 104.999 329.62 104.484V103.272C329.62 102.699 329.993 102.2 330.54 102.018C330.971 101.877 331.394 101.702 331.792 101.495C332.306 101.237 332.919 101.32 333.325 101.727L334.188 102.591C334.552 102.956 335.149 102.956 335.514 102.591L337.197 100.905C337.562 100.54 337.562 99.9416 337.197 99.5762L336.335 98.7125C335.929 98.3056 335.846 97.691 336.103 97.1761C336.302 96.7692 336.476 96.354 336.625 95.9221C336.807 95.3823 337.305 95.0003 337.877 95.0003H339.087C339.61 95.0086 340.024 94.5851 340.024 94.0619ZM327.481 97.8903C324.712 97.8903 322.473 95.6481 322.473 92.8743C322.473 90.1005 324.712 87.8583 327.481 87.8583C330.25 87.8583 332.488 90.1005 332.488 92.8743C332.488 95.6398 330.25 97.8903 327.481 97.8903Z" fill="#51A9F3"/>
<path d="M348.48 66.9056V64.5138C348.48 63.9906 348.058 63.5754 347.544 63.5754H346.333C345.761 63.5754 345.264 63.2017 345.081 62.6536C344.94 62.2217 344.766 61.7982 344.559 61.3996C344.302 60.8847 344.385 60.2701 344.791 59.8632L345.653 58.9995C346.018 58.6341 346.018 58.0362 345.653 57.6708L343.97 55.9849C343.606 55.6195 343.009 55.6195 342.644 55.9849L341.782 56.8486C341.376 57.2555 340.762 57.3386 340.248 57.0811C339.842 56.8818 339.427 56.7074 338.996 56.5579C338.457 56.3752 338.076 55.8769 338.076 55.3039V54.0914C338.076 53.5682 337.653 53.153 337.139 53.153H334.735C334.213 53.153 333.798 53.5766 333.798 54.0914V55.3039C333.798 55.8769 333.425 56.3752 332.878 56.5579C332.447 56.6991 332.024 56.8735 331.626 57.0811C331.112 57.3386 330.498 57.2555 330.092 56.8486L329.23 55.9849C328.865 55.6195 328.268 55.6195 327.904 55.9849L326.221 57.6708C325.856 58.0362 325.856 58.6341 326.221 58.9995L327.083 59.8632C327.489 60.2701 327.572 60.8847 327.315 61.3996C327.116 61.8065 326.942 62.2217 326.793 62.6536C326.61 63.1934 326.113 63.5754 325.541 63.5754H324.33C323.808 63.5754 323.394 63.9989 323.394 64.5138V66.9056C323.394 67.4288 323.816 67.844 324.33 67.844H325.541C326.113 67.844 326.61 68.2177 326.793 68.7658C326.934 69.1977 327.108 69.6212 327.315 70.0198C327.572 70.5347 327.489 71.1493 327.083 71.5562L326.221 72.4199C325.856 72.7853 325.856 73.3832 326.221 73.7486L327.904 75.4345C328.268 75.7999 328.865 75.7999 329.23 75.4345L330.092 74.5708C330.498 74.1639 331.112 74.0808 331.626 74.3383C332.032 74.5376 332.447 74.712 332.878 74.8615C333.417 75.0442 333.798 75.5424 333.798 76.1155V77.3279C333.798 77.8511 334.221 78.2664 334.735 78.2664H337.123C337.645 78.2664 338.059 77.8428 338.059 77.3279V76.1155C338.059 75.5424 338.432 75.0442 338.98 74.8615C339.411 74.7203 339.834 74.5459 340.231 74.3383C340.745 74.0808 341.359 74.1639 341.765 74.5708L342.627 75.4345C342.992 75.7999 343.589 75.7999 343.954 75.4345L345.637 73.7486C346.002 73.3832 346.002 72.7853 345.637 72.4199L344.775 71.5562C344.368 71.1493 344.285 70.5347 344.542 70.0198C344.741 69.6129 344.916 69.1977 345.065 68.7658C345.247 68.226 345.745 67.844 346.317 67.844H347.527C348.058 67.844 348.48 67.4205 348.48 66.9056ZM335.929 68.2343C334.536 68.2343 333.408 67.1049 333.408 65.7097C333.408 64.3145 334.536 63.1851 335.929 63.1851C337.321 63.1851 338.449 64.3145 338.449 65.7097C338.449 67.1049 337.321 68.2343 335.929 68.2343Z" fill="#2B56E0"/>
<path d="M74.7881 142.893C74.7881 142.893 50.779 111.518 0 114.749C0 114.749 26.9108 146.996 74.7881 142.893Z" fill="#1D88D8"/>
<path d="M60.1221 121.55C60.1221 121.55 65.3202 82.3606 27.151 48.6519C27.151 48.6519 23.3954 90.5158 60.1221 121.55Z" fill="#7DC4F9"/>
<path d="M56.408 126.616C56.408 126.616 90.233 108.288 94.9171 58.85C94.9171 58.8417 59.8153 79.8359 56.408 126.616Z" fill="#7DC4F9"/>
<path d="M64.0852 123.834C64.0852 123.834 35.9143 106.519 46.1862 97.7325C53.8797 91.1552 38.7082 82.7176 44.4866 79.4539C50.2568 76.1902 51.4589 79.1882 49.4277 70.7755C47.3966 62.3712 54.1699 60.0874 56.6156 51.5252C59.0612 42.9714 71.1321 46.1106 70.245 58.5427C69.3663 70.9748 72.9975 57.8036 76.9935 63.0355C80.9895 68.2675 67.7247 88.4147 72.7653 86.6956C77.8059 84.9765 81.6941 88.8216 79.9449 94.8923C75.8825 109.085 64.0852 123.834 64.0852 123.834Z" fill="#1D88D8"/>
<path opacity="0.39" d="M65.0634 130.063C65.0137 130.038 64.9805 129.996 64.9722 129.938C63.082 120.346 60.7938 107.682 59.8653 94.8591L59.857 94.7594L59.7824 94.693C56.8725 92.2016 54.3273 89.2451 51.8733 86.3966C51.0608 85.4582 50.2484 84.5114 49.4276 83.5896C49.3779 83.5398 49.3779 83.4983 49.411 83.4484C49.4608 83.382 49.5769 83.3322 49.6681 83.3737C49.6929 83.382 49.7095 83.3986 49.7261 83.4235C50.5303 84.3287 51.3261 85.2506 52.122 86.1724C54.3936 88.805 56.7398 91.5289 59.3845 93.8957L59.8238 94.2861L59.7824 93.6964C59.4259 88.2901 59.3098 82.7592 59.4093 76.7964V76.6386L59.2684 76.5722C59.2352 76.5556 59.2187 76.5473 59.2104 76.5223C56.9471 73.1091 55.0071 69.4634 53.4319 65.693C53.407 65.6266 53.4153 65.5768 53.4568 65.5352C53.5148 65.4771 53.6143 65.4605 53.6723 65.4937C53.7055 65.5103 53.7304 65.5352 53.747 65.5768C55.1895 69.0398 56.9471 72.4032 58.9865 75.5673L59.4093 76.2317L59.4259 75.4427C59.5586 69.8122 59.8819 63.9906 60.4208 57.6541C60.429 57.5794 60.4622 57.5627 60.4705 57.5544C60.5202 57.5295 60.5949 57.5295 60.6529 57.5627C60.7275 57.596 60.7607 57.6541 60.7524 57.7371C60.0145 66.3989 59.6746 74.2386 59.7078 81.6795V82.1529L60.0891 81.8789C64.367 78.7895 67.9568 74.9528 70.7424 70.4682C70.7755 70.4184 70.8087 70.3935 70.875 70.4267C70.933 70.4516 70.9828 70.5097 70.9994 70.5762C71.016 70.626 71.0077 70.6841 70.9745 70.734C68.0811 75.3846 64.3338 79.3376 59.8487 82.4851L59.7244 82.5598V82.701C59.7575 86.8866 59.9068 90.7566 60.1721 94.5435L60.1803 94.6099L60.2218 94.6681C60.255 94.7179 60.255 94.7677 60.2301 94.8259L60.1969 94.884L60.2052 94.9504C60.4456 98.2972 60.8021 101.802 61.283 105.68L61.3659 106.311L61.7224 105.78C65.1132 100.797 68.8107 95.9719 72.7072 91.4375C72.7652 91.3711 72.8316 91.3545 72.9062 91.396C72.9642 91.4209 73.0057 91.4791 73.0139 91.5289C73.0222 91.5538 73.0222 91.587 72.9725 91.6369C68.8604 96.4204 64.9971 101.495 61.4736 106.726L61.4239 106.801L61.4322 106.893C62.311 113.677 63.5463 121.002 65.3121 129.938C65.3287 130.021 65.2955 130.046 65.279 130.054C65.2292 130.088 65.1297 130.096 65.0634 130.063Z" fill="#092B96"/>
<path d="M67.8987 124.93C67.8987 124.93 35.508 137.396 34.7618 123.22C34.1981 112.598 17.4928 119.873 18.4628 112.98C19.4328 106.079 22.6909 106.984 14.3922 103.322C6.09347 99.6509 8.52257 92.5338 2.96798 85.0347C-2.59491 77.5355 7.72669 69.4634 17.5094 78.1335C27.2921 86.8036 18.6452 75.3597 25.5594 75.368C32.4654 75.368 40.7641 99.3104 42.5548 93.9954C44.3456 88.6887 50.0245 87.8998 53.9542 93.2314C63.1483 105.663 67.8987 124.93 67.8987 124.93Z" fill="#51A9F3"/>
<path opacity="0.39" d="M73.702 128.086C73.6523 128.111 73.5942 128.111 73.5362 128.078C64.3421 123.535 52.3458 117.365 41.0874 109.949L40.9962 109.891L40.8884 109.915C36.9588 110.754 32.8799 110.995 28.9336 111.219C27.632 111.294 26.3304 111.369 25.0371 111.468C24.9625 111.477 24.9293 111.452 24.9127 111.385C24.8879 111.294 24.921 111.17 25.0122 111.128C25.0371 111.12 25.062 111.111 25.0868 111.111C26.3553 111.02 27.632 110.945 28.9004 110.871C32.54 110.655 36.3038 110.43 39.9599 109.733L40.5651 109.617L40.0511 109.276C35.3255 106.12 30.6497 102.69 25.7584 98.8038L25.6257 98.7042L25.4765 98.7789C25.4433 98.7955 25.4268 98.7955 25.3936 98.7955C21.1074 98.5049 16.8379 97.799 12.6926 96.7027C12.618 96.6861 12.5849 96.6446 12.5766 96.5782C12.5683 96.4951 12.618 96.3955 12.6843 96.3706C12.7175 96.354 12.7507 96.354 12.8004 96.3623C16.5974 97.3671 20.5188 98.0398 24.4568 98.3637L25.2775 98.4301L24.6309 97.9152C20.0297 94.2113 15.3953 90.2251 10.4625 85.7323C10.4045 85.6824 10.4128 85.6409 10.4128 85.6243C10.4211 85.5662 10.4708 85.508 10.5371 85.4748C10.6117 85.4416 10.6863 85.4499 10.7444 85.508C17.4845 91.6535 23.7852 96.9353 30.0031 101.669L30.3927 101.968L30.4093 101.478C30.5668 95.9304 29.6632 90.4908 27.7149 85.3004C27.69 85.2423 27.69 85.2008 27.7647 85.1675C27.8227 85.1343 27.9056 85.1343 27.9636 85.1592C28.0217 85.1842 28.0548 85.2174 28.0797 85.2755C30.1026 90.6569 30.9979 96.3041 30.7575 102.068L30.7409 102.217L30.857 102.3C34.3639 104.941 37.68 107.291 40.9962 109.484L41.0542 109.525H41.1289C41.1869 109.525 41.2366 109.558 41.2615 109.617L41.2947 109.683L41.3527 109.724C44.2875 111.659 47.4379 113.603 50.9696 115.671L51.5499 116.011L51.3427 115.372C49.3613 109.359 47.7032 103.197 46.4182 97.0515C46.4016 96.9602 46.4347 96.8938 46.5176 96.8605C46.5757 96.8273 46.6503 96.8273 46.7 96.8522C46.7249 96.8605 46.7498 96.8855 46.7663 96.9519C48.1177 103.438 49.8753 109.907 51.981 116.186L52.0142 116.277L52.0971 116.327C58.3067 119.923 65.1877 123.568 73.7517 127.804C73.8264 127.845 73.8264 127.887 73.8264 127.903C73.8264 127.97 73.7683 128.053 73.702 128.086Z" fill="#092B96"/>
<path d="M302.883 96.1795H49.2537C46.8661 96.1795 44.9344 98.1145 44.9344 100.506L44.4121 224.396C44.4121 226.787 46.3438 228.722 48.7314 228.722L302.883 226.629C305.271 226.629 307.203 224.694 307.203 222.303V100.506C307.203 98.1228 305.271 96.1795 302.883 96.1795Z" fill="white"/>
<path d="M274.099 131.175H73.6522C71.6625 131.175 70.0459 132.795 70.0459 134.788V153.515C70.0459 155.508 71.6625 157.128 73.6522 157.128H274.09C276.08 157.128 277.697 155.508 277.697 153.515V134.788C277.705 132.795 276.088 131.175 274.099 131.175Z" fill="#D8E8EF"/>
<path d="M119.125 131.175H73.6522C71.6625 131.175 70.0459 132.795 70.0459 134.788V153.515C70.0459 155.508 71.6625 157.128 73.6522 157.128H119.125C121.148 157.128 122.79 155.483 122.79 153.457V134.854C122.798 132.82 121.156 131.175 119.125 131.175Z" fill="#51A9F3"/>
<path d="M102.404 170.664H76.7281C74.3985 170.664 72.5083 172.558 72.5083 174.891V200.611C72.5083 202.944 74.3985 204.838 76.7281 204.838H102.404C104.733 204.838 106.623 202.944 106.623 200.611V174.891C106.623 172.558 104.733 170.664 102.404 170.664Z" fill="#7DC4F9"/>
<path d="M170.128 170.664H144.453C142.123 170.664 140.233 172.558 140.233 174.891V200.611C140.233 202.944 142.123 204.838 144.453 204.838H170.128C172.458 204.838 174.348 202.944 174.348 200.611V174.891C174.348 172.558 172.458 170.664 170.128 170.664Z" fill="#1D88D8"/>
<path d="M111.05 174.343C110.76 174.343 110.52 174.102 110.52 173.812C110.52 173.521 110.76 173.28 111.05 173.28H133.7C133.99 173.28 134.23 173.521 134.23 173.812C134.23 174.102 133.99 174.343 133.7 174.343H111.05Z" fill="#ABD0DD"/>
<path d="M111.05 179.858C110.76 179.858 110.52 179.617 110.52 179.326C110.52 179.035 110.76 178.795 111.05 178.795H133.7C133.99 178.795 134.23 179.035 134.23 179.326C134.23 179.617 133.99 179.858 133.7 179.858H111.05Z" fill="#ABD0DD"/>
<path d="M111.05 185.372C110.76 185.372 110.52 185.131 110.52 184.84C110.52 184.55 110.76 184.309 111.05 184.309H133.7C133.99 184.309 134.23 184.55 134.23 184.84C134.23 185.131 133.99 185.372 133.7 185.372H111.05Z" fill="#ABD0DD"/>
<path d="M111.05 190.886C110.76 190.886 110.52 190.645 110.52 190.355C110.52 190.064 110.76 189.823 111.05 189.823H133.7C133.99 189.823 134.23 190.064 134.23 190.355C134.23 190.645 133.99 190.886 133.7 190.886H111.05Z" fill="#ABD0DD"/>
<path d="M111.05 196.409C110.76 196.409 110.52 196.168 110.52 195.877C110.52 195.587 110.76 195.346 111.05 195.346H133.7C133.99 195.346 134.23 195.587 134.23 195.877C134.23 196.168 133.99 196.409 133.7 196.409H111.05Z" fill="#ABD0DD"/>
<path d="M111.05 201.923C110.76 201.923 110.52 201.682 110.52 201.392C110.52 201.101 110.76 200.86 111.05 200.86H120.742C121.032 200.86 121.272 201.101 121.272 201.392C121.272 201.682 121.032 201.923 120.742 201.923H111.05Z" fill="#ABD0DD"/>
<path d="M180.093 174.343C179.803 174.343 179.562 174.102 179.562 173.812C179.562 173.521 179.803 173.28 180.093 173.28H202.743C203.033 173.28 203.273 173.521 203.273 173.812C203.273 174.102 203.033 174.343 202.743 174.343H180.093Z" fill="#ABD0DD"/>
<path d="M180.093 179.858C179.803 179.858 179.562 179.617 179.562 179.326C179.562 179.035 179.803 178.795 180.093 178.795H202.743C203.033 178.795 203.273 179.035 203.273 179.326C203.273 179.617 203.033 179.858 202.743 179.858H180.093Z" fill="#ABD0DD"/>
<path d="M180.093 185.372C179.803 185.372 179.562 185.131 179.562 184.84C179.562 184.55 179.803 184.309 180.093 184.309H202.743C203.033 184.309 203.273 184.55 203.273 184.84C203.273 185.131 203.033 185.372 202.743 185.372H180.093Z" fill="#ABD0DD"/>
<path d="M180.093 190.886C179.803 190.886 179.562 190.645 179.562 190.355C179.562 190.064 179.803 189.823 180.093 189.823H202.743C203.033 189.823 203.273 190.064 203.273 190.355C203.273 190.645 203.033 190.886 202.743 190.886H180.093Z" fill="#ABD0DD"/>
<path d="M180.093 196.409C179.803 196.409 179.562 196.168 179.562 195.877C179.562 195.587 179.803 195.346 180.093 195.346H202.743C203.033 195.346 203.273 195.587 203.273 195.877C203.273 196.168 203.033 196.409 202.743 196.409H180.093Z" fill="#ABD0DD"/>
<path d="M180.093 201.923C179.803 201.923 179.562 201.682 179.562 201.392C179.562 201.101 179.803 200.86 180.093 200.86H189.785C190.075 200.86 190.315 201.101 190.315 201.392C190.315 201.682 190.075 201.923 189.785 201.923H180.093Z" fill="#ABD0DD"/>
<path d="M239.76 170.664H214.084C211.754 170.664 209.864 172.558 209.864 174.891V200.611C209.864 202.944 211.754 204.838 214.084 204.838H239.76C242.089 204.838 243.979 202.944 243.979 200.611V174.891C243.979 172.558 242.089 170.664 239.76 170.664Z" fill="#092B96"/>
<path d="M249.733 174.343C249.443 174.343 249.203 174.102 249.203 173.812C249.203 173.521 249.443 173.28 249.733 173.28H272.383C272.673 173.28 272.913 173.521 272.913 173.812C272.913 174.102 272.673 174.343 272.383 174.343H249.733Z" fill="#ABD0DD"/>
<path d="M249.733 179.858C249.443 179.858 249.202 179.617 249.202 179.326C249.202 179.035 249.443 178.795 249.733 178.795H272.382C272.673 178.795 272.913 179.035 272.913 179.326C272.913 179.617 272.673 179.858 272.382 179.858H249.733Z" fill="#ABD0DD"/>
<path d="M249.733 185.372C249.443 185.372 249.202 185.131 249.202 184.84C249.202 184.55 249.443 184.309 249.733 184.309H272.382C272.673 184.309 272.913 184.55 272.913 184.84C272.913 185.131 272.673 185.372 272.382 185.372H249.733Z" fill="#ABD0DD"/>
<path d="M249.733 190.886C249.443 190.886 249.202 190.645 249.202 190.355C249.202 190.064 249.443 189.823 249.733 189.823H272.382C272.673 189.823 272.913 190.064 272.913 190.355C272.913 190.645 272.673 190.886 272.382 190.886H249.733Z" fill="#ABD0DD"/>
<path d="M249.733 196.409C249.443 196.409 249.202 196.168 249.202 195.877C249.202 195.587 249.443 195.346 249.733 195.346H272.382C272.673 195.346 272.913 195.587 272.913 195.877C272.913 196.168 272.673 196.409 272.382 196.409H249.733Z" fill="#ABD0DD"/>
<path d="M249.733 201.923C249.443 201.923 249.202 201.682 249.202 201.392C249.202 201.101 249.443 200.86 249.733 200.86H259.425C259.715 200.86 259.955 201.101 259.955 201.392C259.955 201.682 259.715 201.923 259.425 201.923H249.733Z" fill="#ABD0DD"/>
<path fill-rule="evenodd" clip-rule="evenodd" d="M301.316 103.014H294.642C294.278 103.014 293.979 103.313 293.979 103.679C293.979 104.044 294.278 104.343 294.642 104.343H301.316C301.681 104.343 301.98 104.044 301.98 103.679C301.971 103.305 301.673 103.014 301.316 103.014Z" fill="#51A9F3"/>
<path fill-rule="evenodd" clip-rule="evenodd" d="M301.316 106.162H294.642C294.278 106.162 293.979 106.461 293.979 106.826C293.979 107.192 294.278 107.49 294.642 107.49H301.316C301.681 107.49 301.98 107.192 301.98 106.826C301.971 106.461 301.673 106.162 301.316 106.162Z" fill="#51A9F3"/>
<path fill-rule="evenodd" clip-rule="evenodd" d="M301.316 109.259H294.642C294.278 109.259 293.979 109.558 293.979 109.924C293.979 110.289 294.278 110.588 294.642 110.588H301.316C301.681 110.588 301.98 110.289 301.98 109.924C301.971 109.558 301.673 109.259 301.316 109.259Z" fill="#51A9F3"/>
<path d="M60.7192 106.419C60.7192 108.047 59.4011 109.359 57.7844 109.359C56.1595 109.359 54.8496 108.039 54.8496 106.419C54.8496 104.791 56.1678 103.479 57.7844 103.479C59.4094 103.479 60.7192 104.8 60.7192 106.419Z" fill="#51A9F3"/>
<path d="M76.5955 106.419C76.5955 108.047 75.2773 109.359 73.6606 109.359C72.0357 109.359 70.7258 108.039 70.7258 106.419C70.7258 104.791 72.044 103.479 73.6606 103.479C75.2773 103.479 76.5955 104.8 76.5955 106.419Z" fill="#092B96"/>
<path d="M92.8201 106.419C92.8201 108.047 91.5019 109.359 89.8853 109.359C88.2603 109.359 86.9504 108.039 86.9504 106.419C86.9504 104.791 88.2686 103.479 89.8853 103.479C91.5019 103.479 92.8201 104.8 92.8201 106.419Z" fill="#1D88D8"/>
<path d="M166.091 191.152L158.588 180.455C157.767 179.293 156.051 179.293 155.23 180.455L147.727 191.152C146.774 192.514 147.744 194.391 149.402 194.391H164.408C166.074 194.382 167.044 192.506 166.091 191.152Z" fill="#092B96"/>
<path d="M226.735 197.87C231.607 197.87 235.556 193.914 235.556 189.034C235.556 184.154 231.607 180.198 226.735 180.198C221.864 180.198 217.914 184.154 217.914 189.034C217.914 193.914 221.864 197.87 226.735 197.87Z" fill="#1D88D8"/>
<path d="M356 231.629C356 227.003 278.915 223.258 183.824 223.258C88.7326 223.258 11.6481 227.011 11.6481 231.629C11.6481 236.255 88.7326 240 183.824 240C278.915 240 356 236.255 356 231.629Z" fill="#CCF2FF"/>
<path fill-rule="evenodd" clip-rule="evenodd" d="M161.639 73.6323C161.349 71.6392 160.271 67.2709 156.548 68.7907C149.278 65.9754 146.028 69.5298 145.514 74.2635C144.867 80.2013 141.534 82.5847 142.77 84.2872C144.312 86.4215 149.079 89.5358 154.003 89.6437C159.143 89.7434 163.653 85.5827 165.013 83.3239C166.091 81.5217 162.501 79.5535 161.639 73.6323Z" fill="#092B96"/>
<path fill-rule="evenodd" clip-rule="evenodd" d="M186.294 103.239C183.691 98.4883 173.461 87.7254 172.317 87.3351C169.117 86.2471 164.043 85.7572 161.042 85.4997C159.085 85.1758 153.589 85.234 153.589 85.234L151.408 85.2672C148.59 85.2672 140.755 85.616 135.209 87.5012C134.065 87.8915 123.486 98.4882 120.883 103.23C120.269 104.351 120.22 105.705 120.75 106.868L131.901 129.249L137.455 128.061L133.053 108.753C132.738 107.266 133.211 105.713 134.305 104.7L141.385 96.3539H151.4H165.684L172.847 104.7C173.933 105.713 174.414 107.266 174.099 108.753L169.697 128.061L175.351 128.858L186.402 106.868C186.949 105.722 186.908 104.36 186.294 103.239Z" fill="#51A9F3"/>
<path fill-rule="evenodd" clip-rule="evenodd" d="M136.95 128.178L139.362 130.262C139.686 130.536 139.52 131.084 139.105 131.117L138.086 131.2L138.757 133.003C139.453 134.879 135.557 137.745 133.949 134.041L132.307 129.174L136.95 128.178Z" fill="#FFA683"/>
<path fill-rule="evenodd" clip-rule="evenodd" d="M170.327 128.161L167.832 130.27C167.508 130.544 167.674 131.092 168.089 131.126L169.108 131.209L168.437 133.011C167.74 134.888 171.637 137.753 173.245 134.049L174.97 128.809L170.327 128.161Z" fill="#FFA683"/>
<path fill-rule="evenodd" clip-rule="evenodd" d="M159.931 76.2316L160.022 80.7494C160.055 82.4269 159.4 84.038 158.207 85.2173C158.008 85.4 157.817 85.591 157.618 85.7903C155.554 87.8166 152.271 87.8831 150.123 85.9398L149.518 85.3917C148.275 84.2705 147.553 82.6927 147.52 81.0151L147.429 76.4891C147.429 76.4891 153.779 76.4309 156.209 73.408C156.192 73.408 157.419 75.7499 159.931 76.2316Z" fill="#FFA683"/>
<path fill-rule="evenodd" clip-rule="evenodd" d="M159.931 76.2316L160.022 80.7494C160.055 82.4269 159.4 84.038 158.207 85.2173C158.008 85.4 157.817 85.591 157.618 85.7903C155.554 87.8166 152.271 87.8831 150.123 85.9398L149.518 85.3917C148.275 84.2705 147.553 82.6926 147.52 81.0151L147.429 76.4891C147.429 76.4891 153.721 76.4309 156.15 73.4163C156.142 73.4163 157.419 75.7499 159.931 76.2316Z" fill="#FFA683"/>
<path fill-rule="evenodd" clip-rule="evenodd" d="M149.087 81.8705C150.256 79.9023 148.175 77.9009 146.26 79.1466C146.111 79.2462 145.978 79.3791 145.887 79.5286C144.71 81.4968 146.799 83.5066 148.714 82.2525C148.863 82.1612 148.987 82.02 149.087 81.8705Z" fill="#FFA683"/>
<path fill-rule="evenodd" clip-rule="evenodd" d="M161.539 81.6131C162.683 79.6947 160.727 77.7348 158.845 78.8061C158.596 78.9473 158.389 79.1632 158.256 79.4123C157.261 81.3307 159.293 83.2159 161.166 81.9951C161.315 81.9037 161.448 81.7709 161.539 81.6131Z" fill="#FFA683"/>
<path fill-rule="evenodd" clip-rule="evenodd" d="M157.361 86.2388C157.361 84.2623 155.777 82.6595 153.821 82.6595C151.864 82.6595 150.281 84.2623 150.281 86.2388C150.281 88.2153 151.864 90.2334 153.821 90.2334C155.769 90.2334 157.361 88.2153 157.361 86.2388Z" fill="#FFA683"/>
<path fill-rule="evenodd" clip-rule="evenodd" d="M150.289 86.0727C150.289 86.1308 150.272 86.1807 150.272 86.2388C150.272 86.38 152.113 88.2236 153.912 88.2236C155.653 88.2153 157.361 86.3717 157.361 86.2388C157.361 86.1724 157.344 86.1059 157.344 86.0312C155.321 87.7669 152.337 87.7918 150.289 86.0727Z" fill="#EF7F5E"/>
<path d="M137.472 128.069L133.07 108.761C132.755 107.275 133.227 105.722 134.322 104.708L141.402 96.3622C141.402 96.3622 142.969 93.6632 142.189 94.0119C141.402 94.3607 130.956 103.388 129.994 105.572C129.265 107.233 133.393 121.733 135.399 128.518L137.472 128.069Z" fill="#1D88D8"/>
<path d="M172.317 87.335C172.126 87.2685 171.935 87.2104 171.736 87.1523C173.759 89.5357 186.046 104.185 184.686 107.225C183.459 109.965 175.79 123.884 173.436 128.601L175.368 128.875L186.419 106.884C186.949 105.722 186.9 104.36 186.286 103.247C183.691 98.4882 173.461 87.7253 172.317 87.335Z" fill="#1D88D8"/>
<path d="M69.9961 196.035L70.6262 197.812L80.0275 196.849C80.0275 196.849 90.3906 210.078 94.685 214.579C95.1327 215.045 95.6384 215.609 96.1524 216.24C98.8883 209.597 104.435 188.661 98.7971 187C90.4818 184.55 69.9961 196.035 69.9961 196.035Z" fill="#092B96"/>
<path d="M88.8403 207.828C91.0705 210.518 93.2343 213.06 94.6934 214.596C95.1411 215.061 95.6468 215.626 96.1608 216.257C97.8686 212.121 100.663 202.446 101.16 195.329C99.2863 195.603 92.9441 202.895 88.8403 207.828Z" fill="#052575"/>
<path d="M80.0359 196.857C80.0359 196.857 90.399 210.087 94.6934 214.596C98.9962 219.105 108.82 232.443 82.407 231.413C55.9936 230.391 43.9974 226.322 43.9974 226.322L43.4502 220.575L71.0905 217.635C71.0905 217.635 53.8216 215.617 55.9356 199.315L80.0359 196.857Z" fill="#173ACC"/>
<path d="M80.5334 198.9L81.0059 198.078C83.6754 201.458 91.1949 210.917 94.7017 214.588C96.393 216.365 98.9382 219.504 99.8004 222.593C97.7775 217.885 91.5597 213.483 86.2704 208.309C79.4142 201.641 80.5334 198.9 80.5334 198.9Z" fill="#2B56E0"/>
<path d="M38.6748 221.779C38.6748 221.779 38.5919 221.788 38.4344 221.796C37.4893 221.871 34.8778 222.012 34.3472 223.191C33.7337 224.562 33.5182 231.355 37.9536 231.562C42.389 231.77 37.1328 228.224 38.6417 226.762L38.6748 221.779Z" fill="#092B96"/>
<path d="M43.4502 220.584L71.0905 217.644C71.0905 217.644 74.0917 218.939 83.377 222.635C89.0145 224.877 94.8841 227.161 98.1174 228.656C95.7629 230.566 91.0042 231.753 82.3987 231.421C55.9854 230.4 43.9891 226.331 43.9891 226.331L43.4502 220.584Z" fill="#092B96"/>
<path d="M43.9976 226.331C43.9976 226.331 40.6565 224.927 38.8741 226.812C36.3206 229.52 38.6668 221.788 38.6668 221.788L43.4421 220.592L43.9976 226.331Z" fill="#FFA683"/>
<path d="M106.408 152.867L98.3662 146.232C98.0926 146.008 98.0097 145.617 98.1672 145.302C99.5849 142.412 98.7807 138.783 95.9537 136.823C93.3671 135.029 89.7939 135.311 87.5223 137.487C87.0746 137.919 86.7016 138.392 86.3948 138.899C84.7201 141.689 85.2839 145.368 87.8539 147.511C90.2748 149.529 93.6987 149.545 96.1278 147.743C96.2024 147.685 96.2853 147.644 96.3765 147.619C96.6169 147.552 96.8822 147.602 97.0812 147.768L105.123 154.404C105.338 154.578 105.595 154.653 105.852 154.628C106.109 154.603 106.35 154.487 106.524 154.271C106.889 153.847 106.831 153.216 106.408 152.867ZM95.9288 145.501C94.1961 147.586 91.1038 147.868 89.0146 146.132C86.9337 144.397 86.6518 141.299 88.3845 139.206C90.1172 137.122 93.2096 136.839 95.2988 138.575C97.3797 140.311 97.6615 143.417 95.9288 145.501Z" fill="white"/>
<path d="M95.2985 138.575C93.2176 136.839 90.1252 137.122 88.3842 139.206C86.6515 141.291 86.9334 144.388 89.0143 146.132C91.0952 147.868 94.1875 147.586 95.9285 145.501C97.6612 143.417 97.3794 140.311 95.2985 138.575Z" fill="#51A9F3"/>
<path d="M102.105 148.898C101.392 148.798 100.596 149.363 99.8999 150.06C99.7009 149.379 99.3361 148.375 98.9714 148.217C98.4076 147.984 97.7444 152.651 97.7444 152.651L98.1423 152.311C98.076 152.411 98.0428 152.469 98.0428 152.469L101.956 154.503C104.46 151.057 103.888 149.139 102.105 148.898Z" fill="#FFA683"/>
<path d="M55.9521 184.334C56.7314 176.27 57.8921 167.65 59.3927 165.333C60.1471 164.162 60.8269 163.348 61.6642 162.808C61.656 162.8 61.656 162.8 61.656 162.8C61.656 162.8 54.3769 167.45 51.3675 174.626C49.9167 178.114 52.694 181.635 55.9521 184.334Z" fill="#51A9F3"/>
<path d="M75.7828 162.492L75.5341 159.32C76.5373 159.162 77.4824 158.705 78.2202 157.933C80.1934 155.882 80.1602 152.012 78.386 149.819C76.7445 150.318 74.6553 149.977 74.5807 150.874C74.4564 152.303 74.3237 153.449 74.3237 153.449C72.9641 152.593 71.5381 152.718 71.7288 154.537C71.8034 155.267 72.3174 156.43 72.8563 156.521C72.8563 156.521 73.2625 159.619 70.22 160.815C70.22 160.815 70.2199 160.815 70.2117 160.807L70.2034 161.903L75.7828 162.492Z" fill="#FFA683"/>
<path d="M64.9224 151.813C66.2572 146.307 68.4127 143.192 74.2823 143.051C79.6297 142.918 80.3426 147.378 80.3426 147.378C80.1768 151.24 74.7051 149.413 74.5808 150.874C74.4647 152.303 74.3238 153.449 74.3238 153.449C72.9641 152.593 71.5382 152.718 71.7289 154.537C71.8035 155.267 72.3258 156.43 72.8564 156.521C72.8564 156.521 73.2626 159.611 70.22 160.815C70.22 160.815 63.5959 157.302 64.9224 151.813Z" fill="#092B96"/>
<path d="M64.9224 151.813C66.2572 146.307 68.4127 143.192 74.2823 143.051C77.8306 142.96 79.3395 144.895 79.953 146.207C77.3415 143.732 71.6377 142.237 68.0562 147.992C64.9639 152.967 66.9121 158.98 72.6408 158.323C72.3424 159.22 71.6791 160.242 70.2117 160.815C70.22 160.815 63.596 157.302 64.9224 151.813Z" fill="#09256B"/>
<path d="M74.3239 160.333C73.8181 160.018 73.2461 158.406 73.2461 158.406C73.843 159.104 75.5426 159.32 75.5426 159.32L75.7913 162.492L74.5394 162.36C74.5643 161.371 74.5394 160.466 74.3239 160.333Z" fill="#EF7F5E"/>
<path d="M54.75 200.013C54.75 200.013 56.3832 169.983 59.3844 165.333C60.6362 163.389 61.6891 162.434 63.5793 162.052C64.7566 161.811 69.0179 161.679 70.22 161.787C72.8315 162.036 79.3726 162.899 80.9478 163.547C83.1282 164.436 91.8083 172.001 91.8083 172.001L97.6365 152.029L102.445 153.822C102.445 153.822 97.7525 182.93 93.997 183.005C90.2414 183.071 80.6328 177.707 80.6328 177.707C80.6328 177.707 79.9115 196.018 83.4598 199.365C83.4764 199.374 68.4707 206.308 54.75 200.013Z" fill="#51A9F3"/>
<path d="M59.4177 164.477C60.7359 163.406 61.6561 162.808 61.6561 162.808C61.6561 162.808 61.6561 162.808 61.6644 162.816C60.827 163.356 60.1472 164.17 59.3928 165.341C57.8922 167.658 56.7316 176.278 55.9523 184.342C55.1564 183.678 54.3854 182.963 53.6973 182.216C54.0538 177.416 55.2642 168.945 59.4177 164.477Z" fill="#147AC6"/>
<path d="M75.2691 175.473C74.7551 174.443 80.6496 177.707 80.6496 177.707C80.6496 177.707 79.9283 196.019 83.4766 199.365C83.4766 199.365 82.432 199.847 80.6413 200.445C78.5935 194.324 79.0578 186.053 78.6847 183.179C78.179 179.243 75.7831 176.502 75.2691 175.473Z" fill="#63B8F7"/>
<path d="M274.828 227.925C274.82 228.207 274.803 228.523 274.77 228.855C274.654 229.893 273.568 230.466 273.319 230.582C273.46 230.591 273.585 230.624 273.684 230.665C275.467 231.446 276.495 231.645 278.227 230.906C278.36 230.848 278.501 230.848 278.625 230.89C278.559 230.018 278.393 228.814 278.252 227.925H274.828Z" fill="#FFA683"/>
<path d="M279.023 233.589C279.065 232.85 279.048 232.019 279.023 231.396C279.007 231.006 278.6 230.749 278.244 230.906C276.503 231.654 275.483 231.454 273.692 230.674C272.316 230.076 267.873 232.559 266.778 233.29C266.77 233.29 266.77 233.298 266.762 233.298C266.198 233.68 266.48 234.569 267.16 234.569H277.995C278.542 234.56 278.998 234.137 279.023 233.589Z" fill="#2B56E0"/>
<path d="M292.777 227.261C292.769 227.543 292.752 227.858 292.719 228.191C292.603 229.229 291.517 229.802 291.268 229.918C291.409 229.926 291.533 229.96 291.633 230.001C293.415 230.782 294.443 230.981 296.176 230.242C296.309 230.184 296.45 230.184 296.574 230.225C296.508 229.353 296.342 228.149 296.201 227.261H292.777Z" fill="#FFA683"/>
<path d="M296.972 232.924C297.013 232.185 296.997 231.355 296.972 230.732C296.955 230.342 296.549 230.084 296.193 230.242C294.452 230.989 293.432 230.79 291.641 230.009C290.265 229.412 285.821 231.895 284.727 232.625C284.719 232.625 284.719 232.634 284.71 232.634C284.147 233.016 284.428 233.904 285.108 233.904H295.944C296.491 233.896 296.939 233.464 296.972 232.924Z" fill="#2B56E0"/>
<path d="M293.614 164.652C293.631 166.171 294.692 170.307 294.692 174.933C294.692 183.81 290.182 195.719 290.182 195.719L297.71 227.751L291.343 227.942L277.241 196.6L278.26 163.074L293.614 164.652Z" fill="#092B96"/>
<path d="M288.549 162.849C288.549 162.849 287.546 173.288 285.423 180.979C283.649 187.406 270.816 197.164 270.816 197.164L279.148 228.348H273.941L255.321 198.053C254.857 196.757 254.923 195.321 255.52 194.083L273.294 160.101L288.549 162.849Z" fill="#2B56E0"/>
<path d="M244.618 157.244L237.936 157.252C237.936 157.252 238.267 161.255 245.215 161.255L244.618 157.244Z" fill="#FFA683"/>
<path d="M280.54 123.269C280.59 122.937 280.706 122.032 280.648 121.517C280.441 119.449 279.205 119.084 277.779 120.363C277.779 120.363 276.486 119.557 275.781 117.954C275.359 116.999 273.585 117.73 272.192 117.456C270.99 120.379 272.092 124.399 274.621 126.276C275.649 127.04 276.602 127.131 277.821 127.123L278.161 132.288L284.42 130.619L284.329 127.579C281.933 127.646 280.192 125.578 280.54 123.269Z" fill="#FFA683"/>
<path opacity="0.4" d="M275.674 228.349C274.355 226.106 258.007 198.203 260.419 194.806C262.931 191.26 274.14 169.236 274.14 169.236L271.487 165.839C271.487 165.839 270.683 166.495 269.414 167.55L255.536 194.083C254.939 195.329 254.873 196.758 255.337 198.053L273.957 228.349H275.674Z" fill="#092B96"/>
<path d="M273.51 137.778C273.841 131.4 283.749 130.901 284.818 130.885C286.236 130.868 287.562 131.624 288.474 132.629C290.066 134.398 293.075 138.259 292.114 143.716C289.635 157.692 294.767 166.603 295.421 170.988C286.211 174.725 266.703 170.091 266.703 170.091L272.656 147.378L273.51 137.778Z" fill="#51A9F3"/>
<path d="M266.115 153.017C266.115 153.017 272.175 130.984 279.91 132.255C288.466 133.658 274.38 160.998 274.38 160.998L245.173 161.587L244.584 156.928L266.115 153.017Z" fill="#51A9F3"/>
<path d="M278.783 160.258C277.348 164.593 272.59 164.245 272.59 164.245L269.937 170.764C267.939 170.39 266.712 170.099 266.712 170.099L269.066 161.105L274.389 160.998C274.389 160.998 284.188 141.971 282.472 134.846C282.77 135.461 285.1 141.183 278.783 160.258Z" fill="#147AC6"/>
<path d="M287.048 145.584C277.166 145.077 280.499 125.802 280.615 122.065C280.681 119.989 279.206 119.075 277.78 120.354C277.78 120.354 276.495 119.549 275.782 117.946C275.359 116.991 273.154 117.722 271.761 117.448C274.579 106.054 287.935 106.585 293.838 122.007C298.92 135.319 302.833 146.398 287.048 145.584Z" fill="#092B96"/>
<path d="M278.675 128.169C278.924 127.92 279.977 125.844 279.977 125.844C279.454 126.35 278.484 126.824 278.045 127.023C277.904 127.09 277.821 127.123 277.821 127.123L278.161 132.288L278.866 132.097C278.708 130.536 278.517 128.327 278.675 128.169Z" fill="#EF7F5E"/>
<path d="M271.628 143.225C272.921 137.146 276.917 133.31 277.904 132.438C271.155 134.713 266.115 153.017 266.115 153.017L244.576 156.936L268.676 155.491C268.676 155.491 270.152 150.168 271.628 143.225Z" fill="#63B8F7"/>
<path d="M282.547 112.482C289.726 115.712 293.846 127.405 291.882 145.376C301.88 143.716 298.323 133.725 293.838 122.007C287.935 106.577 274.588 106.045 271.761 117.448C271.761 117.456 275.317 109.234 282.547 112.482Z" fill="#052575"/>
<path d="M344.509 168.015C344.045 170.556 335.713 185.272 330.565 195.113C326.536 202.82 327.398 210.136 327.962 212.96H328.948C328.36 209.555 328.119 210.078 328.973 204.772C329.91 198.95 338.996 194.906 344.7 183.678C350.412 172.458 344.982 165.474 344.509 168.015Z" fill="#51A9F3"/>
<path d="M325.358 206.922C325.648 209.713 325.881 211.64 325.98 212.96H326.478C326.643 208.226 326.933 200.046 326.743 194.582C326.461 186.534 328.666 183.221 329.91 169.651C331.153 156.081 327.646 136.881 327.646 136.881C327.646 136.881 319.232 154.113 322.166 173.297C325.11 192.481 324.082 194.615 325.358 206.922Z" fill="#51A9F3"/>
<path d="M322.987 204.215C323.045 207.255 323.559 210.975 323.874 212.96H324.405C324.314 211.557 324.214 208.974 324.107 204.39C323.783 190.496 322.366 190.654 319.961 181.361C317.565 172.068 313.694 168.206 309.69 163.531C309.69 163.531 305.553 170.207 311.397 180.132C317.242 190.056 319.555 190.745 320.931 195.628C322.299 200.511 322.896 199.855 322.987 204.215Z" fill="#51A9F3"/>
<path d="M321.619 212.96H322.2C322.482 211.058 322.506 208.218 320.948 205.569C318.287 201.051 316.206 195.088 312.102 191.152C306.489 185.77 302.585 172.325 302.585 172.325C302.585 172.325 299.633 184.267 305.345 193.735C311.057 203.202 315.833 204.987 318.378 206.54C321.097 208.193 321.636 210.967 321.619 212.96Z" fill="#51A9F3"/>
<path d="M326.021 212.96H326.113L326.552 211.116C326.718 206.3 326.925 199.39 326.751 194.582C326.469 186.534 328.674 183.221 329.918 169.651C331.162 156.081 327.655 136.881 327.655 136.881C327.655 136.881 324.455 163.638 325.333 175.913C326.162 187.274 326.038 209.671 326.021 212.96Z" fill="#1D88D8"/>
<path d="M344.833 167.517C344.915 171.129 344.625 183.404 337.413 189.939C329.048 197.505 326.386 205.859 328.873 212.96H328.948C328.359 209.555 328.119 210.078 328.973 204.772C329.91 198.95 338.996 194.906 344.7 183.678C349.774 173.704 346.051 167.077 344.833 167.517Z" fill="#1D88D8"/>
<path d="M324.123 212.96H324.405C324.314 211.557 324.214 208.974 324.106 204.39C323.783 190.496 322.365 190.654 319.961 181.361C317.565 172.068 313.694 168.206 309.689 163.531C309.689 163.531 309.524 172.765 315.501 181.643C321.478 190.521 323.137 197.065 323.302 199.523C323.435 201.549 323.949 210.045 324.123 212.96Z" fill="#1D88D8"/>
<path d="M321.743 212.96H322.199C322.481 211.058 322.506 208.218 320.948 205.569C318.286 201.051 316.205 195.088 312.102 191.152C306.489 185.77 302.584 172.325 302.584 172.325C302.584 172.325 302.767 187.548 307.194 191.982C311.621 196.425 311.513 195.138 314.945 199.523C318.378 203.908 319.43 205.129 320.757 207.819C321.603 209.538 321.743 211.656 321.743 212.96Z" fill="#1D88D8"/>
<path d="M332.646 210.51H317.126C315.542 210.51 314.349 211.955 314.647 213.508L317.69 229.445C317.913 230.632 318.958 231.496 320.168 231.496H329.603C330.813 231.496 331.85 230.632 332.082 229.445L335.124 213.508C335.415 211.955 334.221 210.51 332.646 210.51Z" fill="#D8E8EF"/>
<path d="M335.091 212.429C334.826 211.341 333.848 210.51 332.646 210.51H317.126C315.924 210.51 314.945 211.349 314.68 212.429H335.091Z" fill="#ABD0DD"/>
<path d="M332.646 210.51H329.205C330.789 210.51 331.982 211.955 331.684 213.508L328.641 229.445C328.418 230.632 327.373 231.496 326.163 231.496H329.603C330.814 231.496 331.85 230.632 332.082 229.445L335.125 213.508C335.415 211.955 334.221 210.51 332.646 210.51Z" fill="#ABD0DD"/>
<defs>
<linearGradient id="paint0_linear_74_181" x1="205.057" y1="60.2525" x2="255.474" y2="47.2169" gradientUnits="userSpaceOnUse">
<stop stop-color="white"/>
<stop offset="1" stop-color="white" stop-opacity="0"/>
</linearGradient>
<linearGradient id="paint1_linear_74_181" x1="208.372" y1="73.0752" x2="258.789" y2="60.0396" gradientUnits="userSpaceOnUse">
<stop stop-color="white"/>
<stop offset="1" stop-color="white" stop-opacity="0"/>
</linearGradient>
</defs>
</svg>
