<svg width="1267" height="822" viewBox="0 0 1267 822" fill="none" xmlns="http://www.w3.org/2000/svg">
<path opacity="0.9" d="M349.655 87.9245C321.335 81.2393 290.181 87.378 267.593 109.298C241.557 134.569 224.009 167.569 218.332 201.967C200.966 307.156 452.531 266.043 415.426 143.956C406.542 114.738 378.521 94.7432 349.655 87.9245Z" fill="white"/>
<path opacity="0.9" d="M1197.23 562C1134.3 651.669 1035.5 711.854 934.9 759.069C906.095 772.573 876.95 785.251 847.538 797.297C827.087 805.677 806.54 813.74 785.871 821.585H112.208C104.654 813.667 97.3193 805.555 90.2516 797.297C24.6752 720.646 -17.5366 629.81 8.20821 525.01C34.5116 417.974 129.355 330.588 239.984 307.345C314.887 291.606 395.133 303.653 466.417 275.771C549.772 243.177 602.282 164.024 669.364 105.685C738.948 45.1847 828.86 5.57172 921.347 1.10281C1013.83 -3.39039 1108 28.7663 1171.61 92.4483C1216.3 137.162 1244.93 195.695 1258.29 256.948C1280.8 360.243 1259.41 473.374 1197.23 562Z" fill="white"/>
</svg>
