<svg width="753" height="354" viewBox="0 0 753 354" fill="none" xmlns="http://www.w3.org/2000/svg">
<path d="M450.62 26.3581C444.846 21.3184 438.513 12.8906 432.046 3.6067C436.211 2.9813 439.751 1.98551 441.658 0C446.188 9.73324 450.984 15.8112 458.149 23.5954C455.229 22.636 453.365 25.4351 450.62 26.3581Z" fill="#C6EAE9"/>
<path d="M114.195 239.099C108.991 234.557 103.296 226.967 97.4668 218.612C101.219 218.048 104.407 217.149 106.125 215.364C110.206 224.126 114.523 229.602 120.977 236.615C118.342 235.747 116.66 238.267 114.195 239.099Z" fill="#FBD682"/>
<path d="M209.056 167.444C211.327 162.228 215.571 156.12 220.307 149.799C221.23 152.999 222.305 155.659 223.75 156.903C218.486 161.761 215.456 166.345 211.71 173.024C211.91 170.583 209.979 169.484 209.056 167.444Z" fill="#FBD682"/>
<path d="M448.58 347.263C451.106 341.47 455.817 334.694 461.076 327.669C462.102 331.221 463.292 334.178 464.895 335.556C459.048 340.948 455.684 346.036 451.531 353.456C451.749 350.748 449.6 349.522 448.58 347.263Z" fill="#EE6F57"/>
<path d="M562.434 28.3982C564.96 22.6056 569.672 15.8294 574.93 8.8042C575.956 12.3563 577.146 15.3133 578.749 16.6916C572.902 22.0834 569.538 27.1717 565.385 34.5915C565.603 31.8835 563.454 30.663 562.434 28.3982Z" fill="#708CD5"/>
<path d="M15.0104 213.032C12.7395 207.816 8.49523 201.708 3.75916 195.387C2.83623 198.587 1.76152 201.247 0.316406 202.491C5.58073 207.349 8.61062 211.933 12.357 218.612C12.1566 216.171 14.0875 215.072 15.0104 213.032Z" fill="#708CD5"/>
<path d="M303.097 123.277C300.572 117.485 295.86 110.708 290.601 103.683C289.575 107.235 288.385 110.192 286.782 111.571C292.629 116.962 295.993 122.051 300.146 129.47C299.934 126.762 302.077 125.542 303.097 123.277Z" fill="#D3DFFF"/>
<path d="M528.188 120.733C520.957 122.47 510.853 123.235 500.027 123.763C502.049 120.849 503.415 118.189 503.069 116.192C513.075 117.084 520.501 116.386 530.623 114.832C528.146 116.331 529.129 118.62 528.188 120.733Z" fill="#F5C7BE"/>
<path d="M94.7467 67.0704C101.256 69.4627 110.357 70.5192 120.109 71.2479C118.287 67.2344 117.061 63.5669 117.371 60.8103C108.36 62.0429 101.675 61.0775 92.5547 58.9341C94.7831 60.9985 93.8966 64.1559 94.7467 67.0704Z" fill="#C6EAE9"/>
<path d="M316.88 36.5527C309.558 40.8941 298.926 44.2397 287.462 47.3424C288.919 42.151 289.739 37.506 288.883 34.3061C299.812 33.705 307.591 31.0151 318.052 26.3701C315.769 29.3453 317.378 32.8913 316.88 36.5527Z" fill="#EE6F57"/>
<path d="M467.196 236.749C472.667 240.416 478.933 246.956 485.4 254.218C481.848 255.262 478.873 256.555 477.403 258.505C472.576 250.617 467.858 245.93 460.924 240.052C463.553 240.538 464.907 237.884 467.196 236.749Z" fill="#C6EAE9"/>
<path d="M373.149 242.494C378.62 246.161 384.886 252.701 391.352 259.962C387.8 261.007 384.825 262.3 383.356 264.249C378.528 256.362 373.811 251.674 366.876 245.797C369.5 246.276 370.854 243.623 373.149 242.494Z" fill="#FBD682"/>
<path d="M133.607 130.065C139.763 134.194 146.819 141.553 154.099 149.726C150.104 150.904 146.752 152.361 145.101 154.553C139.666 145.676 134.353 140.4 126.551 133.781C129.502 134.322 131.026 131.341 133.607 130.065Z" fill="#F5C7BE"/>
<path d="M532.232 201.307C536.786 197.099 541.486 189.722 546.222 181.549C542.512 180.535 539.306 179.23 537.436 177.153C534.442 185.945 530.854 191.246 525.359 197.925C527.824 197.306 529.737 200.154 532.232 201.307Z" fill="#F5C7BE"/>
<path d="M687.654 188.38C689.925 183.165 694.169 177.056 698.906 170.735C699.828 173.935 700.903 176.595 702.348 177.839C697.084 182.697 694.054 187.281 690.308 193.96C690.508 191.513 688.577 190.414 687.654 188.38Z" fill="#EE6F57"/>
<path d="M631.514 93.1118C629.619 100.629 625.32 109.864 620.414 119.531C618.514 115.566 616.534 112.354 614.367 111.115C620.281 103.246 623.304 96.3542 626.832 86.4995C627.087 89.7601 629.874 90.677 631.514 93.1118Z" fill="#D3DFFF"/>
<path d="M573.964 255.802C575.349 261.31 578.5 268.074 582.095 275.147C583.485 272.245 584.936 269.889 586.527 268.984C582.198 263.222 579.982 258.17 577.401 250.957C577.207 253.349 575.167 254.017 573.964 255.802Z" fill="#D3DFFF"/>
<path d="M745.052 80.6289C738.895 84.7578 731.84 92.1169 724.559 100.29C728.555 101.468 731.906 102.925 733.558 105.117C738.992 96.2397 744.305 90.9633 752.107 84.3449C749.157 84.8914 747.626 81.904 745.052 80.6289Z" fill="#FBD682"/>
</svg>
