<svg width="40" height="40" viewBox="0 0 40 40" fill="none" xmlns="http://www.w3.org/2000/svg">
<rect width="40" height="40" rx="20" fill="white"/>
<path d="M15.1672 27.5001H11.5391V15.8165H15.1672V27.5001ZM13.3512 14.2228C12.191 14.2228 11.25 13.2618 11.25 12.1017C11.25 11.5444 11.4714 11.01 11.8654 10.6159C12.2595 10.2219 12.7939 10.0005 13.3512 10.0005C13.9084 10.0005 14.4429 10.2219 14.8369 10.6159C15.231 11.01 15.4523 11.5444 15.4523 12.1017C15.4523 13.2618 14.5109 14.2228 13.3512 14.2228ZM28.7461 27.5001H25.1258V21.8126C25.1258 20.4571 25.0984 18.7188 23.2395 18.7188C21.3531 18.7188 21.0641 20.1915 21.0641 21.7149V27.5001H17.4398V15.8165H20.9195V17.4103H20.9703C21.4547 16.4923 22.6379 15.5235 24.4031 15.5235C28.075 15.5235 28.75 17.9415 28.75 21.0821V27.5001H28.7461Z" fill="#255FFF"/>
</svg>
