<svg width="100" height="100" viewBox="0 0 100 100" fill="none" xmlns="http://www.w3.org/2000/svg">
<path opacity="0.4" d="M95.1009 45.3781L55.3469 47.7948L85.1322 21.3928C85.253 21.272 85.4343 21.1511 85.5551 20.9699C87.2468 19.0366 87.0655 16.1366 85.1322 14.4449C83.1989 12.7532 80.2989 12.9345 78.6072 14.8678L52.2052 44.6531L54.6219 4.89911C54.6219 4.71786 54.6219 4.53661 54.6219 4.35536C54.4406 1.81787 52.2656 -0.115465 49.7281 0.00536832C47.1906 0.186618 45.2573 2.36161 45.3781 4.89911L47.7948 44.6531L21.3928 14.8678C21.272 14.747 21.1511 14.5657 20.9699 14.4449C19.0366 12.7532 16.1366 12.9345 14.4449 14.8678C12.7532 16.8011 12.9345 19.7011 14.8678 21.3928L44.6531 47.7948L4.8991 45.3781C4.71785 45.3781 4.5366 45.3781 4.35535 45.3781C1.81786 45.5594 -0.115465 47.7344 0.00536834 50.2719C0.126201 52.8094 2.36161 54.7427 4.8991 54.6218L44.6531 52.2052L14.8678 78.6072C14.747 78.728 14.5657 78.8489 14.4449 79.0301C12.7532 80.9634 12.9345 83.8634 14.8678 85.5551C16.8011 87.2467 19.7011 87.0655 21.3928 85.1322L47.7948 55.3469L45.3781 95.1009C45.3781 95.2821 45.3781 95.4634 45.3781 95.6446C45.5594 98.1821 47.7344 100.115 50.2719 99.9946C52.8094 99.8134 54.7427 97.6384 54.6219 95.1009L52.2052 55.3469L78.6072 85.1322C78.728 85.253 78.8489 85.4342 79.0301 85.5551C80.9634 87.2467 83.8634 87.0655 85.5551 85.1322C87.2468 83.1988 87.0655 80.2988 85.1322 78.6072L55.3469 52.2052L95.1009 54.6218C95.2822 54.6218 95.4634 54.6218 95.6446 54.6218C98.1821 54.4406 100.115 52.2656 99.9946 49.7281C99.8134 47.1906 97.6384 45.1969 95.1009 45.3781Z" fill="#51A9F3"/>
</svg>
