<svg width="596" height="854" viewBox="0 0 596 854" fill="none" xmlns="http://www.w3.org/2000/svg">
<path d="M562.464 52.485C562.221 53.5294 561.978 54.5737 561.759 55.5695C561.759 55.6181 561.735 55.6424 561.711 55.6667C557.63 72.6679 554.036 84.2531 547.332 95.2311L523.919 72.9837L536.719 48.769L537.544 47.2389V47.2146L537.569 47.166L537.739 47.2146L540.41 47.7732L562.464 52.485Z" fill="#F9B384"/>
<path d="M566.835 34.5605C566.787 35.3134 566.714 36.0663 566.617 36.8192C566.325 39.1265 565.864 41.5067 565.305 43.8383C564.941 45.3927 564.528 46.9471 564.091 48.4287C563.581 50.2016 563.022 51.9018 562.488 53.4562C562.342 53.8448 562.221 54.2334 562.099 54.5977C562.002 54.9377 561.881 55.2535 561.759 55.5692C561.759 55.6178 561.735 55.6421 561.711 55.6664C561.541 56.1278 561.395 56.565 561.225 57.0022C561.225 57.0507 561.201 57.0993 561.176 57.1479C561.055 57.5122 560.909 57.8522 560.788 58.1923C559.938 60.451 559.33 61.8354 559.33 61.8354C550.271 60.3539 543.689 55.5206 539.002 49.2787C538.516 48.6473 538.054 48.0158 537.617 47.36C537.593 47.3114 537.569 47.2871 537.544 47.2386V47.2143C531.521 38.2765 528.801 27.1042 527.562 18.725C527.538 18.6278 527.538 18.555 527.514 18.4578C527.076 15.4219 526.834 12.7502 526.688 10.7344C526.542 8.45135 528.364 6.53263 530.647 6.55692L534.193 6.60548L538.079 0.0478516L565.427 12.2402C565.427 12.2402 566.641 17.9478 566.957 25.6955C567.078 28.44 567.054 31.4517 566.835 34.5605Z" fill="#F9B384"/>
<path d="M549.396 38.2766L540.41 47.773L537.544 47.2387V47.2144C531.521 38.2766 528.801 27.1043 527.562 18.7251L534.508 20.3524C534.824 24.9184 538.613 34.2691 538.613 34.2691L549.396 38.2766Z" fill="#E28B6D"/>
<path d="M537.253 20.0603C534.411 22.4161 529.748 19.9145 527.514 18.4573C527.076 15.4213 526.834 12.7497 526.688 10.7338C526.542 8.45081 528.364 6.53209 530.647 6.55638L534.193 6.60495C534.193 6.60495 540.775 17.1215 537.253 20.0603Z" fill="#E28B6D"/>
<path d="M566.957 25.6948L565.773 25.543L545.232 20.8252L538.619 34.2805L548.45 38.8405C545.432 39.8909 541.54 42.2833 537.624 47.3715C542.414 54.5181 549.36 60.2075 559.331 61.8408C559.331 61.8408 565.997 46.485 566.841 34.578C567.06 31.4449 567.066 28.4393 566.957 25.6948ZM551.407 38.0936C551.99 36.1506 551.971 33.0722 547.393 31.0745L553.38 31.4996L554.182 37.9844C554.182 37.9844 553.137 37.8022 551.407 38.0936Z" fill="#F9B384"/>
<path d="M565.135 73.9789C542.985 130.132 500.894 194.494 460.99 238.333C446.344 254.411 432.015 267.721 419.069 276.877L397.721 221.817L395.049 214.92L401.752 208.921L402.967 207.828L480.323 138.632L530.622 55.4961L565.135 73.9789Z" fill="#1F3C88"/>
<path d="M451.803 764.753L401.394 766.794L393.465 802.096L440.759 809.491L451.803 764.753Z" fill="#F9B384"/>
<path d="M484.294 853.585L440.759 809.491L393.465 802.095L381.983 853.202L484.294 853.585Z" fill="#D3DFFF"/>
<path d="M390.778 814.911L390.313 817.295L413.687 821.848L414.151 819.464L390.778 814.911Z" fill="#708CD5"/>
<path d="M454.465 824.401L439.582 830.767L440.538 833L455.42 826.634L454.465 824.401Z" fill="#708CD5"/>
<path d="M463.877 832.901L448.994 839.268L449.949 841.501L464.832 835.134L463.877 832.901Z" fill="#708CD5"/>
<path d="M340.068 416.986L428.25 581.109L382.001 778.099L467.954 777.62L515.612 622.179C523.482 596.519 521.587 568.85 510.306 544.502L458.616 432.955L340.068 416.986Z" fill="#102048"/>
<path d="M328.671 381.338C271.766 457.261 196.863 499.982 113.386 526.844C115.062 523.833 116.471 520.797 117.491 517.761C120.624 508.532 120.284 499.084 113.386 489.32L110.836 462.895L264.285 349.521L300.959 374.246L328.671 381.338Z" fill="#A11C20"/>
<path d="M29.8433 347.809C59.6805 405.784 61.2774 486.212 113.392 489.333L356.195 332.763L284.753 208.842L90.3739 285.572L29.8433 347.809Z" fill="#A11C20"/>
<path opacity="0.3" d="M117.491 517.761C120.624 508.532 120.284 499.084 113.386 489.321C159.284 466.132 213.888 429.318 272.008 386.997C224.362 435.22 173.929 480.097 117.491 517.761Z" fill="#611113"/>
<path d="M335.059 355.483C280.497 450.97 188.581 494.184 69.0618 529.407L105.032 553.202C116.811 560.999 132.173 560.786 143.746 552.686C218.916 500.085 287.771 446.89 340.172 392.145L335.059 355.483Z" fill="#E1272C"/>
<path d="M356.371 207.991C286.235 176.581 172.059 230.044 58.9459 281.473C33.0918 293.228 14.7851 317.085 10.1158 345.101L0 405.789C66.4993 304.328 205.831 236.037 356.371 207.991Z" fill="#E1272C"/>
<path d="M405.226 210.232C404.91 220.797 404.473 229.662 404.57 231.362L363.937 237.653L340.645 220.603C351.72 207.949 356.869 179.071 363.281 154.055L388.807 169.283L405.371 179.144C405.809 187.548 405.59 199.716 405.226 210.232Z" fill="#F9B384"/>
<path d="M405.226 210.232C393.058 202.921 377.295 191.773 370.106 166.539L388.807 169.283L405.371 179.144C405.809 187.547 405.59 199.715 405.226 210.232Z" fill="#E28B6D"/>
<path d="M429.392 149.1C429.659 154.735 428.955 159.884 427.449 164.426C419.458 188.738 389.244 195.392 366.948 164.28L365.078 116.239L380.841 102.663L432.088 122.457L428.882 143.66C429.149 145.53 429.343 147.327 429.392 149.1Z" fill="#F9B384"/>
<path d="M486.711 390.555C478.757 335.993 442.944 254.715 404.868 220.469L386.962 256.275L438.967 402.917L486.711 390.555Z" fill="#708CD5"/>
<path d="M461.13 390.555C449.059 334.791 432.713 276.312 404.861 220.469C390.793 236.669 349.443 205.125 349.443 205.125L328.131 223.457L384.399 414.994L461.13 390.555Z" fill="white"/>
<path d="M513.421 583.799L469.655 569.02L459.035 594.765L500.919 617.334L513.421 583.799Z" fill="#F9B384"/>
<path d="M526.494 672.467L500.919 617.334L459.035 594.765L440.103 640.638L526.494 672.467Z" fill="#D3DFFF"/>
<path d="M507.637 631.79L493.064 635.839L493.714 638.179L508.287 634.13L507.637 631.79Z" fill="#708CD5"/>
<path d="M512.894 642.721L498.321 646.77L498.971 649.11L513.544 645.061L512.894 642.721Z" fill="#708CD5"/>
<path d="M453.868 607.187L452.782 609.359L477.877 621.907L478.963 619.735L453.868 607.187Z" fill="#708CD5"/>
<path d="M385.534 358.727C445.853 363.05 507.859 373.815 563.04 397.738C592.774 410.629 602.647 451.42 589.082 480.857L534.448 599.434L455.161 574.71L505.564 469.794C353.238 474.341 336.565 418.383 336.565 418.383L385.534 358.727Z" fill="#1F3C88"/>
<path d="M414.528 394.526C394.661 430.107 365.686 449.659 329.886 463.309L325.806 427.071L318.325 360.572L306.813 258.079L314.488 221.745L349.437 205.132C387.812 245.619 400.247 336.09 414.528 394.526Z" fill="#708CD5"/>
<path d="M368.612 142.658C369.28 129.518 372.923 122.487 382.705 118.425C401.285 135.353 435.585 134.74 452.732 119.135C446.538 116.974 442.015 115.395 437.552 110.738C434.99 108.066 433.709 106.287 430.393 99.6811C418.48 75.9218 373.998 74.3067 367.725 97.1795C340.202 110.538 353.499 130.793 357.992 143.101L368.612 142.658Z" fill="#102048"/>
<path d="M377.86 296.696L380.993 273.817L395.061 266.567C395.061 266.567 402.038 267.745 399.099 276.762C396.16 285.784 377.86 296.696 377.86 296.696Z" fill="#E28B6D"/>
<path d="M368.989 302.082L377.853 296.702L389.281 277.679L404.606 270.01C405.511 269.555 406.61 269.968 406.999 270.903C408.935 272.548 410.004 274.941 410.022 278.231C413.471 281.11 414.127 284.346 412.579 287.849C417.333 289.865 419.118 292.349 417.715 295.33C419.853 298.827 421.11 302.185 420.26 306.284L396.676 323.327L373.512 331.901L368.989 302.082Z" fill="#F9B384"/>
<path opacity="0.3" d="M376.445 336.552C366.851 375.703 350.336 406.33 325.805 427.071L318.325 360.572L376.445 336.552Z" fill="#1F3C88"/>
<path d="M349.443 205.125L301.135 210.888C284.231 212.904 269.962 224.294 264.109 240.276C249.312 280.702 239.281 324.019 236.882 361.209C235.358 384.793 257.126 403.136 280.199 398.011C318.045 389.602 348.976 365.132 376.445 336.558L371.897 297.339L294.596 334.281L349.443 205.125Z" fill="#708CD5"/>
<path d="M375.753 151.341C372.82 157.74 368.029 162.07 361.818 159.228C355.612 156.38 347.949 147.297 351.927 138.523C354.835 132.111 363.664 131.734 369.869 134.576C376.074 137.424 378.685 144.947 375.753 151.341Z" fill="#F9B384"/>
<path d="M319.394 274.855C317.651 279.919 315.775 284.928 313.868 289.925C311.986 294.935 309.952 299.877 307.997 304.856L301.834 319.665C299.702 324.571 297.565 329.478 295.258 334.311L294.377 333.953C296.09 328.876 297.972 323.873 299.866 318.87L305.768 303.951C307.839 299.021 309.824 294.054 311.968 289.154C314.087 284.242 316.23 279.342 318.513 274.497L319.394 274.855Z" fill="#1F3C88"/>
<path d="M294.766 333.552C301.068 330.267 307.389 327.03 313.758 323.897C320.11 320.716 326.534 317.692 332.915 314.577L352.206 305.548C358.672 302.609 365.139 299.683 371.69 296.92L372.097 297.776C365.825 301.122 359.474 304.297 353.116 307.467L333.948 316.757C327.511 319.75 321.112 322.829 314.639 325.755C308.191 328.724 301.694 331.596 295.172 334.42L294.766 333.552Z" fill="#1F3C88"/>
<g opacity="0.3">
<path d="M376.676 232.886C380.628 236.056 385.565 237.707 390.404 237.386C395.244 237.058 399.901 234.817 403.471 231.223L404.224 231.806C401.431 236.432 396.094 239.48 390.556 239.802C385.018 240.124 379.384 237.762 376.002 233.56L376.676 232.886Z" fill="#1F3C88"/>
<path d="M412.02 350.542C415.074 347.493 417.794 344.16 420.09 340.565C422.367 336.959 424.334 333.164 425.749 329.144C427.23 325.155 428.268 321.008 428.827 316.782C429.428 312.562 429.513 308.263 429.203 303.958L430.145 303.818C431.104 308.123 431.304 312.592 430.934 317.013C430.527 321.433 429.531 325.805 428.001 329.976C426.404 334.117 424.388 338.118 421.778 341.713C419.197 345.32 416.137 348.58 412.633 351.252L412.02 350.542Z" fill="#1F3C88"/>
<path d="M417.874 351.719C421.328 349.296 424.644 346.837 427.734 344.08C430.837 341.348 433.691 338.373 436.587 335.294L437.364 335.841C435.415 339.69 432.58 343.054 429.331 345.902C426.065 348.719 422.361 351.087 418.317 352.569L417.874 351.719Z" fill="#1F3C88"/>
</g>
<path d="M367.124 147.449C366.754 146.307 366.25 145.257 365.6 144.328C364.932 143.417 364.186 142.561 363.257 141.948C361.459 140.624 359.207 140.035 356.826 139.986L356.699 139.288C357.925 138.815 359.292 138.742 360.615 138.942C361.933 139.173 363.214 139.701 364.325 140.49C365.394 141.322 366.335 142.342 366.93 143.545C367.543 144.729 367.889 146.052 367.841 147.358L367.124 147.449Z" fill="#E28B6D"/>
<path d="M394.612 131.88C390.489 130.745 389.42 137.916 390.052 140.533C390.647 142.986 392.638 143.696 394.345 141.735C395.917 139.931 398.225 132.876 394.612 131.88Z" fill="#102048"/>
<path d="M421.116 136.447C420.581 134.188 418.031 133.368 416.61 135.184C415.991 135.973 415.712 137.017 415.554 138.044C415.317 139.61 414.886 141.565 415.426 143.174C416.1 145.19 417.946 146.101 419.306 144.188C420.63 142.3 421.668 138.827 421.116 136.447Z" fill="#102048"/>
<path d="M406.78 139.804C406.738 141.699 406.634 143.605 406.689 145.433C406.75 146.326 406.78 147.273 407.041 147.874C407.308 148.536 407.794 149.192 408.413 149.872C409.021 150.552 409.713 151.292 410.308 152.221C410.612 152.677 410.836 153.217 411.018 153.794C411.176 154.389 411.267 155.197 410.873 155.931C410.478 156.66 409.865 157.012 409.379 157.243C408.875 157.48 408.389 157.638 407.94 157.783C407.005 158.032 406.179 158.293 405.432 158.718L404.831 158.056C405.541 157.225 406.513 156.757 407.339 156.302C408.171 155.919 409.057 155.403 409.069 155.069C409.154 154.863 408.936 154.085 408.438 153.43C408.001 152.756 407.351 152.118 406.701 151.371C406.07 150.618 405.347 149.75 404.977 148.603C404.6 147.394 404.685 146.386 404.752 145.384C404.916 143.399 405.305 141.511 405.894 139.646L406.78 139.804Z" fill="#102048"/>
<path d="M392.882 157.188L409.731 165.385C406.847 171.002 393.944 170.394 392.882 157.188Z" fill="white"/>
<path opacity="0.4" d="M427.449 164.426C426.987 164.523 426.501 164.572 426.016 164.572C421.547 164.572 417.928 160.953 417.928 156.484C417.928 152.015 421.547 148.372 426.016 148.372C427.23 148.372 428.372 148.639 429.392 149.101C429.659 154.735 428.955 159.884 427.449 164.426Z" fill="#FC8879"/>
<path opacity="0.4" d="M382.104 159.513C386.574 159.513 390.198 155.89 390.198 151.419C390.198 146.949 386.574 143.326 382.104 143.326C377.634 143.326 374.01 146.949 374.01 151.419C374.01 155.89 377.634 159.513 382.104 159.513Z" fill="#FC8879"/>
</svg>
