<svg width="24" height="24" viewBox="0 0 24 24" fill="none" xmlns="http://www.w3.org/2000/svg">
<path fill-rule="evenodd" clip-rule="evenodd" d="M16.6054 1.94595C15.6414 1.94595 14.7275 2.30765 14.0622 2.93511L3.63549 12.7688C2.54634 13.796 1.94595 15.1766 1.94595 16.6032C1.94595 18.0299 2.54634 19.4105 3.63548 20.4377C4.72658 21.4667 6.21798 22.0541 7.78415 22.0541C9.35032 22.0541 10.8418 21.4667 11.9328 20.4377L22.3595 10.6041C22.7504 10.2354 23.3662 10.2534 23.7349 10.6443C24.1035 11.0353 24.0855 11.6511 23.6946 12.0197L13.268 21.8534C11.8044 23.2337 9.83084 24 7.78415 24C5.73745 24 3.76394 23.2337 2.30035 21.8534C0.834808 20.4712 0 18.584 0 16.6032C0 14.6225 0.834816 12.7353 2.30035 11.3531L12.727 1.51947C13.7648 0.540666 15.1609 0 16.6054 0C18.0499 0 19.446 0.540666 20.4838 1.51947C21.5235 2.50006 22.1192 3.84263 22.1192 5.25549C22.1192 6.66835 21.5235 8.01094 20.4838 8.99153L10.0458 18.825C9.43379 19.4024 8.61523 19.7175 7.77281 19.7175C6.93038 19.7175 6.11181 19.4024 5.49975 18.825C4.88582 18.246 4.52944 17.4482 4.52944 16.6032C4.52944 15.7584 4.88584 14.9603 5.49986 14.3813L15.1326 5.30701C15.5238 4.93855 16.1395 4.95693 16.508 5.34807C16.8765 5.73921 16.8581 6.35499 16.4669 6.72345L6.83492 15.797C6.8348 15.7971 6.83467 15.7972 6.83455 15.7973C6.59727 16.0213 6.47538 16.3125 6.47538 16.6032C6.47538 16.8941 6.59737 17.1854 6.83492 17.4094L6.83503 17.4095C7.07454 17.6354 7.41093 17.7715 7.77281 17.7715C8.13467 17.7715 8.47106 17.6354 8.71058 17.4095L19.1486 7.57587C19.1488 7.57575 19.1489 7.57562 19.149 7.5755M19.149 7.5755C19.8122 6.94989 20.1732 6.11406 20.1732 5.25549C20.1732 4.39676 19.812 3.56078 19.1486 2.93511C18.4833 2.30765 17.5694 1.94595 16.6054 1.94595" fill="#255FFF"/>
</svg>
